<svg width="60" height="60" fill="none" xmlns="http://www.w3.org/2000/svg"><circle cx="30" cy="30" r="15" stroke="#A6A272" stroke-width="2" stroke-linejoin="round"/><path d="m36 16 4.5-15h-21L24 16M44 36l15 4.5v-21L44 24M24 44l-4.5 15h21L36 44M16 24 1 19.5v21L16 36" stroke="#A6A272" stroke-width="2" stroke-linejoin="round"/><path d="M23 22v16h14V22" stroke="#A6A272" stroke-width="2" stroke-linecap="round" stroke-linejoin="round"/><path d="m23 22 3.5 8.182L23 33.59 30 37l7-3.41-3.5-3.408L37 22" stroke="#A6A272" stroke-width="2" stroke-linejoin="round"/><path d="M30 18v24m0 0-2-3.6h4L30 42Z" stroke="#A6A272" stroke-width="2" stroke-linecap="round" stroke-linejoin="round"/><path d="M48.68 12.787c-2.822-.945-3.072-4.901-.387-6.12A3.298 3.298 0 0 1 52 7.34c.657.657.938 1.343.934 2.282-.01 2.238-2.186 3.856-4.253 3.164ZM4.73 5.712C4.054 5.055 4.009 4.465 4.6 4c.576-.453.913-.409 1.588.21l.584.535.592-.535c.703-.635 1.098-.672 1.62-.15s.485.924-.15 1.617l-.535.584.535.592c.611.677.675 1.167.215 1.661-.458.492-1.098.442-1.643-.127-.249-.26-.531-.472-.629-.472-.097 0-.38.212-.628.472-.534.557-1.186.62-1.649.157-.464-.465-.39-1.015.23-1.702l.545-.603-.544-.527ZM46.645 48.5c-1.217-.235-1.433-1.665-.343-2.274.413-.23 1.032-.088 1.374.318.678.8-.033 2.149-1.03 1.956ZM14 17.5c-.754-.19-.929-1.138-.32-1.746.665-.665 2.011.235 1.696 1.133-.174.494-.777.763-1.376.613Z" fill="#323232"/><path d="m29 20 1-2 1 2-1 3-1-3ZM29 35l1-11 1 11-1 2-1-2Z" stroke="#A6A272" stroke-width="2" stroke-linejoin="round"/></svg>