<svg width="60" height="60" fill="none" xmlns="http://www.w3.org/2000/svg"><path fill-rule="evenodd" clip-rule="evenodd" d="M14.578 3.838C12.518 4.13 10.299 5 8.505 6.218c-1.232.837-2.936 2.503-3.99 3.902-1.003 1.33-2.244 3.725-2.748 5.303-.679 2.121-.837 3.527-.75 6.679.116 4.167.494 6.298 1.507 8.5 1.312 2.85 3.745 4.238 7.802 4.45.882.046 1.714.14 1.848.209.302.155.33 1.037.055 1.69-.33.776-.66.959-1.988 1.093-1.458.148-2.09.31-3.194.815-1.767.808-3.312 2.317-4.221 4.122-.686 1.362-.767 1.803-.857 4.674l-.085 2.721-.748.075C.031 50.562 0 50.641 0 53.323v2.266l.378.297c.264.207.484.27.732.21.692-.17.77-.376.82-2.166l.047-1.67h56.046l.047 1.67c.05 1.8.126 1.996.842 2.171.293.072.455.014.732-.263.352-.352.356-.383.356-2.568 0-1.69-.047-2.277-.198-2.483-.184-.253-.44-.276-3.802-.34l-3.605-.07-.037-.49c-.08-1.04-.097-1.057-1.983-2.12-.995-.56-1.811-1.066-1.813-1.123-.002-.058.885-.105 1.972-.105 1.855 0 2.013-.021 2.57-.348.389-.227.681-.539.85-.903l.255-.556 2.04-.003c1.848-.004 2.073-.03 2.407-.293.362-.285.367-.313.367-2.062 0-2.353-.027-2.393-1.612-2.393h-1.178v-3.457l.453-.078c.25-.043.83-.118 1.29-.166.461-.049 1.043-.151 1.293-.228.754-.232.97-.995.434-1.531-.311-.31-.756-.316-2.808-.035-.6.082-.662.065-.662-.188 0-.456-.53-1.015-.963-1.015-.514 0-.99.526-.99 1.09 0 .245-.02.445-.045.445-.024 0-.756.094-1.628.21-1.039.136-1.672.288-1.84.44-.344.31-.323.957.042 1.322.31.31.756.316 2.807.035l.663-.091v3.247h-.439c-.329 0-.61-.16-1.12-.638-1.14-1.066-1.657-1.226-4.162-1.29l-2.163-.056-.603-.555c-1.89-1.74-4.994-1.7-6.973.089l-.52.47-2.092.048c-1.916.045-2.157.08-2.883.42a6.73 6.73 0 0 0-1.421.951c-.484.446-.722.57-1.022.536l-.393-.045-.039-1.693-.039-1.693.458-.078c.252-.044.834-.12 1.295-.169 1.454-.155 1.831-.3 2.027-.772.156-.376.143-.471-.104-.801-.245-.326-.379-.375-1.032-.373a17.61 17.61 0 0 0-1.694.115l-.941.114v-.422c0-.277-.106-.495-.31-.639-.704-.492-1.504-.05-1.504.83 0 .295-.07.49-.175.493-.096.002-.827.091-1.625.198-1.08.145-1.52.265-1.726.47-.349.349-.355.924-.015 1.301.275.306.517.308 2.808.03l.733-.09v3.249h-.708c-.561 0-.836-.089-1.33-.428-1.248-.859-2.552-1.292-4.563-1.515-1.194-.133-1.543-.336-1.86-1.087-.277-.653-.248-1.535.054-1.69.134-.07.966-.163 1.849-.21 4.049-.21 6.39-1.527 7.739-4.35 1.074-2.248 1.453-4.345 1.565-8.65.06-2.31.03-3.196-.143-4.186-1.172-6.7-6.25-12.457-12.168-13.792-1.235-.279-3.362-.39-4.462-.235Zm3.599 2.016c3.036.581 5.986 2.55 8.164 5.452.945 1.26 2.162 3.718 2.599 5.25.517 1.814.641 3.357.5 6.216-.136 2.76-.287 3.926-.708 5.483-.732 2.701-2.373 4.32-4.768 4.701l-.592.094.522-.638c.708-.865 1.555-2.483 1.909-3.646.296-.974.848-6.683.848-8.773 0-1.967-.698-4.285-1.372-4.556-2.353-.943-9.012-1.455-13-1-1.633.187-4.609.76-5.193 1-.43.176-.837 1.099-1.166 2.637-.259 1.208-.248 2.098.075 6.14.363 4.543.68 5.665 2.209 7.794l.741 1.034-.564-.09c-1.063-.17-2.09-.654-2.84-1.34-1.66-1.518-2.379-3.942-2.605-8.792-.19-4.081.172-6.123 1.6-9.002 2.877-5.796 8.33-8.98 13.64-7.964ZM15.81 8.588c-.5.2-.602.594-.602 2.33 0 1.976.128 2.272.977 2.272.853 0 .977-.292.977-2.318 0-1.416-.04-1.744-.244-1.98-.304-.351-.71-.463-1.108-.304Zm-5.98 1.177c-.312.312-.343.453-.343 1.574 0 1.519.176 1.851.977 1.851.801 0 .977-.332.977-1.851 0-1.121-.03-1.262-.343-1.574-.188-.188-.473-.342-.634-.342-.16 0-.446.154-.634.342Zm11.442 0c-.312.312-.343.453-.343 1.574 0 1.519.176 1.851.977 1.851.801 0 .977-.332.977-1.851 0-1.121-.03-1.262-.343-1.574-.188-.188-.474-.342-.634-.342-.16 0-.446.154-.634.342Zm-.692 6.632c1.643.245 3.355.574 3.512.675.082.052.192.234.245.405l.097.31-.671-.31c-.664-.307-.738-.31-7.578-.31s-6.913.003-7.578.31l-.67.31.095-.31c.052-.17.108-.326.125-.346.086-.102 2.685-.59 3.842-.721.73-.083 1.514-.177 1.744-.209.727-.102 5.817.044 6.837.196Zm2.575 2.933c.794.446 1.402 1.53 1.402 2.5 0 .958-.567 2.016-1.316 2.455-.708.415-1.808.467-2.54.12-.595-.283-1.402-1.208-1.52-1.743-.162-.742-.45-.82-2.996-.82-2.545 0-2.834.078-2.996.82-.118.535-.925 1.46-1.52 1.743-.264.125-.802.227-1.197.227-1.514 0-2.533-.997-2.634-2.578-.098-1.552.713-2.717 2.087-2.997.335-.068 3.309-.113 6.609-.1l6 .024.621.349Zm-5.15 5.185c1.225 1.818 3.824 2.581 5.703 1.674l.61-.295-.083.939c-.21 2.387-1.559 4.612-3.64 6.004-1.404.94-2.719 1.338-4.41 1.338-1.691 0-3.005-.399-4.41-1.338-2.062-1.38-3.412-3.59-3.641-5.961-.082-.843-.071-.89.18-.786.146.06.543.197.882.303 1.843.577 4.058-.228 5.168-1.878l.485-.72h2.673l.484.72Zm-4.318 3.592c-.315.315-.379.848-.15 1.274.207.387 1.415.694 2.708.687 2.023-.011 3.097-.635 2.735-1.588-.204-.536-.716-.724-1.378-.506-.538.177-2.468.14-3.252-.064-.277-.072-.444-.022-.663.197Zm4.452 8.495c0 .72.241 1.335.769 1.961.451.535.445.544-.77 1.02-1.393.546-3.662.347-4.871-.427-.161-.103-.125-.213.195-.593.528-.626.77-1.242.77-1.961v-.598h3.907v.598Zm25.775 1.825c.313.16.766.527 1.007.817 1.8 2.174.255 5.426-2.57 5.405-2.356-.018-3.978-2.495-3.017-4.61.339-.747 1.155-1.526 1.877-1.793.752-.277 1.965-.196 2.703.18Zm-31.197 2.54c1.634.825 3.647 1.057 5.345.615.897-.234 2.579-1.065 2.922-1.445.427-.472 2.916.008 4.236.818l.453.278v1.403c0 1.305.025 1.428.343 1.747.294.294.472.342 1.26.342.868 0 .924.02 1.072.384.086.21.186 1.498.223 2.86l.067 2.477H3.733l.07-2.477c.058-2.055.12-2.617.366-3.302.95-2.64 3.242-4.423 6.017-4.68.812-.074.95-.049 1.312.243.222.18.771.511 1.22.738Zm24.475.305c.001 1.327.018 1.38 1.01 3.349.029.057-1.172.104-2.67.104-3.237 0-3.16.033-3.16-1.384 0-1.577.486-2.53 1.562-3.063.485-.24.855-.297 1.929-.297h1.328l.001 1.29Zm13.5-1.065c1.197.604 1.633 1.41 1.633 3.02 0 .719-.065 1.227-.168 1.33-.119.12-.965.168-2.917.168h-2.75l.51-.995c.486-.946.51-1.06.51-2.371V39.98h1.368c.983 0 1.493.063 1.814.226Zm-20.135 1.855c0 .666-.094.71-1.55.71h-1.38v-.977h1.465c1.351 0 1.465.02 1.465.267Zm26.625.256.044.454h-2.948v-.987l1.43.04 1.43.04.044.453ZM15.5 44.116c-.357.454-.366.763-.032 1.175.508.628 1.696.235 1.696-.563 0-.434-.544-.98-.977-.98-.264 0-.496.124-.687.368Zm15.13.889c.13.414.744 1.097 1.195 1.33.293.151.927.205 2.46.209 2.394.005 2.394-.072.005 1.271-.826.465-1.595.978-1.71 1.141-.113.163-.207.565-.207.893v.597h-.911c-.605 0-.931-.058-.97-.174-.101-.308-.146-5.547-.047-5.547.053 0 .135.126.184.28Zm16.813 3.264c1.697.974 3.02 1.82 3.045 1.95.041.208-.64.227-8.058.227-7.626 0-8.103-.014-8.1-.244.002-.171.908-.753 3.035-1.951l3.031-1.707 2.024.001 2.023.001 3 1.723Zm-32.015-1.28c-.292.416-.274.697.072 1.136.191.244.423.368.687.368.426 0 .977-.545.977-.965 0-.491-.412-.85-.977-.85-.402 0-.598.08-.76.31Z" fill="#A6A272"/><path d="M51.198 12.002c-.9.88-2.22-.363-1.36-1.28.366-.389.81-.412 1.24-.065.366.297.433 1.038.12 1.345ZM38.15 13.713c-.55-.6-.589-.899-.186-1.41.397-.505.941-.486 1.455.05.22.23.46.419.53.419.072 0 .345-.189.608-.419.553-.486 1.049-.534 1.443-.14.411.412.356.991-.14 1.466-.23.22-.418.471-.418.558 0 .086.188.337.419.558.536.513.555 1.058.05 1.455-.511.403-.81.363-1.41-.186l-.519-.476-.526.476c-.624.564-.975.596-1.439.133-.463-.464-.43-.815.133-1.44l.475-.525-.475-.519ZM46.18 21.252c.395-.576 1.091-1.078 1.715-1.234 2.083-.522 3.997 1.48 3.395 3.552-.722 2.483-4.082 2.766-5.272.446-.385-.751-.307-2.08.161-2.764Z" fill="#323232"/></svg>