<svg width="60" height="60" fill="none" xmlns="http://www.w3.org/2000/svg"><path fill-rule="evenodd" clip-rule="evenodd" d="M31.628 2.654c-.232.162-4.685 5.543-4.84 5.848-.008.016-1.133-.355-2.5-.825-2.69-.925-3.211-1.007-3.61-.567-.343.38-.33.76.147 4.538.224 1.766.377 3.24.341 3.276-.036.036-1.14-.182-2.456-.484-1.315-.301-2.497-.549-2.626-.549s-.416.182-.639.405c-.384.384-.4.461-.295 1.515.06.611.289 1.72.508 2.462.22.744.434 1.475.478 1.627.057.198-.011.274-.246.274-1.336 0-1.697 1.398-.737 2.85l.401.606h-.373c-.655 0-1.202.57-1.202 1.25 0 .693.625 3.2 1.094 4.39.176.446.32.88.32.963 0 .095-2.755.151-7.383.151-7.172 0-7.39.009-7.696.314-.309.31-.314.524-.314 13.587 0 13.063.005 13.278.314 13.587.312.312.524.314 29.686.314s29.374-.002 29.686-.314c.309-.31.314-.524.314-13.587 0-13.063-.005-13.278-.314-13.587-.305-.305-.524-.314-7.618-.314-4.017 0-7.304-.06-7.304-.135 0-.074.24-.657.533-1.296 1.01-2.2 1.964-5.686 1.768-6.465-.143-.569-.778-.845-1.414-.615a2.808 2.808 0 0 1-2.05-.033l-.526-.22.529-1.518c.29-.835.73-2.49.977-3.676.677-3.258.426-3.567-2.324-2.853-.644.167-1.195.281-1.223.253-.029-.029.132-1.136.356-2.461.224-1.325.367-2.57.318-2.767-.05-.196-.248-.46-.44-.587-.312-.203-.697-.186-3.415.153l-3.102.385c-.021.001-.04-.263-.041-.587-.004-.917-.42-2.468-1.001-3.724-.793-1.717-1.32-2.118-2.081-1.584Zm.816 5.757c.012 1.003.075 1.908.14 2.012.27.436.868.45 3.784.084 1.63-.204 2.982-.355 3.002-.334.02.02-.148 1.165-.374 2.545-.608 3.707-.449 3.977 1.995 3.373.787-.194 1.46-.325 1.495-.29.226.226-1.24 4.868-1.655 5.243-.428.387-.405 1.225.046 1.651.52.493 2.042 1.227 2.943 1.42.433.093.787.227.787.297 0 .639-1.429 4.249-2.108 5.324l-.409.648h-1.542c-.849 0-1.576-.033-1.616-.073-.04-.04.088-.87.286-1.846.492-2.432.483-3.179-.045-3.525-.343-.225-.512-.24-1.059-.094-.358.096-.678.147-.71.114-.034-.033.03-.88.142-1.882.198-1.778.195-1.829-.127-2.151-.41-.41-.983-.404-1.974.021-.417.18-.814.326-.881.326-.067 0-.164-.35-.215-.778-.127-1.081-.805-2.43-1.673-3.33-.704-.731-1.078-.883-1.644-.666-.137.053-.855 1.075-1.593 2.27-1.226 1.984-1.374 2.163-1.687 2.04a48.027 48.027 0 0 1-1.418-.62c-1.29-.584-1.38-.59-1.926-.12l-.427.367.192 2.185c.106 1.203.231 2.447.28 2.765l.087.58-1.315-.36c-.723-.197-1.42-.325-1.55-.284-.557.179-.785.556-.785 1.302 0 .683.335 2.768.557 3.469.086.271-.03.29-1.782.29H17.79l-.482-1.296c-.476-1.28-.974-2.881-.974-3.13 0-.071.427-.129.95-.129.798 0 1.01-.061 1.335-.386.212-.212.385-.525.385-.696 0-.17-.384-.757-.853-1.303l-.854-.992.531-.092c1.212-.21 1.343-.707.646-2.457-.64-1.606-1.133-3.301-.998-3.436.052-.052 1.232.167 2.622.486 2.402.551 2.549.568 2.925.321.218-.143.436-.363.485-.49.048-.127-.106-1.787-.343-3.689-.237-1.901-.39-3.498-.341-3.547.049-.049 1.025.24 2.17.642 1.757.617 2.142.704 2.482.559.221-.095 1.318-1.313 2.436-2.708l2.034-2.537.236.542c.16.366.245 1.131.26 2.365ZM31.99 19.9c.206.385.274.907.28 2.133.006 1.435.043 1.65.32 1.855.373.276.806.223 1.946-.24l.846-.345-.104.595c-.058.328-.148 1.206-.201 1.952-.095 1.344-.092 1.359.326 1.633.365.24.507.25 1.058.086.35-.105.666-.161.703-.125.061.062-.316 2.056-.504 2.665-.08.256-.524.275-6.427.275-4.487 0-6.373-.051-6.45-.175-.16-.26-.677-2.338-.58-2.338.045 0 .64.152 1.32.339.998.274 1.313.304 1.632.159.603-.275.675-.712.452-2.776-.111-1.036-.206-2.146-.212-2.465l-.009-.58.887.392c1.41.623 1.719.517 2.648-.91a74.1 74.1 0 0 0 1.213-1.923c.235-.395.463-.718.506-.718.043 0 .2.23.35.51Zm25.81 24.385v11.86H2.199V32.425h55.602v11.86ZM8.975 33.8c-.222.187-.376.587-.477 1.241-.343 2.2-1.669 3.526-3.832 3.832-1.51.213-1.446-.005-1.446 4.882v4.25l.37.3c.499.403.902.377 1.365-.086l.385-.386v-6.846l.921-.27c1.78-.524 3.548-2.292 4.07-4.071l.271-.92 3.423-.001h3.424l.385-.386c.212-.212.386-.533.386-.714 0-.18-.174-.502-.386-.714l-.385-.385h-4.074c-3.65 0-4.107.028-4.4.274ZM4.566 35.04c-.401.51-.41.86-.036 1.323.584.72 1.91.26 1.91-.662 0-.429-.697-1.075-1.16-1.075-.232 0-.519.166-.714.414Zm25.679 3.234c-.135.192-.245.651-.245 1.02v.673h-1.221c-1.906 0-1.92.019-1.92 2.654 0 2.688-.002 2.686 1.858 2.686H30v1.1h-1.221c-1.474 0-1.92.232-1.92 1 0 .93.28 1.113 1.793 1.175l1.348.056v.656c0 .878.349 1.354.99 1.351.276-.001.58-.054.675-.118.306-.204.534-.786.534-1.361v-.56h1.157c.932 0 1.237-.064 1.57-.326.409-.321.414-.352.414-2.321 0-2.649-.03-2.694-1.815-2.694H32.2v-1.1h1.157c1.37 0 1.984-.34 1.984-1.099 0-.759-.615-1.1-1.984-1.1h-1.157v-.56c0-.575-.228-1.157-.534-1.361-.377-.252-1.174-.123-1.42.229Zm24.829 2.018-.414.326v6.986l-.792.203c-1.824.467-3.657 2.27-4.205 4.136l-.265.903H42.55l-.385.386c-.212.212-.386.533-.386.714 0 .18.174.502.386.714l.385.386h3.924c2.158 0 4.096-.066 4.307-.146.403-.153.734-.855.74-1.566.005-.59.563-1.739 1.144-2.352.61-.645 1.887-1.273 2.59-1.275.812-.003 1.416-.393 1.526-.984.052-.28.073-2.23.047-4.333-.049-3.802-.05-3.825-.42-4.123-.476-.386-.821-.38-1.335.025ZM30 42.724c0 .537-.02.558-.51.51-.45-.043-.517-.11-.56-.559-.047-.49-.026-.51.51-.51.537 0 .56.023.56.56Zm3.141 3.132c0 .506-.037.55-.47.55-.435 0-.472-.044-.472-.55s.037-.55.471-.55.471.044.471.55Zm21.904 6.276c-.506.506-.495 1.076.029 1.488.51.401.859.41 1.322.035.72-.583.261-1.909-.661-1.909-.167 0-.478.174-.69.386Z" fill="#A6A272"/><path d="M46.32 8.372c-2.823-.945-3.074-4.901-.389-6.12a3.298 3.298 0 0 1 3.708.674c.657.657.938 1.343.933 2.282-.01 2.238-2.186 3.856-4.253 3.164ZM6.513 5.09c-.677-.656-.722-1.246-.13-1.711.576-.454.913-.41 1.588.21l.584.534.592-.535c.702-.634 1.098-.67 1.62-.149.522.522.485.924-.15 1.617l-.535.583.535.593c.611.676.675 1.167.215 1.66-.459.493-1.098.443-1.643-.126-.249-.26-.532-.472-.629-.472-.097 0-.38.212-.628.472-.534.557-1.187.62-1.65.157-.464-.465-.389-1.015.231-1.702l.545-.603-.545-.528ZM53.982 13.83c-1.218-.235-1.433-1.665-.343-2.274.412-.23 1.031-.088 1.374.318.677.8-.034 2.149-1.031 1.956ZM4.974 19.488c-.754-.19-.929-1.138-.32-1.746.665-.665 2.012.235 1.696 1.133-.174.495-.777.763-1.376.613Z" fill="#323232"/></svg>