<svg width="375" height="320" fill="none" xmlns="http://www.w3.org/2000/svg"><g clip-path="url('#clip0_132_4618')"><path fill="#323232" d="M0 0h375v320H0z"/><g opacity=".05" stroke="#fff" stroke-miterlimit="10" stroke-linecap="round" stroke-linejoin="round"><path d="M291.831-468.852c1.623 21.42-.59 42.84-1.474 64.26-.885 23.932.442 48.011-.443 72.09-.442 11.966-1.622 24.079-3.687 35.897-2.212 11.67-5.015 23.193-6.047 35.011-2.065 23.045 6.194 42.988 18.141 62.192 9.144 14.772 19.468 34.272 36.724 40.92 19.469 7.386 36.283-8.421 54.129-13.148 19.763-5.17 38.494 4.579 55.16 14.182 18.879 10.931 37.462 20.238 58.7 25.851 21.534 5.762 43.509 9.159 65.043 14.33 21.828 5.318 42.624 13.59 63.862 20.829 20.501 7.09 42.034 13 63.862 11.818 21.534-1.182 41.297-9.75 59.733-20.386 18.584-10.784 36.135-25.556 56.488-32.943 9.734-3.545 20.206-4.136 29.203 1.625 7.816 5.023 12.978 13.148 20.943 18.023 17.403 10.636 34.66-4.58 41.002-20.534 5.604-14.182 4.719-40.92 25.22-42.545 17.699-1.477 32.152 17.875 39.822 31.318 7.669 13.591 12.536 28.511 19.911 42.249 6.047 11.375 14.747 21.863 28.317 23.045 18.58 1.625 36.72-14.92 55.01-6.943 15.19 6.648 15.34 26.147 12.54 40.033-3.69 18.614-13.57 35.011-25.81 49.193-12.83 14.92-27.88 27.624-42.33 40.772-16.961 15.363-32.889 31.908-48.081 48.897-28.612 32.056-59.585 66.328-73.596 107.691-7.375 22.011-9.587 45.204-11.947 68.249-2.359 23.636-6.047 46.976-11.356 70.169-5.162 23.193-10.914 46.09-15.191 69.431-3.983 21.125-7.522 42.692-16.667 62.192-17.256 37.227-53.833 57.76-89.525 74.453-35.102 16.398-73.449 31.022-97.342 63.374-8.702 11.67-17.551 30.875-33.627 33.238-16.224 2.364-32.89-17.727-47.639-3.545-11.357 11.079-13.864 29.84-21.976 43.283-9.439 15.807-23.598 28.068-39.232 37.522-33.037 20.091-73.301 31.318-111.206 36.488-38.347 5.318-79.053 2.659-113.566-16.249-17.698-9.75-33.627-22.898-42.034-41.806-7.374-16.841-10.029-35.898-20.058-51.556-5.162-8.125-12.979-13.296-18.878-20.83-6.785-8.715-5.605-18.761-.295-27.772 10.324-17.727 28.76-30.136 44.541-42.545 16.666-12.999 30.677-26.885 41.887-44.908 10.914-17.875 20.205-36.783 35.544-51.704 14.602-14.033 32.3-24.226 50.294-33.385 19.173-9.75 38.494-19.943 58.405-28.511 21.238-9.159 42.624-12.261 65.485-14.625 21.238-2.216 41.739-5.909 59.88-18.022 16.076-10.637 28.908-25.557 39.969-41.068 12.094-16.841 23.598-34.715 33.037-53.329 10.472-20.829 15.487-42.692 13.864-66.033-.59-9.602-4.719-21.715-1.917-31.169 2.95-10.193 13.421-9.898 22.123-10.637 20.059-1.772 27.433-22.011 38.937-35.749 12.242-14.625 27.58-26.886 45.721-33.238 21.091-7.386 43.362-4.284 65.19-3.102 22.271 1.181 42.624-1.625 61.798-13.443C895.5 59.559 910.839 45.82 926.62 33.56c14.012-11.08 28.76-23.34 35.987-40.181 16.372-38.261-15.486-77.408-55.16-76.67-43.804.887-81.119 33.09-116.073 55.693C773.233-15.78 753.027-3.371 731.199-.86c-21.091 2.511-35.988-7.977-51.326-20.977-6.637-5.614-13.422-11.227-21.681-14.33-9.587-3.545-19.616-2.658-29.203.148-10.324 3.103-19.911 8.125-30.235 11.375-10.914 3.545-22.418 4.875-33.775 4.284-37.757-1.773-74.481-20.977-98.817-49.783-11.946-14.182-19.911-30.284-26.4-47.567-6.637-17.727-17.404-34.716-39.084-30.284-10.472 2.068-20.059 7.682-29.645 12.409-10.03 5.023-20.354 9.454-31.268 11.818-18.731 4.136-38.937 1.034-53.096-12.704-25.958-25.261-25.073-70.317-22.418-103.556 3.54-45.203 13.717-89.373 6.785-134.872-5.31-35.011-19.469-69.431-45.574-93.953"/><path d="M162.484-468.852c6.195 26.443-7.079 53.033-4.129 79.623 0 11.818 4.424 23.636 13.274 33.977 13.274 13.295 28.022 25.113 41.296 38.409 14.749 16.249 22.123 36.931 25.073 57.612 2.95 31.022 2.95 60.567 5.9 90.112 2.95 23.636 8.849 45.795 25.073 64.999 2.949 1.477 4.424 4.432 7.374 7.386 23.598 20.682 58.995 17.727 85.543 1.478 1.475-1.478 4.425 0 5.9-1.478 11.799-7.386 25.073-13.295 36.872-5.909 5.899 5.91 7.374 14.773 7.374 22.16 1.475 20.68 10.324 41.362 26.548 54.657C456.281-12.53 476.929-6.62 497.577 2.242c20.649 10.34 20.649 33.977 28.023 53.18 5.9 17.728 22.123 29.546 41.297 26.591C583.12 79.06 591.97 62.81 591.97 46.56c0-14.772 13.274-26.59 28.022-22.158 25.073 8.863 42.772 38.408 72.27 33.976 32.447-2.954 64.894-8.863 94.392-22.158 25.073-19.204 39.822-53.181 75.219-59.09 11.799-1.477 22.123 4.432 29.497 11.818 10.325 11.818 7.375 31.022-2.949 42.84-4.425 4.432-10.324 7.386-16.224 10.34-32.447 10.341-64.895 10.341-97.342 20.682-39.822 13.295-76.694 31.022-113.566 56.136-16.224 10.34-25.073 25.113-28.023 42.84-2.949 13.295-4.424 25.113-4.424 38.408-1.475 17.727-7.375 33.977-14.749 50.227-25.073 48.749-70.794 78.294-120.94 96.021-47.197 16.249-95.868 28.067-140.114 51.703-20.648 11.818-38.347 25.114-53.096 45.795-13.274 19.204-20.648 36.931-30.972 56.135l-4.425 4.432c-23.598 39.886-60.47 63.522-98.817 90.112-8.849 7.387-11.799 19.204-5.899 29.545 11.799 20.682 28.022 36.931 41.296 57.613l8.849 8.863c30.973 45.795 73.745 75.34 123.89 91.59 10.325 2.954 20.649 7.386 30.973 7.386 10.324 1.477 17.699 7.386 28.318 6.057"/><path d="M374.572 691.821c24.483-2.659 49.261-4.875 72.86-12.114 28.465-8.863 54.128-25.408 70.646-49.931 11.357-16.84 17.699-36.635 29.35-53.476 20.206-29.249 52.949-45.647 83.921-63.817 35.545-20.977 69.172-45.204 103.242-68.692 29.498-20.238 59.29-40.476 82.298-67.806 25.811-30.726 41.592-68.544 47.786-108.282 3.835-24.227 3.835-49.044 9.292-72.976 5.9-25.852 18.584-49.34 34.66-70.465 2.655-3.545 5.309-7.09 5.752-11.374 1.475-11.671-14.601-11.818-28.023-10.489-14.601 1.477-29.202 5.023-43.951 4.727-19.911-.295-39.527-7.829-59.143-4.284-24.778 4.432-41.739 25.557-62.977 39.738-20.206 13.443-45.574 21.716-52.506 44.466-4.572 14.92.737 30.726 2.212 46.385 4.72 52.886-32.742 96.76-72.269 133.839-30.383 28.511-63.715 54.953-103.832 65.294-31.267 7.977-64.01 5.614-95.867 11.079-19.321 3.398-38.052 9.75-55.161 19.5-19.468 11.079-37.314 26.886-39.379 48.749-1.327 13.295 3.392 26.591 0 39.443-5.457 20.681-28.76 29.545-42.034 46.976-26.695 34.863 5.015 81.249 49.851 93.067 20.501 5.318 42.034 2.659 63.272.443Z"/><path d="M346.992 651.492c19.911 5.909 41.149 2.659 59.29-7.238 23.451-12.852 39.97-35.159 59.291-53.772 26.99-26.147 59.29-45.942 90.115-67.362 32.595-22.602 63.862-46.829 97.49-67.806 32.004-20.238 65.779-37.818 94.687-62.192 30.087-25.557 54.128-57.317 76.694-89.669 11.651-16.841 22.565-34.42 29.35-53.772 11.799-33.386 12.389-71.499-7.375-100.6-7.227-10.637-16.961-19.352-29.202-22.75-19.469-5.466-39.38 3.25-57.521 12.852-20.943 11.227-41.444 25.261-50.293 47.124-7.522 18.761-5.605 39.443-6.49 59.829-1.474 31.317-11.061 61.601-26.842 88.635-20.206 34.272-50.884 60.862-86.281 78.885-27.433 14.033-58.405 21.567-82.151 41.215-9.144 7.534-17.256 16.102-27.433 21.863-24.63 13.738-54.57 4.432-83.183 5.17-13.274.444-26.695 2.807-36.577 11.671-10.914 9.602-14.749 24.522-15.339 39.147-.59 16.249 3.245 33.533-6.047 46.681-7.227 10.34-20.206 15.363-26.253 26.295-11.209 19.647 10.62 38.999 34.07 45.794Z"/><path d="M121.483-468.852c8.407 16.397 9.587 35.749 10.324 53.772.738 19.647 1.328 39.147 6.637 58.203 9.735 35.306 30.235 66.033 50.589 96.021 10.029 14.773 20.206 29.693 26.843 46.386 7.227 18.17 7.964 36.931 5.162 56.135-5.457 36.193-20.501 75.192-4.72 110.942 6.047 13.738 16.814 26.59 31.12 32.204 15.486 6.056 30.678.738 43.214-9.16 13.422-10.636 24.483-24.522 40.264-32.056 14.897-7.09 31.12-5.909 45.427 2.069 32.005 17.727 46.901 54.214 65.189 83.76 10.03 16.25 21.386 31.76 33.333 46.828 10.029 12.557 20.648 25.113 33.922 34.272 12.979 9.012 28.318 13.591 44.099 10.932 16.961-2.807 31.71-12.852 46.016-22.011 13.717-8.864 28.613-19.056 45.132-21.568 7.079-1.034 14.453-.295 20.5 3.841 4.868 3.25 11.799 11.08 7.965 17.431-2.508 4.285-9.292 4.285-13.569 4.875-6.342.739-13.127 1.33-18.731 5.023-12.537 8.273-13.864 26.591-17.846 39.738-10.472 35.602-29.498 68.987-49.409 100.157-19.321 30.284-42.919 55.84-75.366 71.942-32.595 16.102-68.287 24.523-102.062 37.522-34.512 13.296-67.844 30.579-95.425 55.397-28.317 25.557-44.836 58.499-65.042 90.112-18.288 28.807-41.297 55.693-71.384 72.385-13.717 7.534-33.922 14.478-41.002 29.693-7.374 15.954 12.684 31.909 20.943 43.284 21.681 29.84 37.757 62.93 62.093 90.998 17.846 20.534 37.757 39.295 59.143 56.135 3.392 2.659 6.784 5.318 10.176 7.83"/><path d="M55.556-468.852c14.011 21.124 17.993 48.158 25.81 71.942 11.357 34.124 30.088 64.851 46.606 96.612 17.551 33.681 32.595 68.987 45.427 104.737 6.342 17.431 11.651 35.306 14.306 53.771 2.802 19.352 1.917 38.852-.442 58.204-3.54 29.988-17.994 71.056 6.636 95.578 17.699 17.58 46.312 18.022 69.025 12.556 14.749-3.545 28.023-10.192 41.444-17.283C318.379-.122 333.571-7.36 349.794-5.292c32.153 3.989 51.769 39 66.075 64.408 16.519 29.102 31.71 61.897 58.553 83.317 11.504 9.159 25.515 15.363 40.264 13.738 15.781-1.625 28.908-11.67 44.394-14.034 14.454-2.215 28.908 5.171 33.922 19.205 5.457 15.068-2.654 29.249-12.241 40.624-10.324 12.261-21.976 23.784-33.185 35.306-11.209 11.523-22.713 22.75-35.397 32.647-12.242 9.455-25.663 17.727-40.264 23.045-16.814 6.057-34.513 7.534-52.064 9.602-17.403 2.069-34.069 5.762-49.408 14.477-14.159 7.978-26.401 18.761-37.757 30.284-24.778 24.966-48.966 51.113-71.532 77.999-22.566 26.886-39.527 57.612-60.765 85.385-10.324 13.59-21.828 25.999-35.397 36.488-13.422 10.488-28.023 19.204-42.329 28.363-7.227 4.727-14.307 9.454-21.091 14.772-6.49 5.023-13.127 10.489-14.306 19.057-2.213 16.102 12.094 32.056 18.141 45.942 6.932 16.25 10.914 33.534 16.666 50.227 5.309 15.363 12.536 29.544 22.271 42.397 14.011 18.613 32.004 34.272 51.473 46.976 3.245 2.068 6.489 4.136 9.882 5.909"/><path d="M-772-24.792s29.94-3.397 59.733-8.124c42.476-6.648 84.953-15.66 127.724-11.375 36.282 3.545 70.795 16.545 106.192 25.556 33.627 8.568 69.614 13.886 99.849-2.216 31.563-16.84 47.786-51.999 75.219-75.34 25.516-21.715 58.7-31.317 87.313-48.896 37.905-23.341 65.632-59.238 96.162-91.885 24.336-26 51.179-51.113 60.618-85.237 7.374-26.738 2.95-54.954-7.374-80.806-6.048-15.068-14.75-30.579-7.375-44.465 8.112-15.068 28.023-14.034 45.574-10.488 27.433 5.761 53.833 18.318 67.992 42.249 10.03 17.136 12.094 37.522 16.519 57.022 8.111 35.158 24.188 67.658 39.084 100.6 13.716 30.579 26.4 61.749 38.937 92.919 7.374 18.17 14.601 36.636 16.813 56.136 3.688 32.351-7.374 63.964-15.338 95.873-5.162 20.386-9.145 41.954 0 60.715 16.223 33.09 60.175 30.431 97.342 19.5 30.53-9.012 59.143-24.523 90.705-26.886 21.238-1.626 44.099 2.806 53.096 21.42 8.554 18.022-.148 39.738 8.112 57.908 8.554 18.908 30.972 24.227 51.03 31.022 25.663 8.568 50.441 19.647 75.809 28.954 11.209 4.136 23.008 8.273 27.581 18.909 7.521 17.136-12.537 29.84-31.563 37.079-29.35 10.931-61.502 10.636-91.442 20.238-29.056 9.307-53.834 27.92-74.629 50.522-17.404 18.909-31.71 40.329-49.704 58.499-22.271 22.454-49.556 39.295-78.611 51.851-19.911 8.568-41.887 15.659-51.178 34.716-8.555 17.579-2.95 38.26-7.375 57.464-6.194 27.034-30.382 44.466-56.045 56.136-13.127 5.909-27.433 10.784-35.25 22.602-9.734 14.624-5.162 33.238 0 50.522 6.047 20.238 13.422 39.885 20.206 59.828 16.961 50.522 29.645 102.226 29.645 102.226"/><path d="M-767.133 53.06s30.973-12.853 62.535-24.228c33.775-12.409 68.582-23.488 104.569-22.01 36.43 1.477 70.794 15.954 106.339 24.226 24.336 5.614 49.409 8.273 74.187 11.67 37.609 5.17 78.316 12.705 105.159-12.704 18.288-17.431 23.45-44.022 38.052-64.851 23.155-33.09 65.042-44.465 101.176-63.522 31.415-16.545 58.996-39.442 88.198-59.828 26.106-18.318 53.833-35.454 70.057-62.635C3.345-254.799.985-296.458-5.65-335.752c-2.656-15.807-6.638-33.977 6.636-41.068 11.21-6.204 23.746 1.773 30.235 13.591 9.44 17.136 3.392 38.113 4.72 57.908 2.507 40.477 33.332 71.646 54.128 106.953 22.566 38.556 33.922 82.873 31.71 127.634-1.475 28.954-9.439 57.022-14.454 85.532-2.802 16.102-4.572 32.5 0 48.159 14.159 47.419 73.597 50.669 124.922 60.271 38.495 7.091 76.104 18.614 113.566 30.284 30.678 9.602 61.65 19.647 88.641 37.079 8.554 5.466 17.403 12.409 15.486 21.863-2.36 11.818-17.846 11.523-30.53 13.886-47.196 8.568-75.072 54.954-114.746 83.169-25.073 17.875-54.718 28.363-81.708 43.431-26.548 14.773-50.884 33.238-76.252 50.227-3.687 2.363-7.374 4.727-10.914 7.238-25.958 17.432-51.768 35.75-70.499 60.715-21.533 28.807-32.152 63.965-34.66 100.01-2.654 35.897 2.655 71.794 8.85 107.396 10.619 60.862 24.04 120.986 24.04 120.986"/><path d="M-755.334 97.229s33.037-11.67 66.665-21.125c28.17-7.83 56.93-13.886 86.133-12.852 46.753 1.625 90.262 21.863 135.984 32.647 38.937 9.159 79.053 12.114 118.728 7.239 40.264-4.875 80.381-16.84 110.026-44.318 18.583-16.988 32.447-38.704 52.948-53.033 31.12-21.715 72.269-20.829 106.339-37.67 33.775-16.84 57.078-48.01 73.744-82.135 11.651-23.783 21.238-49.192 19.32-75.635-.884-11.965-4.129-24.965 4.278-32.794 7.817-7.239 19.91-4.285 26.843 4.136 9.734 12.113 4.572 29.545 7.964 45.056 2.95 13.443 11.8 24.522 18.141 36.931C82.4-115.642 85.79-92.302 86.528-69.109c1.327 36.488-4.572 72.828-7.964 109.316-3.393 37.67-5.015 78.59 22.418 103.26 21.386 19.204 51.768 20.681 80.676 24.374 41.591 5.318 82.151 16.545 122.71 26.886 20.353 5.171 43.656 10.784 44.836 30.579 1.18 18.761-19.026 28.068-36.872 36.931-42.771 20.977-83.92 45.647-128.462 62.636-23.893 9.159-48.523 16.249-70.942 28.363-29.202 15.659-52.505 39.738-74.924 64.112-30.972 33.829-61.945 70.908-63.124 116.26-.885 31.908 13.42 62.34 14.453 94.248.885 29.102-9.734 57.17-13.568 86.271-5.9 44.909 4.866 90.113 4.866 90.113"/><path d="M-753.122 130.467s46.607-18.761 95.72-19.943c46.311-1.034 91 13.591 136.427 23.193 39.821 8.272 80.233 12.556 120.055 20.238 46.606 8.864 93.507 22.454 139.376 11.67 40.117-9.454 73.302-36.044 108.109-58.499 39.674-25.556 83.036-46.533 114.45-81.544C-19.22 3.72-4.914-22.724 2.903-51.087c4.867-17.727 7.965-38.408 24.926-42.84 18.288-4.727 30.088 15.216 34.955 35.01 5.162 20.83 2.95 42.545 0 63.966-6.785 49.93-17.846 101.634 4.72 145.952 19.173 37.669 57.667 60.419 99.111 69.43 24.483 5.318 50.146 5.466 72.712 15.955 7.817 3.693 15.339 8.715 16.961 16.988 2.95 15.216-18.141 16.397-35.545 18.613-38.199 4.727-75.366 16.102-108.551 35.602-39.084 23.045-70.647 56.431-101.767 89.521-32.742 34.863-66.96 70.612-76.988 116.998-8.85 40.181 1.917 81.249 5.604 122.316 7.374 81.987-13.716 163.531-13.716 163.531"/><path d="M-754.892 168.433s26.253-11.818 54.129-16.546c42.034-7.09 84.51 2.364 125.807 13.591 46.164 12.409 91.443 27.329 137.606 39.59 54.718 14.477 110.764 25.114 167.104 21.42 46.754-2.954 92.623-15.658 131.56-41.658 33.037-22.011 59.437-52.295 83.626-83.76 13.716-17.875 26.99-36.931 46.9-46.976 11.062-5.614 24.189-8.273 32.89 0 13.717 13.147-7.079 30.579-13.568 50.374-10.325 31.613 19.026 57.76 45.426 80.51 21.68 18.613 44.099 36.488 63.862 57.022 5.162 5.318 10.325 11.227 9.735 18.465-.885 12.261-16.667 12.704-29.941 13.591-24.63 1.625-49.556 4.875-70.646 17.431-26.99 16.102-43.067 44.466-60.913 70.761-22.86 33.681-49.703 64.998-64.747 102.668-17.994 45.056-17.404 94.692-15.486 143.441 1.327 34.715 3.392 69.431 2.064 104.146-1.622 43.726-8.554 87.01-8.554 87.01"/><path d="M-473.484 808.819s-1.918-49.931 14.011-95.873c12.094-34.716 33.627-65.147 45.869-99.862 12.536-35.454 14.749-73.42 14.601-111.089-.147-40.477-3.392-80.953-15.633-119.51-8.85-28.067-22.124-54.806-39.675-78.442-11.799-15.954-26.548-30.431-31.857-49.487-1.77-6.5-2.36-13.148 0-19.352 7.817-20.977 35.397-8.864 57.963 2.659 39.379 20.238 76.546 45.204 105.601 78.737 19.321 22.159 36.282 49.192 64.747 52.295 22.271 2.363 42.477-10.932 57.078-28.364 14.897-17.726 24.041-39.59 38.347-57.76 17.699-22.454 42.034-38.261 64.6-55.988 21.386-16.84 42.477-36.34 69.172-37.078 17.698-.444 35.102 7.238 43.804 22.601 6.047 10.489 7.374 23.341 0 32.648-9.882 12.408-28.17 10.193-43.804 14.477-32.89 9.306-47.049 45.203-55.16 79.476-4.573 19.499-7.523 39.59-15.34 58.055-8.554 20.091-22.86 36.932-33.037 56.283-11.504 22.159-17.108 46.681-17.403 71.647-.443 31.022 7.374 61.306 10.471 92.18 9.735 94.839-24.04 187.906-24.04 187.906"/></g></g><defs><clipPath id="clip0_132_4618"><path fill="#fff" d="M0 0h375v320H0z"/></clipPath></defs></svg>