<svg width="30" height="30" fill="none" xmlns="http://www.w3.org/2000/svg"><g clip-path="url('#clip0_132_4239')" fill="#323232"><path d="M21.152 30h-.058l-1.32-1.191 2.547-2.528c-.077-.07-.13-.127-.188-.175-1.549-1.268-3.096-2.537-4.652-3.794a.765.765 0 0 0-.442-.153c-1.367-.01-2.733-.009-4.1.004a.728.728 0 0 0-.413.154c-1.028.824-2.047 1.66-3.068 2.493L7.67 26.273l2.549 2.537L8.905 30h-.058c-.807-.818-1.62-1.631-2.42-2.456-.144-.149-.256-.155-.448-.092-1.03.337-1.973.167-2.762-.59-.78-.746-1.018-1.675-.707-2.702.102-.337.036-.513-.2-.737C1.529 22.68.769 21.911 0 21.152v-.059c.391-.434.783-.867 1.19-1.316l2.524 2.544c.068-.072.118-.117.16-.17 1.284-1.572 2.57-3.143 3.846-4.722a.68.68 0 0 0 .121-.397c.009-1.377.009-2.753-.002-4.129a.675.675 0 0 0-.148-.385c-1.254-1.547-2.517-3.087-3.778-4.627-.054-.067-.115-.13-.195-.218l-2.524 2.555L0 8.906v-.058c.851-.842 1.706-1.682 2.549-2.532.05-.049.04-.194.01-.278a2.706 2.706 0 0 1-.065-1.722c.439-1.5 2.039-2.298 3.517-1.768.093.033.252.052.304 0C7.166 1.706 8.005.852 8.847 0h.06l1.31 1.188-2.535 2.524c.052.057.082.097.119.126 1.593 1.304 3.187 2.609 4.785 3.907.075.06.191.096.289.096 1.396.007 2.791.009 4.187 0 .132-.001.29-.057.392-.14 1.563-1.263 3.12-2.537 4.677-3.808.06-.048.113-.103.19-.173l-2.548-2.523L21.093 0h.06c.84.852 1.68 1.705 2.53 2.55.05.048.195.04.279.01a2.714 2.714 0 0 1 1.721-.064c1.5.438 2.297 2.034 1.768 3.515-.032.093-.05.252.001.305.842.851 1.696 1.69 2.548 2.532v.058l-1.194 1.318L26.29 7.68c-.057.055-.096.085-.127.122-1.302 1.595-2.604 3.19-3.9 4.791a.537.537 0 0 0-.103.317 306.634 306.634 0 0 0 0 4.158c.001.14.064.305.152.413 1.204 1.487 2.418 2.966 3.629 4.447l.335.405 2.53-2.558 1.194 1.319v.059c-.851.842-1.705 1.68-2.548 2.53-.05.05-.041.195-.01.279.205.569.233 1.144.064 1.722-.439 1.498-2.035 2.294-3.517 1.765-.092-.033-.252-.05-.305.003-.851.842-1.69 1.696-2.532 2.547l.001.002Zm-.807-14.97h.038c0-.635.012-1.27-.003-1.903-.045-1.924-1.618-3.487-3.535-3.507-1.23-.014-2.46-.014-3.689 0-1.916.02-3.502 1.588-3.534 3.506-.021 1.249-.022 2.499 0 3.747.032 1.908 1.6 3.475 3.504 3.506 1.25.02 2.5.02 3.748 0 1.763-.027 3.268-1.367 3.459-3.128.079-.732.013-1.48.013-2.222ZM7.608 24.008l3.04-2.482a5.635 5.635 0 0 1-2.177-2.171l-2.478 3.04c.773.311 1.291.84 1.615 1.613ZM22.394 5.994l-3.038 2.478a5.641 5.641 0 0 1 2.172 2.175l2.48-3.043c-.775-.32-1.293-.837-1.615-1.61Zm-14.791 0C7.284 6.782 6.747 7.29 6 7.612l2.48 3.028c.525-.944 1.248-1.633 2.152-2.167l-3.03-2.477Zm16.402 16.4-2.483-3.032a5.633 5.633 0 0 1-2.157 2.161l3.033 2.48c.32-.779.844-1.289 1.607-1.608ZM5.97 5.075a.914.914 0 0 0-.897-.9c-.475-.008-.9.417-.9.898 0 .482.417.9.899.9.486 0 .897-.411.899-.897Zm19.856-.002a.912.912 0 0 0-.9-.897.91.91 0 0 0-.896.9.915.915 0 0 0 .899.897.915.915 0 0 0 .897-.9Zm0 19.842a.91.91 0 0 0-.912-.883.909.909 0 0 0-.883.911c.01.49.427.894.911.884a.909.909 0 0 0 .884-.912Zm-19.855.014a.912.912 0 0 0-.898-.898c-.484 0-.899.415-.898.898 0 .485.415.9.898.899a.91.91 0 0 0 .898-.899Z"/><path d="M13.313 12c-1.14 0-2.063.923-2.063 2.063 0 2.062 2.438 3.937 3.75 4.373 1.313-.436 3.75-2.311 3.75-4.373A2.062 2.062 0 0 0 15 12.876 2.06 2.06 0 0 0 13.312 12Z"/></g><defs><clipPath id="clip0_132_4239"><path fill="#fff" d="M0 0h30v30H0z"/></clipPath></defs></svg>