<svg width="345" height="299" fill="none" xmlns="http://www.w3.org/2000/svg"><path opacity=".5" fill-rule="evenodd" clip-rule="evenodd" d="M130.541 0h-65.27v65.406H0v168.188h65.27V299h214.46v-65.406H345V0H195.811v65.406h-65.27V0Zm-65.27 168.188h65.27v65.406h-65.27v-65.406Z" fill="#AEAD8F"/><mask id="mask0_132_4727" style="mask-type:alpha" maskUnits="userSpaceOnUse" x="0" y="0" width="345" height="299"><path fill-rule="evenodd" clip-rule="evenodd" d="M130.541 0h-65.27v65.406H0v168.188h65.27V299h214.46v-65.406H345V0H195.811v65.406h-65.27V0Zm-65.27 168.188h65.27v65.406h-65.27v-65.406Z" fill="#EEE"/></mask><g mask="url('#mask0_132_4727')" stroke="#fff" stroke-miterlimit="10" stroke-linecap="round" stroke-linejoin="round"><path d="M340.195 0c5.099 4.839 10.612 9.332 16.813 13.48 2.756 1.727 6.201.345 8.958 1.727 1.378.692 1.722 2.42 1.722 4.148.345 6.912 0 14.862 4.479 20.738 5.512 6.912 14.815 5.53 22.601 5.46M229.535.069c.344 3.733-.689 7.189-3.101 10.3-2.756 3.11-5.857 6.22-8.613 9.332-2.756 3.456-5.168 7.258-7.235 11.06-1.034 1.382-1.723 2.765-1.378 4.493.689 3.11 4.134 2.419 6.201 1.382.345-.346 1.034-.691 1.723-1.037 4.823-4.493 10.68-6.912 16.881-9.332 2.757-1.382 4.479-3.802 7.235-5.53 4.135-2.419 8.958-1.382 12.748 1.037.344.346 1.033 0 1.378.346.689.345 1.378 1.037 2.412 1.382 6.89 2.42 13.091 4.148 20.326 5.53 3.79.692 7.58.346 11.37-1.037a54.766 54.766 0 0 1 10.335-2.073c5.857 0 11.37 1.037 16.882 3.11 3.79 1.383 3.101 5.876 3.445 9.332.345 1.728.689 4.148 2.756 4.148 5.857.691 8.613-6.567 8.958-11.406.689-10.369-.345-20.392.62-30.899"/><path d="M240.181.207c-.655 3.595-3.066 6.706-5.823 9.125-1.033 1.037-1.722 2.42-2.756 3.456-.689 1.037-.344 2.42.689 3.11 1.378.692 2.412 0 3.445-.345 3.446-2.42 6.891-5.184 10.681-6.912 11.369-4.84 23.083 0 33.763 4.493 1.722.691 3.79 1.037 5.512 1.382 12.059 3.11 23.428 4.148 34.797 7.95 2.067.69 4.479.69 6.201-1.037 1.379-1.383 1.723-3.456 2.412-5.185 1.034-5.53 0-10.714.655-16.071"/><path d="M223.678.069c0 .622 0 1.659-.345 2.35-2.411 4.148-5.512 7.258-8.613 11.06-4.479 6.567-7.579 13.48-9.991 20.738-.689 2.42-1.723 4.839-1.034 7.258 1.379 4.493 6.891 4.493 10.681 3.11 4.823-1.382 8.957-4.147 13.436-6.566l7.235-3.111c13.436-4.493 27.906-3.802 40.309 3.11 3.446 2.074 6.891 4.148 10.68 6.222.69.691 1.379 1.382 2.412 1.728 9.302 4.839 19.293 6.567 29.629 5.184 9.302-1.382 18.949-8.295 18.949-18.318-2.067-8.64-3.445-17.972-1.723-26.613 4.479-2.765 7.235 3.456 10.336 5.876 1.378.691 2.067 2.074 3.445 2.765 3.79 1.728 7.58 1.728 11.369 3.456 1.723 1.037 2.068 3.456 2.412 5.53 0 2.765 0 5.876.689 8.64 1.034 6.913 3.445 12.789 6.546 19.01.345.346 0 1.037.345 1.383 2.411 4.493 6.546 8.64 12.058 8.294 1.378 0 2.412-.69 3.79-1.036 2.756-.692 5.512-1.729 8.613-1.867"/><path d="M216.822.069c-.379 1.659-1.068 3.042-2.102 4.424-9.302 8.64-12.058 20.737-14.47 32.834-.689 3.802-.344 7.604 1.034 11.406.689 1.383 1.722 2.42 2.756 3.456 1.378 1.037 3.445 1.728 5.168 2.074 2.756.346 5.512 0 7.924-1.383 4.134-2.073 7.235-5.53 12.058-6.22 3.101-.346 6.202 0 8.958 1.036 5.168 2.42 9.646 4.839 14.47 7.95 13.092 7.949 27.906 5.184 42.376 3.11 7.235-1.382 14.47-1.037 21.016 2.074 4.479 2.42 9.647 4.493 14.47 1.382 4.479-2.765 4.823-7.949 5.168-12.788 0-.691.344-1.382.689-1.728 1.378-1.382 3.445-2.074 4.823-3.11 1.723-1.729 2.412-4.494 1.378-6.913-1.378-3.456-2.411-6.567-3.789-10.023-1.379-4.493-2.068-8.986-2.757-13.825 0-1.037.689-2.074 2.067-2.074.69 0 1.379.691 2.068 1.037 5.167 3.802 9.646 7.258 14.125 11.406 1.034 1.037 1.723 2.073 2.412 3.456.344.691.689 1.728 1.033 2.42 1.378 4.147 1.378 8.294 2.756 12.442 2.068 4.493 4.824 8.64 6.891 13.48 1.034 2.764 1.378 5.875 2.412 8.64 1.033 2.765 3.789 4.493 6.89 4.493 6.201-.346 12.058-1.037 18.225-.035"/><path d="M208.622.138c.311 2.973-1.343 5.6-2.962 7.915-1.689 2.454-3.377 4.908-4.41 7.742-2.136 5.841-2.515 12.097-3.377 18.215-.861 6.22-1.653 12.65-.103 18.836 1.102 4.424 3.721 8.848 8.234 10.334 5.375 1.763 11.094-1.071 16.158-2.592 5.237-1.59 11.955-2.316 15.745 2.454 1.619 2.005 2.412 4.493 3.893 6.567 1.688 2.316 4.169 3.56 7.028 3.767 5.926.484 11.507-2.488 16.882-4.527 2.859-1.106 5.857-2.074 8.957-1.97 3.136.103 5.892 1.451 8.51 3.076 2.481 1.52 4.927 3.11 7.752 3.905 2.86.795 5.891.622 8.716-.276 5.513-1.798 9.544-7.846 15.883-6.049 2.859.83 5.237 2.765 8.096 3.56 2.894.83 5.823.138 8.372-1.382 4.686-2.8 8.165-7.535 10.474-12.408 2.549-5.358 4.237-11.51 3.479-17.489-.379-3.041-1.688-5.668-2.756-8.502-.723-1.936-1.791-5.392.379-6.844 1.929-1.278 4.065.553 5.202 2.005 1.413 1.797 2.171 4.01 2.653 6.187.517 2.28.793 4.631 1.378 6.912.689 2.765 1.964 5.323 2.963 7.984 1.172 3.11 1.516 6.152 1.447 9.47-.069 2.8-.172 5.496.655 8.191 1.516 5.081 5.616 9.125 10.818 10.231 5.684 1.21 11.541-.795 17.192-1.244 2.997-.242 6.029-.208 8.992.276M13.829.104C7.869 11.164 1.77 22.293-6.946 31.486c-3.996 4.217-8.578 7.95-13.987 10.162-5.134 2.074-10.75 2.8-16.262 2.627-3.032-.104-6.098-.38-9.06-1.106"/><path d="M196.289.035c.378 5.011-.138 10.023-.345 15.034-.207 5.6.103 11.233-.103 16.867a62.508 62.508 0 0 1-.862 8.398c-.516 2.73-1.171 5.427-1.412 8.192-.483 5.391 1.447 10.057 4.237 14.55 2.136 3.457 4.548 8.019 8.579 9.574 4.548 1.728 8.475-1.97 12.644-3.076 4.617-1.21 8.992 1.072 12.885 3.318 4.41 2.558 8.751 4.735 13.712 6.049 5.03 1.348 10.164 2.143 15.194 3.352 5.099 1.244 9.956 3.18 14.917 4.874 4.789 1.659 9.819 3.041 14.918 2.765 5.03-.277 9.647-2.282 13.954-4.77 4.341-2.523 8.44-5.98 13.195-7.708 2.274-.829 4.72-.967 6.821.38 1.826 1.176 3.032 3.077 4.893 4.217 4.065 2.489 8.096-1.071 9.577-4.804 1.309-3.318 1.103-9.574 5.892-9.954 4.134-.346 7.51 4.182 9.302 7.327 1.791 3.18 2.928 6.67 4.651 9.885 1.412 2.662 3.445 5.116 6.615 5.392 4.341.38 8.578-3.49 12.85-1.624 3.549 1.555 3.583 6.117 2.929 9.366-.862 4.355-3.17 8.191-6.029 11.509-2.998 3.491-6.512 6.463-9.888 9.54-3.962 3.594-7.683 7.465-11.232 11.44-6.683 7.5-13.918 15.518-17.191 25.196-1.723 5.15-2.24 10.576-2.791 15.968-.551 5.53-1.412 10.991-2.653 16.417-1.206 5.426-2.549 10.783-3.548 16.244-.931 4.943-1.757 9.989-3.893 14.551-4.031 8.71-12.576 13.514-20.913 17.419-8.2 3.837-17.157 7.259-22.739 14.828-2.032 2.73-4.099 7.223-7.855 7.776-3.789.553-7.683-4.147-11.128-.829-2.653 2.592-3.238 6.981-5.133 10.127-2.205 3.698-5.513 6.567-9.164 8.779-7.718 4.7-17.123 7.327-25.977 8.536-8.958 1.245-18.467.623-26.529-3.801-4.134-2.282-7.855-5.358-9.819-9.782-1.722-3.94-2.342-8.398-4.685-12.062-1.206-1.901-3.032-3.111-4.41-4.873-1.585-2.039-1.309-4.39-.069-6.498 2.412-4.147 6.718-7.051 10.405-9.954 3.893-3.041 7.166-6.29 9.784-10.507 2.55-4.182 4.72-8.606 8.303-12.097 3.411-3.283 7.545-5.668 11.748-7.811 4.479-2.281 8.992-4.666 13.643-6.67 4.962-2.143 9.957-2.869 15.297-3.422 4.961-.519 9.75-1.383 13.988-4.217 3.755-2.488 6.753-5.979 9.336-9.608 2.826-3.94 5.513-8.122 7.718-12.477 2.446-4.874 3.617-9.989 3.238-15.45-.138-2.246-1.102-5.08-.448-7.292.689-2.385 3.136-2.316 5.168-2.489 4.686-.415 6.408-5.15 9.096-8.364 2.859-3.422 6.442-6.29 10.68-7.777 4.927-1.728 10.129-1.002 15.228-.725 5.202.276 9.956-.381 14.435-3.146 3.997-2.453 7.58-5.668 11.266-8.536 3.273-2.593 6.718-5.461 8.407-9.401 3.824-8.952-3.618-18.111-12.886-17.938-10.232.207-18.948 7.742-27.114 13.03-4.237 2.765-8.957 5.668-14.056 6.255-4.927.588-8.406-1.866-11.99-4.907-1.55-1.314-3.135-2.627-5.064-3.353-2.239-.829-4.582-.622-6.822.035-2.411.725-4.651 1.901-7.062 2.661-2.55.829-5.237 1.14-7.89 1.002-8.82-.415-17.398-4.908-23.083-11.647-2.791-3.318-4.651-7.086-6.167-11.13-1.55-4.147-4.065-8.122-9.13-7.085-2.446.484-4.685 1.797-6.925 2.903-2.342 1.176-4.754 2.212-7.303 2.765-4.376.968-9.096.242-12.403-2.972-6.064-5.91-5.857-16.452-5.237-24.228.827-10.576 3.204-20.91 1.585-31.556-1.241-8.191-4.548-16.244-10.646-21.981"/><path d="M166.073.035c1.447 6.186-1.653 12.408-.964 18.629 0 2.765 1.033 5.53 3.1 7.95 3.101 3.11 6.546 5.875 9.647 8.985 3.445 3.802 5.168 8.641 5.857 13.48.689 7.258.689 14.17 1.378 21.083.689 5.53 2.067 10.714 5.857 15.207.689.346 1.034 1.037 1.723 1.728 5.512 4.84 13.781 4.148 19.982.346.344-.346 1.034 0 1.378-.346 2.756-1.728 5.857-3.11 8.613-1.382 1.378 1.382 1.723 3.456 1.723 5.184.344 4.839 2.411 9.678 6.201 12.788 4.134 3.111 8.958 4.494 13.781 6.567 4.823 2.42 4.823 7.95 6.546 12.443 1.378 4.147 5.168 6.912 9.647 6.221 3.789-.691 5.857-4.493 5.857-8.295 0-3.456 3.1-6.221 6.545-5.184 5.857 2.073 9.992 8.986 16.882 7.949 7.58-.691 15.159-2.074 22.05-5.184 5.856-4.493 9.302-12.443 17.57-13.825 2.756-.346 5.168 1.037 6.891 2.765 2.411 2.765 1.722 7.258-.689 10.023-1.034 1.037-2.412 1.728-3.79 2.419-7.58 2.42-15.159 2.42-22.739 4.839-9.302 3.111-17.915 7.258-26.528 13.134-3.79 2.419-5.857 5.875-6.546 10.023-.689 3.11-1.033 5.875-1.033 8.986-.345 4.148-1.723 7.949-3.446 11.751-5.857 11.406-16.537 18.318-28.251 22.466-11.024 3.802-22.394 6.567-32.729 12.097-4.824 2.765-8.958 5.875-12.403 10.714-3.101 4.493-4.823 8.641-7.235 13.134l-1.034 1.037c-5.512 9.332-14.125 14.862-23.083 21.083-2.067 1.728-2.756 4.493-1.378 6.912 2.756 4.839 6.546 8.641 9.647 13.48l2.067 2.073c7.235 10.715 17.226 17.627 28.94 21.429 2.412.691 4.823 1.728 7.235 1.728 2.412.346 4.134 1.728 6.615 1.417M-46.428 60.657c6.029 1.625 12.3 2.696 18.535 2.973 7.924.38 15.986-.692 23.428-3.457C3.01 57.408 9.729 52.95 15.138 47.11c5.375-5.807 9.44-12.685 12.782-19.805 3.72-7.949 6.58-16.313 10.301-24.262.448-.968.93-1.936 1.413-2.904M239.147 298.62c14.504-6.222 27.252-13.825 41.033-23.157 3.445-2.074 6.89-3.802 10.335-5.53 8.958-3.456 18.26-5.53 25.84-11.751 2.756-2.765 5.167-5.53 7.235-8.987 1.722-3.456 3.1-6.567 3.789-10.023 5.513-21.083 6.546-42.166 17.915-61.175 7.925-13.48 21.016-19.355 34.108-27.305l7.235-5.184c2.756-1.383 5.168-3.111 8.131-3.525"/><path d="M315.907 295.613c4.375-6.878 8.578-13.86 12.506-21.014 5.409-9.885 10.094-20.219 12.093-31.383 1.963-11.129 1.929-22.742 6.201-33.387 3.928-9.781 10.853-18.145 18.088-25.646 7.2-7.465 15.538-13.79 25.804-16.071a53.46 53.46 0 0 1 4.1-.76M265.985 296.27s15.366-4.459 29.009-12.512c4.996-2.938 9.854-6.187 15.469-7.604 18.811-4.804-7.855 22.846-7.855 22.846"/><path d="M329.722 295.751c5.685-3.767 10.336-9.228 12.679-15.657 1.619-4.493 2.377-9.193 3.273-13.894.964-5.219 2.239-10.403 3.41-15.588a188.122 188.122 0 0 0 2.825-15.864c.724-5.15 1.447-10.265 2.929-15.276 2.549-8.676 7.063-16.798 13.367-23.295 6.512-6.74 14.78-11.371 23.393-14.966 1.069-.449 2.171-.899 3.239-1.313M215.616 271.592c5.719-.622 11.507-1.141 17.02-2.834 6.649-2.074 12.644-5.945 16.502-11.682 2.653-3.94 4.134-8.572 6.856-12.512 4.72-6.843 12.369-10.68 19.604-14.931 8.303-4.908 16.158-10.576 24.116-16.071 6.891-4.735 13.85-9.471 19.225-15.865 6.029-7.189 9.715-16.037 11.162-25.334.896-5.668.896-11.475 2.171-17.074 1.378-6.048 4.341-11.544 8.096-16.486.62-.83 1.24-1.659 1.344-2.661.344-2.731-3.411-2.765-6.546-2.454-3.411.345-6.822 1.175-10.267 1.106-4.651-.069-9.233-1.832-13.816-1.003-5.788 1.037-9.75 5.98-14.711 9.298-4.72 3.145-10.645 5.08-12.265 10.403-1.068 3.491.173 7.189.517 10.853 1.103 12.373-7.648 22.638-16.882 31.313-7.097 6.671-14.883 12.857-24.254 15.277-7.304 1.866-14.952 1.313-22.394 2.592-4.513.795-8.889 2.281-12.885 4.562-4.548 2.592-8.717 6.291-9.199 11.406-.31 3.11.793 6.221 0 9.228-1.275 4.839-6.718 6.913-9.819 10.991-6.236 8.157 1.172 19.009 11.645 21.774 4.789 1.245 9.819.622 14.78.104Z"/><path d="M209.174 262.156c4.651 1.383 9.612.623 13.849-1.693 5.478-3.007 9.337-8.226 13.85-12.581 6.305-6.117 13.85-10.749 21.051-15.76 7.614-5.288 14.917-10.957 22.773-15.864 7.476-4.736 15.365-8.848 22.118-14.551 7.028-5.98 12.644-13.411 17.915-20.98 2.722-3.94 5.271-8.053 6.856-12.58 2.756-7.812 2.894-16.729-1.722-23.538-1.689-2.488-3.962-4.527-6.822-5.322-4.548-1.279-9.199.76-13.436 3.007-4.893 2.627-9.682 5.91-11.749 11.025-1.757 4.39-1.309 9.228-1.516 13.998-.344 7.327-2.583 14.413-6.27 20.738-4.72 8.018-11.886 14.239-20.154 18.456-6.409 3.283-13.644 5.046-19.19 9.643-2.136 1.763-4.031 3.767-6.409 5.115-5.753 3.214-12.747 1.037-19.431 1.21-3.1.103-6.235.656-8.544 2.73-2.549 2.247-3.445 5.738-3.583 9.159-.138 3.802.758 7.846-1.412 10.922-1.689 2.419-4.72 3.594-6.133 6.152-2.618 4.597 2.481 9.125 7.959 10.714Z"/><path d="M226.296 231.741c-2.963 1.279-5.616 3.249-7.442 5.911-3.72 5.322-3.996 12.891 1.551 12.753 4.616-.104 6.787-5.288 10.611-8.191 2.963-2.247 6.891-3.145 9.027-6.152 3.962-5.565-5.444-7.95-13.747-4.321ZM317.422 148.584c-3.307-1.797-7.2-.76-10.335 1.452-4.1 2.903-6.443 7.5-8.234 12.235-2.24 5.772-3.962 12.304 0 16.763 3.169 3.525 8.44 4.009 12.437 1.451 2.791-1.797 4.341-4.873 5.891-7.88 2.171-4.251 4.376-8.606 4.755-13.341.31-4.251-.896-8.71-4.514-10.68Z"/><path d="M311.669 157.363c-2.722-.622-4.72 1.935-6.029 4.597-1.171 2.419-1.86 5.219 0 6.947 2.308 2.143 5.616-.104 7.338-3.007 1.895-3.249 2.067-7.777-1.309-8.537ZM156.496.035c1.964 3.836 2.239 8.364 2.412 12.58.172 4.597.31 9.16 1.55 13.618 2.274 8.26 7.063 15.45 11.817 22.466 2.343 3.456 4.72 6.947 6.27 10.852 1.689 4.251 1.861 8.64 1.206 13.134-1.275 8.468-4.789 17.592-1.102 25.956 1.412 3.215 3.927 6.222 7.269 7.535 3.618 1.417 7.166.173 10.095-2.143 3.135-2.488 5.719-5.737 9.405-7.5 3.48-1.659 7.27-1.383 10.611.484 7.477 4.147 10.956 12.684 15.228 19.597 2.343 3.802 4.996 7.431 7.787 10.956 2.342 2.938 4.823 5.876 7.924 8.019 3.031 2.108 6.614 3.179 10.301 2.557 3.962-.656 7.407-3.007 10.749-5.15 3.204-2.073 6.684-4.458 10.542-5.046 1.654-.242 3.377-.069 4.789.899 1.137.76 2.756 2.592 1.861 4.078-.586 1.003-2.171 1.003-3.17 1.141-1.481.173-3.066.311-4.375 1.175-2.929 1.935-3.239 6.221-4.169 9.297-2.446 8.33-6.891 16.141-11.542 23.434-4.513 7.085-10.025 13.064-17.605 16.832-7.614 3.767-15.951 5.737-23.841 8.778-8.062 3.111-15.848 7.155-22.29 12.961-6.615 5.98-10.474 13.687-15.194 21.083-4.272 6.74-9.646 13.031-16.675 16.936-3.204 1.763-7.924 3.387-9.577 6.947-1.723 3.733 2.962 7.466 4.892 10.127 5.064 6.982 8.82 14.724 14.504 21.29 4.169 4.805 8.82 9.194 13.816 13.134a109.01 109.01 0 0 0 2.377 1.832M-48.323 81.913c7.441-1.452 14.883-2.869 22.325-4.32 11.61-2.247 23.22-4.459 34.693-7.362 9.44-2.385 19.087-5.288 27.045-11.164 8.097-5.98 12.954-14.723 16.675-23.882 4.169-10.23 8.062-20.634 11.852-31.038.482-1.347.965-2.73 1.447-4.078"/><path d="M184.678 92.178c-1.55 1.175-1.275 3.353-.517 5.184 1.551 3.664 5.444 6.325 7.201 3.353 1.102-1.866.241-4.078-.999-5.876-1.482-2.142-3.756-4.112-5.685-2.66Z"/><path d="M141.096.035c3.273 4.942 4.203 11.267 6.029 16.831 2.653 7.984 7.028 15.173 10.887 22.604 4.1 7.88 7.614 16.141 10.611 24.505 1.482 4.078 2.722 8.26 3.342 12.58.655 4.529.448 9.09-.103 13.618-.827 7.017-4.204 16.625 1.55 22.362 4.134 4.113 10.818 4.217 16.124 2.938 3.445-.829 6.546-2.385 9.681-4.044 3.273-1.728 6.821-3.421 10.611-2.937 7.511.933 12.093 9.124 15.435 15.069 3.858 6.809 7.407 14.482 13.677 19.493 2.688 2.143 5.96 3.595 9.406 3.214 3.686-.38 6.752-2.73 10.37-3.283 3.376-.518 6.753 1.21 7.924 4.493 1.275 3.525-.62 6.843-2.86 9.505-2.411 2.868-5.133 5.564-7.751 8.26-2.619 2.696-5.306 5.323-8.269 7.639-2.86 2.212-5.995 4.147-9.405 5.391-3.928 1.417-8.062 1.763-12.162 2.247-4.065.484-7.959 1.348-11.542 3.387-3.307 1.866-6.167 4.389-8.819 7.085-5.788 5.841-11.439 11.959-16.71 18.249-5.271 6.291-9.233 13.48-14.194 19.977-2.412 3.18-5.099 6.083-8.269 8.537-3.135 2.454-6.546 4.493-9.888 6.636-1.688 1.106-3.341 2.212-4.926 3.457-1.516 1.175-3.066 2.453-3.342 4.458-.517 3.767 2.825 7.5 4.238 10.749 1.619 3.802 2.549 7.846 3.893 11.751 1.24 3.595 2.928 6.913 5.202 9.92 3.273 4.355 7.476 8.018 12.024 10.991.758.483 1.516.967 2.308 1.382M-50.528 93.526c10.233.035 20.465-1.313 30.387-3.836C-13.388 87.962-6.498 85.99.53 86.302c6.753.311 13.161 3.111 19.948 3.042 12.369-.138 18.95-12.131 26.804-19.873 9.337-9.194 20.396-16.452 28.079-27.27 7.614-10.75 11.852-23.606 11.99-36.775.034-1.797-.035-3.56-.138-5.357"/><path d="M-52.216 103.929s6.994-.795 13.953-1.901c9.922-1.555 19.844-3.663 29.836-2.66 8.475.829 16.537 3.87 24.805 5.978 7.855 2.005 16.262 3.249 23.324-.518 7.373-3.94 11.163-12.166 17.571-17.627 5.96-5.08 13.712-7.327 20.396-11.44C86.523 70.3 93 61.9 100.132 54.263c5.684-6.083 11.955-11.959 14.16-19.942 1.722-6.256.689-12.858-1.723-18.906-1.413-3.525-3.445-7.155-1.723-10.403 1.895-3.526 6.546-3.284 10.646-2.454 6.408 1.348 12.575 4.285 15.883 9.885 2.342 4.009 2.825 8.778 3.858 13.34 1.895 8.226 5.651 15.83 9.13 23.538 3.204 7.154 6.167 14.447 9.096 21.74 1.722 4.25 3.41 8.57 3.927 13.133.861 7.57-1.722 14.966-3.583 22.431-1.206 4.77-2.136 9.816 0 14.205 3.79 7.742 14.057 7.12 22.739 4.563 7.131-2.109 13.815-5.738 21.188-6.291 4.961-.38 10.301.657 12.403 5.012 1.998 4.216-.035 9.297 1.894 13.548 1.999 4.424 7.235 5.669 11.921 7.258 5.995 2.005 11.783 4.597 17.708 6.775 2.619.967 5.375 1.935 6.443 4.424 1.757 4.009-2.928 6.981-7.373 8.675-6.856 2.557-14.366 2.488-21.36 4.735-6.787 2.177-12.575 6.532-17.433 11.82-4.065 4.424-7.407 9.436-11.61 13.687-5.203 5.254-11.576 9.194-18.364 12.131-4.651 2.005-9.784 3.664-11.954 8.123-1.999 4.113-.69 8.951-1.723 13.444-1.447 6.325-7.097 10.404-13.092 13.134-3.066 1.383-6.408 2.523-8.234 5.288-2.274 3.422-1.206 7.777 0 11.821 1.412 4.735 3.135 9.331 4.72 13.997 3.962 11.821 6.925 23.918 6.925 23.918"/><path d="M-51.08 122.144s7.236-3.007 14.609-5.668c7.89-2.904 16.02-5.496 24.426-5.15 8.51.345 16.537 3.732 24.84 5.668 5.685 1.313 11.542 1.935 17.33 2.73 8.785 1.21 18.294 2.973 24.565-2.972 4.272-4.078 5.477-10.3 8.888-15.173 5.41-7.742 15.194-10.403 23.634-14.862 7.339-3.87 13.781-9.228 20.603-13.998 6.098-4.285 12.575-8.295 16.365-14.654 4.72-7.95 4.168-17.696 2.618-26.89-.62-3.698-1.55-7.949 1.55-9.608 2.619-1.452 5.547.415 7.063 3.18 2.205 4.009.793 8.917 1.103 13.548.585 9.47 7.786 16.763 12.644 25.023 5.271 9.021 7.924 19.39 7.407 29.862-.345 6.775-2.205 13.342-3.376 20.012-.655 3.767-1.068 7.604 0 11.267 3.307 11.095 17.191 11.855 29.181 14.102 8.992 1.659 17.777 4.355 26.528 7.085 7.166 2.247 14.401 4.597 20.706 8.675 1.998 1.279 4.065 2.904 3.617 5.116-.551 2.765-4.168 2.696-7.131 3.249-11.025 2.004-17.537 12.857-26.804 19.458-5.857 4.182-12.782 6.636-19.087 10.162-6.201 3.456-11.886 7.776-17.812 11.751-.861.553-1.722 1.106-2.549 1.693-6.064 4.079-12.093 8.365-16.468 14.206-5.03 6.739-7.511 14.965-8.097 23.398-.62 8.399.621 16.798 2.068 25.127 2.48 14.24 5.615 28.307 5.615 28.307"/><path d="M153.36 217.052c-4.272-1.486-6.373 4.079-7.51 8.952-.861 3.629-1.378 7.708 1.757 9.297 3.79 1.901 6.305-3.179 7.683-7.707 1.24-4.251 1.929-9.194-1.93-10.542Z"/><path d="M-48.323 132.478s7.717-2.73 15.572-4.942c6.58-1.832 13.299-3.249 20.12-3.007 10.922.38 21.085 5.115 31.765 7.638 9.096 2.143 18.467 2.834 27.734 1.693 9.406-1.14 18.777-3.94 25.702-10.368 4.34-3.975 7.58-9.056 12.368-12.408 7.27-5.081 16.882-4.874 24.84-8.814 7.89-3.94 13.333-11.232 17.226-19.216 2.722-5.565 4.962-11.51 4.514-17.696-.207-2.8-.965-5.841.999-7.673 1.826-1.694 4.651-1.003 6.27.968 2.274 2.834 1.068 6.912 1.861 10.541.689 3.145 2.756 5.737 4.237 8.64 2.481 4.84 3.273 10.3 3.445 15.727.311 8.537-1.068 17.039-1.86 25.576-.792 8.813-1.171 18.387 5.237 24.159 4.995 4.493 12.093 4.839 18.845 5.703 9.716 1.244 19.19 3.871 28.664 6.29 4.755 1.21 10.198 2.523 10.474 7.155.276 4.389-4.444 6.567-8.613 8.64-9.991 4.908-19.603 10.68-30.008 14.655-5.581 2.143-11.335 3.802-16.572 6.636-6.821 3.663-12.265 9.297-17.501 15-7.235 7.915-14.47 16.59-14.746 27.201-.207 7.465 3.135 14.585 3.376 22.05.207 6.809-2.273 13.376-3.169 20.185-1.378 10.507 1.137 21.083 1.137 21.083"/><path d="M-47.806 140.254s10.887-4.389 22.36-4.665c10.817-.242 21.256 3.179 31.868 5.426 9.302 1.935 18.742 2.938 28.044 4.735 10.887 2.074 21.843 5.253 32.557 2.73 9.371-2.212 17.123-8.433 25.254-13.686 9.268-5.98 19.397-10.888 26.735-19.079 4.616-5.115 7.958-11.302 9.784-17.938 1.137-4.147 1.861-8.986 5.823-10.023 4.272-1.106 7.028 3.56 8.165 8.191 1.206 4.874.689 9.954 0 14.966-1.585 11.682-4.169 23.779 1.102 34.148 4.479 8.813 13.471 14.136 23.152 16.244 5.719 1.244 11.714 1.279 16.985 3.733 1.826.864 3.583 2.039 3.962 3.974.689 3.56-4.237 3.837-8.303 4.355-8.923 1.106-17.605 3.768-25.357 8.33-9.129 5.392-16.502 13.203-23.772 20.945-7.648 8.156-15.641 16.521-17.984 27.373-2.067 9.401.448 19.01 1.309 28.618 1.723 19.182-3.204 38.261-3.204 38.261"/><path d="M-48.22 149.137s6.133-2.765 12.644-3.871c9.82-1.659 19.741.553 29.388 3.18 10.784 2.903 21.36 6.394 32.144 9.263 12.782 3.387 25.874 5.875 39.034 5.011 10.922-.691 21.637-3.663 30.732-9.746 7.717-5.15 13.884-12.236 19.534-19.597 3.204-4.182 6.305-8.641 10.956-10.991 2.584-1.314 5.65-1.936 7.683 0 3.204 3.076-1.654 7.154-3.169 11.786-2.412 7.396 4.444 13.514 10.611 18.836 5.064 4.355 10.301 8.537 14.918 13.341 1.205 1.245 2.411 2.627 2.274 4.321-.207 2.868-3.894 2.972-6.994 3.179-5.754.381-11.576 1.141-16.503 4.079-6.305 3.767-10.06 10.403-14.229 16.555-5.34 7.88-11.61 15.208-15.124 24.021-4.203 10.542-4.066 22.155-3.618 33.56.31 8.122.793 16.245.483 24.367-.379 10.23-1.999 20.357-1.999 20.357"/><path d="M-48.323 152.904s8.51-.034 16.778 1.659c11.955 2.42 23.186 7.846 32.902 15.242 8.13 6.187 15.09 13.722 19.155 23.088 5.203 12.062 5.134 25.542 3.687 38.641-1.068 9.608-3.135 19.148-7.683 27.65-3.686 6.878-9.268 12.719-11.404 20.185-2.55 8.813 0 18.11 0 18.11"/><path d="M-6.533 295.717s-.447-9.09 0-18.146c.483-10.057 2.274-20.081 6.787-29.032 3.721-7.362 9.578-13.514 12.713-21.152 3.411-8.295 3.514-17.489 1.447-26.268-2.618-11.164-8.303-21.463-17.501-28.237-6.65-4.874-14.608-7.328-22.67-9.125-11.162-2.523-22.566-3.836-22.566-3.836"/><path d="M-49.012 166.004s11.92 1.313 23.358 4.7c8.303 2.454 16.296 6.049 22.601 11.924 4.686 4.39 8.579 10.162 6.89 16.21-1.343 4.804-5.753 8.018-8.061 12.477-3.308 6.394-1.654 14.067-3.342 21.152-2.033 8.364-8.407 14.966-10.336 23.33-1.24 5.495-.448 11.336-2.308 16.624-5.512 15.692-28.079 11.717-28.079 11.717M17.515 298.965s-.447-11.682 3.273-22.431c2.825-8.122 7.855-15.242 10.715-23.364 2.928-8.295 3.445-17.177 3.41-25.991-.034-9.47-.792-18.94-3.651-27.961-2.067-6.567-5.168-12.823-9.268-18.353-2.756-3.732-6.201-7.119-7.441-11.578-.414-1.521-.552-3.076 0-4.528 1.825-4.908 8.268-2.073 13.54.622 9.198 4.735 17.88 10.577 24.667 18.422 4.513 5.185 8.475 11.51 15.125 12.235 5.202.553 9.922-2.557 13.333-6.636 3.48-4.147 5.615-9.262 8.957-13.514 4.135-5.253 9.82-8.951 15.09-13.099 4.996-3.94 9.923-8.502 16.159-8.675 4.134-.104 8.199 1.694 10.232 5.288 1.412 2.454 1.723 5.461 0 7.638-2.308 2.904-6.58 2.385-10.232 3.388-7.683 2.177-10.991 10.576-12.886 18.594-1.068 4.562-1.757 9.263-3.583 13.583-1.998 4.701-5.34 8.641-7.717 13.169-2.687 5.184-3.996 10.921-4.065 16.762-.104 7.258 1.722 14.344 2.446 21.567 2.274 22.189-5.616 43.964-5.616 43.964"/><path d="M63.406 179.656c-1.068 2.799-.138 6.014 2.274 7.742 2.997 2.143 7.062 1.106 9.612-1.625 2.446-2.592 3.273-6.463.999-9.124-2.205-2.558-6.03-2.558-9.095-1.002-1.689.898-3.101 2.246-3.79 4.009Z"/><path d="M28.264 297.376s1.516-7.777 4.961-14.724c4.238-8.502 11.128-15.346 15.125-23.952 3.307-7.12 4.41-15 4.03-22.846A63.165 63.165 0 0 0 43.39 206.2c-2.412-4.009-5.513-8.122-4.031-12.408.482-1.417 1.412-2.696 2.756-3.353 3.376-1.693 6.512 1.694 9.095 4.77 4.341 5.115 8.234 10.541 12.885 15.346 2.309 2.384 4.927 4.735 8.131 4.355 3.825-.45 5.65-4.528 7.855-7.881 2.515-3.871 5.754-7.223 8.751-10.749 4.238-4.977 8.476-10.783 10.13-6.083 1.171 3.318-.828 6.602-2.688 9.712-3.307 5.565-6.27 11.302-9.268 17.005-3.066 5.841-6.373 11.786-6.546 18.353-.137 5.046 1.55 9.885 2.929 14.723 1.206 4.182 2.17 8.399 2.515 12.719 1.412 18.146-8.613 34.874-8.613 34.874"/><path d="M38.118 296.788s5.891-6.982 11.197-14.378c3.41-4.804 6.546-9.781 9.233-15 4.134-7.949 7.51-16.625 5.891-25.369-.964-5.15-3.824-10.749 0-13.825 2.067-1.659 4.961-1.659 6.994 0 2.343 1.866 2.722 5.115 2.928 8.157.38 5.046.207 10.127.93 15.138.586 4.217 1.792 8.295 2.24 12.546.551 5.185-.034 10.438-1.585 15.415-3.066 9.989-9.715 18.353-9.715 18.353"/><path d="M48.833 297.375s5.546-5.357 9.715-11.785c2.86-4.424 5.065-9.263 6.787-14.275.414-1.244.862-2.592 2.067-2.868 1.413-.346 2.343 1.175 2.688 2.696.723 3.387-1.723 6.359-3.549 9.401-4.72 7.776-6.58 16.935-6.58 16.935"/></g></svg>