<svg width="144" height="50" fill="none" xmlns="http://www.w3.org/2000/svg"><g clip-path="url('#clip0_24_1289')" fill="#fff"><path d="M44.389 12.465v1.39h6.122c1.005 0 1.526-.65 1.526-1.3s-.503-1.245-1.526-1.245h-9.443l.898-2.98h8.58c3.286 0 4.991 2.04 4.991 4.045 0 1.065-.574 2.149-1.723 2.889 1.382.776 2.082 1.968 2.082 3.16 0 1.968-1.633 3.918-4.99 3.918h-9.838v-8.974l3.321-.903Zm0 6.898h6.48c1.006 0 1.527-.65 1.527-1.3s-.503-1.246-1.526-1.246h-6.481v2.546ZM60.959 8.33v14.012h-3.321V8.33h3.32ZM66.955 12.465v2.474h5.942c1.005 0 1.526-.92 1.526-1.842 0-.92-.503-1.787-1.526-1.787h-9.263l.897-2.98h8.402c3.267 0 4.99 2.492 4.99 4.93 0 1.841-.987 3.683-3.051 4.37l3.465 4.712h-3.914l-3.034-4.424h-4.434v4.424h-3.321v-8.974l3.32-.903ZM83.112 12.483v6.88h5.224c1.83 0 2.782-2.077 2.782-4.117s-.897-3.936-2.782-3.936H79.79l.898-2.98h8.043c3.877 0 5.888 3.594 5.888 7.133 0 3.538-1.92 6.879-5.888 6.879h-8.94v-8.956l3.32-.903ZM95.714 12.592c0-2.149 1.687-4.261 4.991-4.261h9.478l-.897 2.979h-8.546c-1.023 0-1.525.65-1.525 1.282s.52 1.264 1.525 1.264h4.812c3.249 0 4.937 2.112 4.937 4.26 0 2.15-1.598 4.226-4.937 4.226h-9.838l.898-2.98h8.904c1.005 0 1.526-.595 1.526-1.245 0-.65-.503-1.3-1.526-1.3h-4.811c-3.358 0-4.991-2.113-4.991-4.225ZM54.236 30.41h3.5l-6.623 13.47-3.322.902-6.857-14.372h3.5l4.955 10.544 4.847-10.544ZM62.333 30.41v14.01h-3.321V30.41h3.32ZM78.83 30.41l-.897 2.979h-7.647c-1.831 0-2.783 2.076-2.783 4.116 0 2.04.898 3.937 2.783 3.937h8.545l-.898 2.979h-8.042c-3.878 0-5.889-3.593-5.889-7.132 0-3.54 1.921-6.88 5.889-6.88h8.94ZM79.17 30.41h14.56l-.898 2.979h-5.206V44.42h-3.321V33.389H79.17v-2.98ZM102.383 44.73c-4.452 0-8.15-2.366-8.15-7.313 0-4.948 3.698-7.313 8.15-7.313s8.383 2.221 8.383 7.313c0 5.091-3.788 7.312-8.383 7.312Zm.161-3.034c3.106 0 4.722-1.264 4.722-4.28 0-3.014-1.616-4.278-4.722-4.278-3.105 0-4.81 1.173-4.81 4.279 0 3.105 1.597 4.279 4.81 4.279ZM115.739 34.544v2.474h5.942c1.006 0 1.526-.92 1.526-1.842 0-.92-.502-1.787-1.526-1.787h-9.263l.898-2.98h8.401c3.267 0 4.991 2.492 4.991 4.93 0 1.842-.987 3.683-3.052 4.37l3.465 4.712h-3.914l-3.034-4.424h-4.434v4.424h-3.321v-8.974l3.321-.903ZM136.976 44.422h-3.321v-4.839l-6.75-9.172h3.86l4.578 6.572 4.578-6.572h3.859l-6.804 9.245v4.766ZM123.115 22.992c-3.939 0-7.21-2.093-7.21-6.47 0-4.376 3.271-6.47 7.21-6.47 3.938 0 7.417 1.966 7.417 6.47s-3.352 6.47-7.417 6.47Zm.143-2.684c2.748 0 4.178-1.118 4.178-3.786s-1.43-3.786-4.178-3.786-4.256 1.039-4.256 3.786 1.414 3.786 4.256 3.786ZM134.946 22.72h-2.938V10.324h11.768l-.794 2.636h-8.036v2.253h7.481v2.636h-7.481v4.872-.003ZM14.72 24.811l2.503-3.15L0 0v6.299l8.834 11.11 5.885 7.402ZM11.462 28.906l2.505-3.15L9.312 19.9 0 8.188v6.298l6.253 7.867 5.209 6.553ZM10.712 29.853 0 16.375v6.297l8.378 10.545 2.334-3.364ZM20.142 45.624l-.281.287-.415-1.72.993-1.317-.118-.19c-1.224-1.94-3.592-2.36-3.693-2.378l-.497-.085 1.687 6.133 1.32.743 1.615-1.11-.494-1.262-.117.899Z"/><path d="M10.455 32.194a10.539 10.539 0 0 0-2.292 6.417 10.361 10.361 0 0 0 1.647 5.775 6.14 6.14 0 0 1 .507-1.675 6.268 6.268 0 0 1 1.171-1.71 6.155 6.155 0 0 1 5.381-1.815c.205.032.407.074.605.124a6.218 6.218 0 0 1 .862.293 6.228 6.228 0 0 1 3.776 5.976v.02c-.006.15-.018.298-.035.444l-.007.056a6.18 6.18 0 0 1-1.047 2.774l.224-.108-.14.09.958 1.146 1.902-.458-.013-1.355-.427.797-.366.166.215-1.686a12.259 12.259 0 0 0 1.018-.857 12.68 12.68 0 0 0 1.899-2.258 14.203 14.203 0 0 0 1.152-2.106l.113-.26a16.753 16.753 0 0 0 1.047-3.526c.025-.132.045-.26.066-.382.029-.184.054-.357.075-.518.027-.214.048-.407.062-.573.041-.46.041-.725.041-.725h7.222l-3-3.782-2.395-3.018 5.395-6.78v-6.3l-5.004 6.29h-1.504l6.508-8.187V8.192l-5.25 6.598-2.625 3.299h-1.504l9.38-11.786V0L10.454 32.194Zm-.921 6.909.51-2.385.417 1.463-.927.922Z"/></g><defs><clipPath id="clip0_24_1289"><path fill="#fff" d="M0 0h144v50H0z"/></clipPath></defs></svg>