<svg viewBox="0 0 87 30" fill="none" xmlns="http://www.w3.org/2000/svg"><g clip-path="url('#clip0_132_4186')" fill="#A6A272"><path d="M26.818 7.48v.833h3.699c.607 0 .922-.39.922-.78s-.304-.747-.922-.747H24.81l.543-1.788h5.184c1.985 0 3.015 1.224 3.015 2.427 0 .64-.347 1.29-1.04 1.733.834.466 1.257 1.181 1.257 1.896 0 1.181-.987 2.351-3.015 2.351h-5.944V8.021l2.007-.542Zm0 4.137h3.915c.608 0 .922-.39.922-.78s-.303-.747-.922-.747h-3.915v1.527ZM36.83 4.998v8.407h-2.007V4.998h2.006ZM40.452 7.48v1.483h3.59c.607 0 .922-.552.922-1.105 0-.552-.304-1.072-.922-1.072h-5.597l.543-1.788h5.076c1.974 0 3.015 1.495 3.015 2.958 0 1.105-.597 2.21-1.844 2.622l2.093 2.827h-2.364l-1.833-2.654h-2.68v2.654h-2.006V8.021l2.007-.542ZM50.214 7.49v4.127h3.156c1.106 0 1.68-1.245 1.68-2.47 0-1.224-.541-2.361-1.68-2.361h-5.163l.542-1.788h4.86c2.342 0 3.557 2.156 3.557 4.28 0 2.123-1.16 4.127-3.558 4.127h-5.401V8.032l2.007-.542ZM57.827 7.555c0-1.29 1.02-2.557 3.015-2.557h5.727l-.542 1.788h-5.163c-.618 0-.922.39-.922.769 0 .38.315.758.922.758h2.907c1.963 0 2.983 1.268 2.983 2.557 0 1.29-.966 2.535-2.983 2.535h-5.944l.543-1.787h5.38c.606 0 .921-.358.921-.748s-.304-.78-.922-.78h-2.907c-2.028 0-3.015-1.268-3.015-2.535ZM32.768 18.246h2.115l-4.002 8.082-2.007.541-4.143-8.623h2.115l2.994 6.327 2.928-6.327ZM37.66 18.246v8.407h-2.007v-8.407h2.006ZM47.627 18.246l-.543 1.787h-4.62c-1.106 0-1.681 1.246-1.681 2.47 0 1.224.542 2.362 1.681 2.362h5.163l-.543 1.788h-4.859c-2.342 0-3.557-2.156-3.557-4.28 0-2.123 1.16-4.127 3.557-4.127h5.402ZM47.832 18.246h8.796l-.542 1.787H52.94v6.62h-2.007v-6.62h-3.102v-1.787ZM61.856 26.837c-2.69 0-4.924-1.419-4.924-4.387 0-2.968 2.234-4.387 4.924-4.387 2.69 0 5.065 1.332 5.065 4.387 0 3.055-2.288 4.387-5.065 4.387Zm.098-1.82c1.876 0 2.852-.758 2.852-2.567 0-1.81-.976-2.567-2.852-2.567-1.877 0-2.907.704-2.907 2.567 0 1.863.965 2.567 2.907 2.567ZM69.925 20.727v1.484h3.59c.608 0 .922-.553.922-1.105 0-.553-.303-1.073-.921-1.073h-5.597l.542-1.787h5.076c1.974 0 3.015 1.495 3.015 2.957 0 1.105-.596 2.21-1.843 2.622l2.093 2.828h-2.365l-1.832-2.655h-2.68v2.654H67.92v-5.384l2.007-.541ZM82.757 26.653H80.75V23.75l-4.078-5.503h2.332l2.765 3.943 2.766-3.943h2.332l-4.11 5.546v2.86ZM74.382 13.795c-2.38 0-4.356-1.256-4.356-3.882 0-2.625 1.976-3.881 4.356-3.881s4.481 1.179 4.481 3.881c0 2.703-2.025 3.882-4.481 3.882Zm.087-1.61c1.66 0 2.523-.67 2.523-2.272 0-1.6-.863-2.271-2.523-2.271-1.66 0-2.572.623-2.572 2.271 0 1.649.855 2.272 2.572 2.272ZM81.53 13.632h-1.775V6.195h7.11l-.48 1.582H81.53v1.351h4.52v1.582h-4.52v2.923-.001ZM8.893 14.887l1.513-1.89L0 0v3.78l5.337 6.666 3.556 4.44ZM6.925 17.343l1.513-1.889-2.812-3.514L0 4.912v3.78l3.778 4.72 3.147 3.931ZM6.472 17.912 0 9.825v3.778l5.062 6.327 1.41-2.018ZM12.17 27.374l-.17.173-.251-1.032.6-.79-.072-.114c-.74-1.164-2.17-1.417-2.231-1.428l-.3-.05 1.02 3.68.797.445.975-.666-.299-.757-.07.54Z"/><path d="M6.317 19.317a6.296 6.296 0 0 0-1.385 3.85 6.185 6.185 0 0 0 .995 3.465 3.664 3.664 0 0 1 .306-1.005 3.759 3.759 0 0 1 .708-1.026 3.731 3.731 0 0 1 3.251-1.09 3.817 3.817 0 0 1 1.213.407 3.733 3.733 0 0 1 1.954 3.43v.011c-.003.09-.01.18-.02.267l-.005.033a3.696 3.696 0 0 1-.632 1.664c.046-.02.09-.042.135-.064l-.085.054.579.688 1.15-.275-.009-.813-.258.478-.22.1.13-1.012a7.383 7.383 0 0 0 1.542-1.557 9.164 9.164 0 0 0 .42-.627 8.511 8.511 0 0 0 .564-1.105 10.03 10.03 0 0 0 .632-2.115 10.865 10.865 0 0 0 .123-.884c.025-.276.025-.435.025-.435h4.363l-1.813-2.27-1.446-1.81 3.26-4.068v-3.78l-3.024 3.774h-.909l3.932-4.912V4.915l-3.172 3.96-1.586 1.978h-.908l5.666-7.071V0L6.317 19.317Zm-.557 4.145.308-1.431.252.877-.56.554Z"/></g><defs><clipPath id="clip0_132_4186"><path fill="#fff" d="M0 0h87v30H0z"/></clipPath></defs></svg>