<svg width="60" height="60" fill="none" xmlns="http://www.w3.org/2000/svg"><path fill-rule="evenodd" clip-rule="evenodd" d="M16.72.039c-.717.259-.944 1.188-.418 1.713.848.848 2.215-.46 1.43-1.367-.273-.316-.695-.46-1.012-.346ZM6.265 4.77c-.393.5-.368.66.2 1.289.268.297.488.592.488.656 0 .064-.199.321-.442.572-.548.565-.598 1.218-.124 1.602.46.373.775.32 1.385-.23.297-.27.588-.489.646-.489.058 0 .355.225.66.5.444.402.626.483.923.411.868-.209.983-1.158.23-1.889l-.49-.474.49-.5c.558-.572.651-1.207.234-1.585-.428-.387-1.028-.29-1.554.253l-.47.484-.535-.484c-.669-.604-1.226-.643-1.64-.116Zm9.962.603c-.655.265-.63-.592-.59 19.977l.037 19.448.46 1.325c.252.73.754 1.828 1.115 2.44.782 1.328 2.499 3.105 3.797 3.933 1.541.982 13.165 7.037 13.535 7.05.419.014 12.802-6.475 14.023-7.35.964-.69 2.324-2.076 2.98-3.039.658-.963 1.365-2.521 1.725-3.801l.315-1.116.04-18.973c.03-13.823-.001-19.075-.115-19.35-.092-.223-.334-.442-.584-.529-.515-.18-36.296-.195-36.738-.015Zm35.485 20.413-.038 18.593-.392 1.117c-.771 2.197-2.367 4.278-4.143 5.4-.422.267-3.416 1.878-6.653 3.58l-5.885 3.096-6.06-3.192c-3.332-1.755-6.364-3.401-6.737-3.658-1.546-1.064-2.91-2.791-3.65-4.621-.733-1.817-.726-1.604-.731-20.943l-.005-17.965H51.75l-.038 18.593ZM33.485 8.942a8.822 8.822 0 0 0-1.165 1.706c-.423.86-.46 1.043-.46 2.264 0 1.496.272 2.274 1.234 3.528l.51.664v8.934l-.776 1.288c-1.078 1.788-2.745 5.189-3.4 6.938l-.549 1.465-1.082.041c-1.221.047-1.66-.088-2.235-.688l-.4-.418v-2.212c0-2.167.007-2.22.349-2.585.43-.461.998-.766 1.427-.766.179 0 .464-.098.635-.217.302-.212.31-.285.31-2.912 0-4.65-.704-7.212-2.892-10.521-.86-1.303-2.822-3.35-3.866-4.038-.746-.492-1.088-.493-1.51-.005-.229.265-.243 1.246-.243 16.313 0 15.845.003 16.035.279 16.31.265.266.465.28 4.176.28 4.39 0 3.949-.127 4.128 1.186.232 1.702 1.238 4.129 2.37 5.72 1.207 1.696 3.455 3.559 4.293 3.559.726 0 2.517-1.388 3.735-2.895 1.493-1.846 2.43-3.906 2.87-6.308l.23-1.263h3.938c3.637 0 3.955-.019 4.168-.255.212-.234.231-1.57.231-16.373 0-15.851-.005-16.123-.274-16.367-.336-.304-.87-.32-1.294-.038-.709.472-2.26 1.952-3.075 2.934-1.995 2.405-3.275 5.343-3.72 8.537-.081.589-.149 2.134-.149 3.433 0 2.176.023 2.384.28 2.641.153.154.442.28.641.28.562 0 1.318.42 1.607.895.225.368.262.72.262 2.453 0 1.734-.037 2.085-.262 2.453-.391.642-1.056.896-2.347.896h-1.103l-.6-1.57c-.713-1.865-2.304-5.1-3.407-6.928l-.791-1.311v-8.85l.432-.543c.607-.76 1.179-1.944 1.367-2.829.317-1.493-.406-3.55-1.735-4.937-.877-.915-1.215-.897-2.137.111Zm1.653 2.448c.516.917.49 2.17-.066 3.179l-.411.746-.307-.384c-.451-.566-.798-1.783-.683-2.397.132-.706.749-1.882.952-1.816.092.03.324.333.515.672Zm12.838 11.153v8.512H47c-.928 0-.976-.016-.976-.324 0-1.116-1.079-2.67-2.162-3.116l-.628-.258v-2.043c0-1.274.081-2.477.218-3.196.389-2.05 1.332-4.243 2.549-5.924.474-.654 1.818-2.162 1.927-2.162.027 0 .05 3.83.05 8.511Zm-24.53-5.985c1.72 2.594 2.446 5.01 2.583 8.59l.081 2.118-.517.216c-1.235.517-2.03 1.479-2.33 2.823l-.169.75H21.325l.005-8.477.005-8.477.797.84c.439.461 1.03 1.189 1.313 1.617Zm13.237 15.404c.646 1.338 1.665 3.749 1.665 3.938 0 .021-.086.038-.19.038-.502 0-2.188 1.027-2.869 1.746l-.729.771-.264-.316c-.145-.174-.266-.356-.269-.405-.012-.23-1.634-1.307-2.367-1.572l-.824-.299.593-1.462a48.362 48.362 0 0 1 2.625-5.349l.555-.955.633 1.095c.348.602.996 1.849 1.44 2.77Zm-13.507 1.935c.177 2.332 1.526 3.62 3.992 3.81 1.158.089 1.158.089 1.078.45-.21.951-.5 3.084-.502 3.677v.663H21.325v-9.628h1.774l.077 1.028Zm24.73 3.786v4.744H41.487l-.09-1.186c-.085-1.093-.32-2.687-.477-3.224-.055-.187.117-.237 1.052-.309 1.43-.11 2.365-.509 3.069-1.308.662-.752.982-1.64.982-2.725v-.819l.941.041.942.041v4.745Zm-16.674.36c1.415.639 2.239 1.85 2.343 3.446l.066 1.016-2-.04-2.001-.038.036-.768c.076-1.614.526-3.908.765-3.904.09.002.446.131.79.287Zm7.726-.046c.169.59.498 2.562.583 3.488l.091 1.012H35.557v-.673c0-1.6.862-3.013 2.262-3.711.853-.425 1.044-.445 1.139-.116Zm-5.354 10.177v3.863l-.433-.41c-1.674-1.583-3.005-4.227-3.387-6.723l-.09-.594h3.91v3.864Zm5.797-3.227c-.364 2.425-1.63 4.958-3.272 6.543l-.572.552V44.31h3.94l-.096.637Z" fill="#fff"/></svg>