<svg width="60" height="60" viewBox="0 0 60 60" fill="none" xmlns="http://www.w3.org/2000/svg">
<circle cx="30" cy="30" r="15" stroke="#A6A272" stroke-width="2" stroke-linejoin="round"/>
<path d="M36 16L40.5 1H19.5L24 16" stroke="#A6A272" stroke-width="2" stroke-linejoin="round"/>
<path d="M44 36L59 40.5L59 19.5L44 24" stroke="#A6A272" stroke-width="2" stroke-linejoin="round"/>
<path d="M24 44L19.5 59L40.5 59L36 44" stroke="#A6A272" stroke-width="2" stroke-linejoin="round"/>
<path d="M16 24L1 19.5L1 40.5L16 36" stroke="#A6A272" stroke-width="2" stroke-linejoin="round"/>
<path d="M23 22V38H37V22" stroke="#A6A272" stroke-width="2" stroke-linecap="round" stroke-linejoin="round"/>
<path d="M23 22L26.5 30.1818L23 33.5909L30 37L37 33.5909L33.5 30.1818L37 22" stroke="#A6A272" stroke-width="2" stroke-linejoin="round"/>
<path d="M30 18V42M30 42L28 38.4H32L30 42Z" stroke="#A6A272" stroke-width="2" stroke-linecap="round" stroke-linejoin="round"/>
<path d="M48.6805 12.7872C45.8585 11.8422 45.6078 7.88573 48.2926 6.66622C49.5521 6.09415 51.0207 6.36134 52.0002 7.34085C52.6572 7.99788 52.938 8.68445 52.9338 9.62312C52.9236 11.8606 50.7477 13.4793 48.6805 12.7872Z" fill="#323232"/>
<path d="M4.73058 5.71156C4.0533 5.05515 4.00822 4.46534 4.59974 4.00009C5.17602 3.54662 5.51309 3.59107 6.18801 4.20963L6.77183 4.74462L7.36414 4.20963C8.0667 3.57489 8.46188 3.53829 8.98351 4.06009C9.50576 4.5822 9.46869 4.98415 8.83398 5.67669L8.299 6.26053L8.83398 6.85285C9.44529 7.52953 9.5089 8.02038 9.04885 8.51406C8.59068 9.00586 7.95141 8.95622 7.40576 8.38667C7.15743 8.1275 6.87471 7.91545 6.77749 7.91545C6.68026 7.91545 6.39754 8.1275 6.14921 8.38667C5.61503 8.94428 4.96272 9.00648 4.5 8.54375C4.03571 8.07944 4.11031 7.52874 4.73058 6.84233L5.27513 6.23933L4.73058 5.71156Z" fill="#323232"/>
<path d="M46.6452 48.5C45.428 48.2649 45.2123 46.8352 46.3022 46.2259C46.7148 45.9952 47.3335 46.1381 47.6765 46.5435C48.3537 47.3438 47.6426 48.6926 46.6452 48.5Z" fill="#323232"/>
<path d="M14.0002 17.5C13.2456 17.3106 13.0713 16.362 13.6795 15.754C14.3445 15.0889 15.6915 15.989 15.3756 16.8871C15.2018 17.3814 14.5988 17.6502 14.0002 17.5Z" fill="#323232"/>
<path d="M29 20L30 18L31 20L30 23L29 20Z" stroke="#A6A272" stroke-width="2" stroke-linejoin="round"/>
<path d="M29 35L30.0002 24L31.0002 35L30.0002 37L29 35Z" stroke="#A6A272" stroke-width="2" stroke-linejoin="round"/>
</svg>
