<svg width="375" height="320" viewBox="0 0 375 320" fill="none" xmlns="http://www.w3.org/2000/svg">
<g clip-path="url(#clip0_132_4618)">
<rect width="375" height="320" fill="#323232"/>
<g opacity="0.05">
<path d="M291.831 -468.852C293.454 -447.432 291.241 -426.012 290.357 -404.592C289.472 -380.66 290.799 -356.581 289.914 -332.502C289.472 -320.536 288.292 -308.423 286.227 -296.605C284.015 -284.935 281.212 -273.412 280.18 -261.594C278.115 -238.549 286.374 -218.606 298.321 -199.402C307.465 -184.63 317.789 -165.13 335.045 -158.482C354.514 -151.096 371.328 -166.903 389.174 -171.63C408.937 -176.8 427.668 -167.051 444.334 -157.448C463.213 -146.517 481.796 -137.21 503.034 -131.597C524.568 -125.835 546.543 -122.438 568.077 -117.267C589.905 -111.949 610.701 -103.677 631.939 -96.438C652.44 -89.3473 673.973 -83.4383 695.801 -84.6201C717.335 -85.8019 737.098 -94.3699 755.534 -105.006C774.118 -115.79 791.669 -130.562 812.022 -137.949C821.756 -141.494 832.228 -142.085 841.225 -136.324C849.041 -131.301 854.203 -123.176 862.168 -118.301C879.571 -107.665 896.828 -122.881 903.17 -138.835C908.774 -153.017 907.889 -179.755 928.39 -181.38C946.089 -182.857 960.542 -163.505 968.212 -150.062C975.881 -136.471 980.748 -121.551 988.123 -107.813C994.17 -96.4381 1002.87 -85.9496 1016.44 -84.7678C1035.02 -83.1428 1053.16 -99.688 1071.45 -91.7109C1086.64 -85.0633 1086.79 -65.5636 1083.99 -51.6775C1080.3 -33.0641 1070.42 -16.6667 1058.18 -2.48514C1045.35 12.4351 1030.3 25.1394 1015.85 38.2869C998.889 53.6503 982.961 70.1955 967.769 87.1838C939.157 119.24 908.184 153.512 894.173 194.875C886.798 216.886 884.586 240.079 882.226 263.124C879.867 286.76 876.179 310.1 870.87 333.293C865.708 356.486 859.956 379.383 855.679 402.724C851.696 423.849 848.157 445.416 839.012 464.916C821.756 502.143 785.179 522.676 749.487 539.369C714.385 555.767 676.038 570.391 652.145 602.743C643.443 614.413 634.594 633.618 618.518 635.981C602.294 638.345 585.628 618.254 570.879 632.436C559.522 643.515 557.015 662.276 548.903 675.719C539.464 691.526 525.305 703.787 509.671 713.241C476.634 733.332 436.37 744.559 398.465 749.729C360.118 755.047 319.412 752.388 284.899 733.48C267.201 723.73 251.272 710.582 242.865 691.674C235.491 674.833 232.836 655.776 222.807 640.118C217.645 631.993 209.828 626.822 203.929 619.288C197.144 610.573 198.324 600.527 203.634 591.516C213.958 573.789 232.394 561.38 248.175 548.971C264.841 535.972 278.852 522.086 290.062 504.063C300.976 486.188 310.267 467.28 325.606 452.359C340.208 438.326 357.906 428.133 375.9 418.974C395.073 409.224 414.394 399.031 434.305 390.463C455.543 381.304 476.929 378.202 499.79 375.838C521.028 373.622 541.529 369.929 559.67 357.816C575.746 347.179 588.578 332.259 599.639 316.748C611.733 299.907 623.237 282.033 632.676 263.419C643.148 242.59 648.163 220.727 646.54 197.386C645.95 187.784 641.821 175.671 644.623 166.217C647.573 156.024 658.044 156.319 666.746 155.58C686.805 153.808 694.179 133.569 705.683 119.831C717.925 105.206 733.263 92.9451 751.404 86.5929C772.495 79.2067 794.766 82.3089 816.594 83.4907C838.865 84.6725 859.218 81.8657 878.392 70.0477C895.5 59.5593 910.839 45.8209 926.62 33.5597C940.632 22.4804 955.38 10.2192 962.607 -6.62142C978.979 -44.8821 947.121 -84.0292 907.447 -83.2906C863.643 -82.4042 826.328 -50.2002 791.374 -27.5983C773.233 -15.7804 753.027 -3.37148 731.199 -0.86016C710.108 1.65116 695.211 -8.83727 679.873 -21.837C673.236 -27.4506 666.451 -33.0641 658.192 -36.1664C648.605 -39.7118 638.576 -38.8254 628.989 -36.0186C618.665 -32.9164 609.078 -27.8938 598.754 -24.6439C587.84 -21.0985 576.336 -19.7689 564.979 -20.3598C527.222 -22.1325 490.498 -41.3367 466.162 -70.1431C454.216 -84.3246 446.251 -100.427 439.762 -117.71C433.125 -135.437 422.358 -152.426 400.678 -147.994C390.206 -145.926 380.619 -140.312 371.033 -135.585C361.003 -130.562 350.679 -126.131 339.765 -123.767C321.034 -119.631 300.828 -122.733 286.669 -136.471C260.711 -161.732 261.596 -206.788 264.251 -240.027C267.791 -285.23 277.968 -329.4 271.036 -374.899C265.726 -409.91 251.567 -444.33 225.462 -468.852" stroke="white" stroke-miterlimit="10" stroke-linecap="round" stroke-linejoin="round"/>
<path d="M162.484 -468.852C168.679 -442.409 155.405 -415.819 158.355 -389.229C158.355 -377.411 162.779 -365.593 171.629 -355.252C184.903 -341.957 199.651 -330.139 212.925 -316.843C227.674 -300.594 235.048 -279.912 237.998 -259.231C240.948 -228.209 240.948 -198.664 243.898 -169.119C246.848 -145.483 252.747 -123.324 268.971 -104.12C271.92 -102.643 273.395 -99.688 276.345 -96.7335C299.943 -76.0521 335.34 -79.0066 361.888 -95.2563C363.363 -96.7335 366.313 -95.2563 367.788 -96.7335C379.587 -104.12 392.861 -110.029 404.66 -102.643C410.559 -96.7335 412.034 -87.8701 412.034 -80.4838C413.509 -59.8024 422.358 -39.1209 438.582 -25.8257C456.281 -12.5304 476.929 -6.62145 497.577 2.24203C518.226 12.5828 518.226 36.2187 525.6 55.4229C531.5 73.1499 547.723 84.9679 566.897 82.0134C583.12 79.0589 591.97 62.8092 591.97 46.5595C591.97 31.787 605.244 19.969 619.992 24.4007C645.065 33.2642 662.764 62.8092 692.262 58.3774C724.709 55.4229 757.156 49.5139 786.654 36.2187C811.727 17.0145 826.476 -16.9622 861.873 -22.8712C873.672 -24.3484 883.996 -18.4394 891.37 -11.0532C901.695 0.764784 898.745 19.969 888.421 31.787C883.996 36.2187 878.097 39.1732 872.197 42.1277C839.75 52.4684 807.302 52.4684 774.855 62.8092C735.033 76.1044 698.161 93.8314 661.289 118.945C645.065 129.285 636.216 144.058 633.266 161.785C630.317 175.08 628.842 186.898 628.842 200.193C627.367 217.92 621.467 234.17 614.093 250.42C589.02 299.169 543.299 328.714 493.153 346.441C445.956 362.69 397.285 374.508 353.039 398.144C332.391 409.962 314.692 423.258 299.943 443.939C286.669 463.143 279.295 480.87 268.971 500.074C267.496 501.552 266.021 503.029 264.546 504.506C240.948 544.392 204.076 568.028 165.729 594.618C156.88 602.005 153.93 613.822 159.83 624.163C171.629 644.845 187.852 661.094 201.126 681.776C204.076 684.73 207.026 687.685 209.975 690.639C240.948 736.434 283.72 765.979 333.865 782.229C344.19 785.183 354.514 789.615 364.838 789.615C375.162 791.092 382.537 797.001 393.156 795.672" stroke="white" stroke-miterlimit="10" stroke-linecap="round" stroke-linejoin="round"/>
<path d="M374.572 691.821C399.055 689.162 423.833 686.946 447.432 679.707C475.897 670.844 501.56 654.299 518.078 629.776C529.435 612.936 535.777 593.141 547.428 576.3C567.634 547.051 600.377 530.653 631.349 512.483C666.894 491.506 700.521 467.279 734.591 443.791C764.089 423.553 793.881 403.315 816.889 375.985C842.7 345.259 858.481 307.441 864.675 267.703C868.51 243.476 868.51 218.659 873.967 194.727C879.867 168.875 892.551 145.387 908.627 124.262C911.282 120.717 913.936 117.172 914.379 112.888C915.854 101.217 899.778 101.07 886.356 102.399C871.755 103.876 857.154 107.422 842.405 107.126C822.494 106.831 802.878 99.297 783.262 102.842C758.484 107.274 741.523 128.399 720.285 142.58C700.079 156.023 674.711 164.296 667.779 187.046C663.207 201.966 668.516 217.772 669.991 233.431C674.711 286.317 637.249 330.191 597.722 367.27C567.339 395.781 534.007 422.223 493.89 432.564C462.623 440.541 429.88 438.178 398.023 443.643C378.702 447.041 359.971 453.393 342.862 463.143C323.394 474.222 305.548 490.029 303.483 511.892C302.156 525.187 306.875 538.483 303.483 551.335C298.026 572.016 274.723 580.88 261.449 598.311C234.754 633.174 266.464 679.56 311.3 691.378C331.801 696.696 353.334 694.037 374.572 691.821Z" stroke="white" stroke-miterlimit="10" stroke-linecap="round" stroke-linejoin="round"/>
<path d="M346.992 651.492C366.903 657.401 388.141 654.151 406.282 644.254C429.733 631.402 446.252 609.095 465.573 590.482C492.563 564.335 524.863 544.54 555.688 523.12C588.283 500.518 619.55 476.291 653.178 455.314C685.182 435.076 718.957 417.496 747.865 393.122C777.952 367.565 801.993 335.805 824.559 303.453C836.21 286.612 847.124 269.033 853.909 249.681C865.708 216.295 866.298 178.182 846.534 149.081C839.307 138.444 829.573 129.729 817.332 126.331C797.863 120.865 777.952 129.581 759.811 139.183C738.868 150.41 718.367 164.444 709.518 186.307C701.996 205.068 703.913 225.75 703.028 246.136C701.554 277.453 691.967 307.737 676.186 334.771C655.98 369.043 625.302 395.633 589.905 413.656C562.472 427.689 531.5 435.223 507.754 454.871C498.61 462.405 490.498 470.973 480.321 476.734C455.691 490.472 425.751 481.166 397.138 481.904C383.864 482.348 370.443 484.711 360.561 493.575C349.647 503.177 345.812 518.097 345.222 532.722C344.632 548.971 348.467 566.255 339.175 579.403C331.948 589.743 318.969 594.766 312.922 605.698C301.713 625.345 323.542 644.697 346.992 651.492Z" stroke="white" stroke-miterlimit="10" stroke-linecap="round" stroke-linejoin="round"/>
<path d="M121.483 -468.852C129.89 -452.455 131.07 -433.103 131.807 -415.08C132.545 -395.433 133.135 -375.933 138.444 -356.877C148.179 -321.571 168.679 -290.844 189.033 -260.856C199.062 -246.083 209.239 -231.163 215.876 -214.47C223.103 -196.3 223.84 -177.539 221.038 -158.335C215.581 -122.142 200.537 -83.1428 216.318 -47.3935C222.365 -33.6551 233.132 -20.803 247.438 -15.1894C262.924 -9.13272 278.116 -14.4508 290.652 -24.3484C304.074 -34.9846 315.135 -48.8707 330.916 -56.4046C345.813 -63.4954 362.036 -62.3136 376.343 -54.3365C408.348 -36.6095 423.244 -0.121536 441.532 29.4234C451.562 45.6731 462.918 61.1843 474.865 76.2522C484.894 88.8088 495.513 101.365 508.787 110.524C521.766 119.536 537.105 124.115 552.886 121.456C569.847 118.649 584.596 108.604 598.902 99.4449C612.619 90.5814 627.515 80.3885 644.034 77.8772C651.113 76.8431 658.487 77.5817 664.534 81.718C669.402 84.9679 676.333 92.7973 672.499 99.1495C669.991 103.434 663.207 103.434 658.93 104.024C652.588 104.763 645.803 105.354 640.199 109.047C627.662 117.32 626.335 135.638 622.353 148.785C611.881 184.387 592.855 217.772 572.944 248.942C553.623 279.226 530.025 304.782 497.578 320.884C464.983 336.986 429.291 345.407 395.516 358.406C361.004 371.702 327.672 388.985 300.091 413.803C271.774 439.36 255.255 472.302 235.049 503.915C216.761 532.722 193.752 559.608 163.665 576.3C149.948 583.834 129.743 590.778 122.663 605.993C115.289 621.947 135.347 637.902 143.606 649.277C165.287 679.117 181.363 712.207 205.699 740.275C223.545 760.809 243.456 779.57 264.842 796.41C268.234 799.069 271.626 801.728 275.018 804.24" stroke="white" stroke-miterlimit="10" stroke-linecap="round" stroke-linejoin="round"/>
<path d="M55.5557 -468.852C69.567 -447.728 73.5492 -420.694 81.3661 -396.91C92.7227 -362.786 111.454 -332.059 127.972 -300.298C145.523 -266.617 160.567 -231.311 173.399 -195.561C179.741 -178.13 185.05 -160.255 187.705 -141.79C190.507 -122.438 189.622 -102.938 187.263 -83.586C183.723 -53.5979 169.269 -12.5304 193.899 11.9919C211.598 29.5711 240.211 30.0143 262.924 24.5485C277.673 21.0031 290.947 14.3555 304.368 7.26466C318.379 -0.121574 333.571 -7.36009 349.794 -5.29194C381.947 -1.30337 401.563 33.7074 415.869 59.1161C432.388 88.2178 447.579 121.013 474.422 142.433C485.926 151.592 499.937 157.796 514.686 156.171C530.467 154.546 543.594 144.501 559.08 142.137C573.534 139.922 587.988 147.308 593.002 161.342C598.459 176.41 590.348 190.591 580.761 201.966C570.437 214.227 558.785 225.75 547.576 237.272C536.367 248.795 524.863 260.022 512.179 269.919C499.937 279.374 486.516 287.646 471.915 292.964C455.101 299.021 437.402 300.498 419.851 302.566C402.448 304.635 385.782 308.328 370.443 317.043C356.284 325.021 344.042 335.804 332.686 347.327C307.908 372.293 283.72 398.44 261.154 425.326C238.588 452.212 221.627 482.938 200.389 510.711C190.065 524.301 178.561 536.71 164.992 547.199C151.57 557.687 136.969 566.403 122.663 575.562C115.436 580.289 108.356 585.016 101.572 590.334C95.0825 595.357 88.4455 600.823 87.2656 609.391C85.0533 625.493 99.3596 641.447 105.407 655.333C112.339 671.583 116.321 688.867 122.073 705.56C127.382 720.923 134.609 735.104 144.344 747.957C158.355 766.57 176.348 782.229 195.817 794.933C199.062 797.001 202.306 799.069 205.699 800.842" stroke="white" stroke-miterlimit="10" stroke-linecap="round" stroke-linejoin="round"/>
<path d="M-772 -24.7916C-772 -24.7916 -742.06 -28.1893 -712.267 -32.9165C-669.791 -39.5641 -627.314 -48.5753 -584.543 -44.2913C-548.261 -40.7459 -513.748 -27.7462 -478.351 -18.735C-444.724 -10.1669 -408.737 -4.84884 -378.502 -20.9508C-346.939 -37.7915 -330.716 -72.9499 -303.283 -96.2904C-277.767 -118.006 -244.583 -127.608 -215.97 -145.187C-178.065 -168.528 -150.338 -204.425 -119.808 -237.072C-95.4721 -263.072 -68.6293 -288.185 -59.1901 -322.309C-51.8157 -349.047 -56.2403 -377.263 -66.5645 -403.115C-72.6115 -418.183 -81.3133 -433.694 -73.9389 -447.58C-65.827 -462.648 -45.9161 -461.614 -28.3651 -458.068C-0.932274 -452.307 25.4681 -439.75 39.627 -415.819C49.6562 -398.683 51.721 -378.297 56.1456 -358.797C64.2575 -323.639 80.3337 -291.139 95.23 -258.197C108.946 -227.618 121.63 -196.448 134.167 -165.278C141.541 -147.108 148.768 -128.642 150.98 -109.142C154.668 -76.7907 143.606 -45.1777 135.642 -13.2691C130.48 7.11688 126.497 28.6847 135.642 47.4457C151.865 80.5361 195.817 77.877 232.984 66.9454C263.514 57.9342 292.127 42.4231 323.689 40.0595C344.927 38.4345 367.788 42.8663 376.785 61.4796C385.339 79.502 376.637 101.218 384.897 119.388C393.451 138.296 415.869 143.615 435.927 150.41C461.59 158.978 486.368 170.057 511.736 179.364C522.945 183.5 534.744 187.637 539.317 198.273C546.838 215.409 526.78 228.113 507.754 235.352C478.404 246.283 446.252 245.988 416.312 255.59C387.256 264.897 362.478 283.51 341.683 306.112C324.279 325.021 309.973 346.441 291.979 364.611C269.708 387.065 242.423 403.906 213.368 416.462C193.457 425.03 171.481 432.121 162.19 451.178C153.635 468.757 159.24 489.438 154.815 508.642C148.621 535.676 124.433 553.108 98.7696 564.778C85.6432 570.687 71.3369 575.562 63.52 587.38C53.7858 602.004 58.358 620.618 63.52 637.902C69.5671 658.14 76.9415 677.787 83.7259 697.73C100.687 748.252 113.371 799.956 113.371 799.956" stroke="white" stroke-miterlimit="10" stroke-linecap="round" stroke-linejoin="round"/>
<path d="M-767.133 53.0592C-767.133 53.0592 -736.16 40.2071 -704.598 28.8323C-670.823 16.4234 -636.016 5.3441 -600.029 6.82135C-563.599 8.2986 -529.235 22.7756 -493.69 31.0482C-469.354 36.6617 -444.281 39.3208 -419.503 42.7184C-381.894 47.8888 -341.187 55.4228 -314.344 30.0141C-296.056 12.5826 -290.894 -14.0079 -276.292 -34.837C-253.137 -67.9274 -211.25 -79.3022 -175.116 -98.3587C-143.701 -114.904 -116.12 -137.801 -86.9178 -158.187C-60.8124 -176.505 -33.0846 -193.641 -16.8609 -220.822C3.34494 -254.799 0.985098 -296.458 -5.65187 -335.752C-8.30665 -351.559 -12.2888 -369.729 0.985098 -376.82C12.1942 -383.024 24.7307 -375.047 31.2202 -363.229C40.6594 -346.093 34.6124 -325.116 35.9398 -305.321C38.4471 -264.844 69.2721 -233.675 90.0679 -198.368C112.634 -159.812 123.99 -115.495 121.778 -70.7341C120.303 -41.7801 112.339 -13.7124 107.324 14.7985C104.522 30.9005 102.752 47.2979 107.324 62.9567C121.483 110.376 180.921 113.626 232.246 123.228C270.741 130.319 308.35 141.842 345.812 153.512C376.49 163.114 407.462 173.159 434.453 190.591C443.007 196.057 451.856 203 449.939 212.454C447.579 224.272 432.093 223.977 419.409 226.34C372.213 234.908 344.337 281.294 304.663 309.509C279.59 327.384 249.945 337.872 222.955 352.94C196.407 367.713 172.071 386.178 146.703 403.167C143.016 405.53 139.329 407.894 135.789 410.405C109.831 427.837 84.0209 446.155 65.29 471.12C43.7567 499.927 33.1376 535.085 30.6303 571.13C27.9755 607.027 33.285 642.924 39.4795 678.526C50.0987 739.388 63.5201 799.512 63.5201 799.512" stroke="white" stroke-miterlimit="10" stroke-linecap="round" stroke-linejoin="round"/>
<path d="M-755.334 97.2289C-755.334 97.2289 -722.297 85.5586 -688.669 76.1042C-660.499 68.2748 -631.739 62.2181 -602.536 63.2522C-555.783 64.8771 -512.274 85.1154 -466.552 95.8993C-427.615 105.058 -387.499 108.013 -347.824 103.138C-307.56 98.2629 -267.443 86.2972 -237.798 58.8204C-219.215 41.8321 -205.351 20.1165 -184.85 5.78724C-153.73 -15.9283 -112.581 -15.0419 -78.5112 -31.8826C-44.7364 -48.7232 -21.4333 -79.8931 -4.76715 -114.018C6.88441 -137.801 16.4711 -163.21 14.5538 -189.653C13.6689 -201.618 10.4242 -214.618 18.831 -222.447C26.6479 -229.686 38.7418 -226.732 45.6738 -218.311C55.408 -206.198 50.2459 -188.766 53.6381 -173.255C56.5879 -159.812 65.4372 -148.733 71.7792 -136.324C82.3983 -115.642 85.7905 -92.302 86.528 -69.1092C87.8554 -32.6212 81.9559 3.71912 78.5637 40.2071C75.1714 77.8769 73.549 118.797 100.982 143.467C122.368 162.671 152.75 164.148 181.658 167.841C223.249 173.159 263.809 184.386 304.368 194.727C324.721 199.898 348.024 205.511 349.204 225.306C350.384 244.067 330.178 253.374 312.332 262.237C269.561 283.214 228.412 307.884 183.87 324.873C159.977 334.032 135.347 341.122 112.928 353.236C83.7257 368.895 60.4226 392.974 38.0044 417.348C7.03194 451.177 -23.9406 488.256 -25.1205 533.608C-26.0054 565.516 -11.6991 595.948 -10.6667 627.856C-9.78174 656.958 -20.4009 685.026 -24.2355 714.127C-30.1351 759.036 -19.3685 804.24 -19.3685 804.24" stroke="white" stroke-miterlimit="10" stroke-linecap="round" stroke-linejoin="round"/>
<path d="M-753.122 130.467C-753.122 130.467 -706.515 111.706 -657.402 110.524C-611.091 109.49 -566.402 124.115 -520.975 133.717C-481.154 141.989 -440.742 146.273 -400.92 153.955C-354.314 162.819 -307.413 176.409 -261.544 165.625C-221.427 156.171 -188.242 129.581 -153.435 107.126C-113.761 81.57 -70.3992 60.593 -38.9842 25.5823C-19.2208 3.719 -4.91452 -22.7237 2.90235 -51.0869C7.76946 -68.8138 10.8667 -89.4953 27.8279 -93.927C46.1164 -98.6542 57.9155 -78.7114 62.7826 -58.9163C67.9447 -38.0871 65.7323 -16.3716 62.7826 5.04854C55.9981 54.9795 44.9365 106.683 67.5022 151.001C86.6757 188.67 125.17 211.42 166.614 220.431C191.097 225.749 216.76 225.897 239.326 236.386C247.143 240.079 254.665 245.101 256.287 253.374C259.237 268.59 238.146 269.771 220.742 271.987C182.543 276.714 145.376 288.089 112.191 307.589C73.1067 330.634 41.5443 364.02 10.4243 397.11C-22.3181 431.973 -56.5353 467.722 -66.5645 514.108C-75.4138 554.289 -64.6472 595.357 -60.96 636.424C-53.5856 718.411 -74.6764 799.955 -74.6764 799.955" stroke="white" stroke-miterlimit="10" stroke-linecap="round" stroke-linejoin="round"/>
<path d="M-754.892 168.433C-754.892 168.433 -728.639 156.615 -700.763 151.887C-658.729 144.797 -616.253 154.251 -574.956 165.478C-528.792 177.887 -483.513 192.807 -437.35 205.068C-382.632 219.545 -326.586 230.182 -270.246 226.488C-223.492 223.534 -177.623 210.83 -138.686 184.83C-105.649 162.819 -79.2486 132.535 -55.0605 101.07C-41.3441 83.1954 -28.0702 64.139 -8.1593 54.0937C2.90231 48.4801 16.0287 45.8211 24.7305 54.0937C38.4469 67.2412 17.6511 84.6727 11.1617 104.468C0.837486 136.081 30.1876 162.228 56.588 184.978C78.2687 203.591 100.687 221.466 120.45 242C125.612 247.318 130.775 253.227 130.185 260.465C129.3 272.726 113.518 273.169 100.244 274.056C75.6139 275.681 50.6885 278.931 29.5977 291.487C2.60734 307.589 -13.4689 335.953 -31.3149 362.248C-54.1756 395.929 -81.0184 427.246 -96.0622 464.916C-114.056 509.972 -113.466 559.608 -111.548 608.357C-110.221 643.072 -108.156 677.788 -109.484 712.503C-111.106 756.229 -118.038 799.513 -118.038 799.513" stroke="white" stroke-miterlimit="10" stroke-linecap="round" stroke-linejoin="round"/>
<path d="M-473.484 808.819C-473.484 808.819 -475.402 758.888 -459.473 712.946C-447.379 678.23 -425.846 647.799 -413.604 613.084C-401.068 577.63 -398.855 539.664 -399.003 501.995C-399.15 461.518 -402.395 421.042 -414.636 382.485C-423.486 354.418 -436.76 327.679 -454.311 304.043C-466.11 288.089 -480.859 273.612 -486.168 254.556C-487.938 248.056 -488.528 241.408 -486.168 235.204C-478.351 214.227 -450.771 226.34 -428.205 237.863C-388.826 258.101 -351.659 283.067 -322.604 316.6C-303.283 338.759 -286.322 365.792 -257.857 368.895C-235.586 371.258 -215.38 357.963 -200.779 340.531C-185.882 322.805 -176.738 300.941 -162.432 282.771C-144.733 260.317 -120.398 244.51 -97.832 226.783C-76.4462 209.943 -55.3554 190.443 -28.66 189.705C-10.9615 189.261 6.44209 196.943 15.1439 212.306C21.1909 222.795 22.5183 235.647 15.1439 244.954C5.26219 257.362 -13.0263 255.147 -28.66 259.431C-61.5499 268.737 -75.7088 304.634 -83.8206 338.907C-88.3928 358.406 -91.3425 378.497 -99.1594 396.962C-107.714 417.053 -122.02 433.894 -132.197 453.245C-143.701 475.404 -149.305 499.926 -149.6 524.892C-150.043 555.914 -142.226 586.198 -139.129 617.072C-129.394 711.911 -163.169 804.978 -163.169 804.978" stroke="white" stroke-miterlimit="10" stroke-linecap="round" stroke-linejoin="round"/>
</g>
</g>
<defs>
<clipPath id="clip0_132_4618">
<rect width="375" height="320" fill="white"/>
</clipPath>
</defs>
</svg>
