<svg viewBox="0 0 1920 560" fill="none" xmlns="http://www.w3.org/2000/svg">
<g clip-path="url(#clip0_17_104)">
<path fill-rule="evenodd" clip-rule="evenodd" d="M60 130H140V210H60V130ZM1860 320V210H1840V130H1640V210H1560V130H220V210H140V290H60V480H140V560H360V480H440V560H1840V480H1760V400H1840V320H1860ZM1760 400H1680V320H1760V400ZM140 290H220V370H140V290Z" fill="#323232"/>
<g opacity="0.05">
<path d="M1063.83 -338.852C1065.45 -317.432 1063.24 -296.012 1062.36 -274.592C1061.47 -250.66 1062.8 -226.581 1061.91 -202.502C1061.47 -190.536 1060.29 -178.423 1058.23 -166.605C1056.01 -154.935 1053.21 -143.412 1052.18 -131.594C1050.11 -108.549 1058.37 -88.6064 1070.32 -69.4022C1079.47 -54.6297 1089.79 -35.1301 1107.05 -28.4824C1126.51 -21.0962 1143.33 -36.9027 1161.17 -41.6299C1180.94 -46.8003 1199.67 -37.0505 1216.33 -27.4484C1235.21 -16.5168 1253.8 -7.2101 1275.03 -1.59656C1296.57 4.1647 1318.54 7.56239 1340.08 12.7328C1361.9 18.0508 1382.7 26.3234 1403.94 33.562C1424.44 40.6527 1445.97 46.5617 1467.8 45.3799C1489.33 44.1981 1509.1 35.6301 1527.53 24.9939C1546.12 14.21 1563.67 -0.56247 1584.02 -7.94871C1593.76 -11.4941 1604.23 -12.085 1613.22 -6.32373C1621.04 -1.30108 1626.2 6.82375 1634.17 11.6987C1651.57 22.3348 1668.83 7.11921 1675.17 -8.83507C1680.77 -23.0166 1679.89 -49.7548 1700.39 -51.3798C1718.09 -52.857 1732.54 -33.5051 1740.21 -20.0622C1747.88 -6.47148 1752.75 8.44873 1760.12 22.1871C1766.17 33.5619 1774.87 44.0504 1788.44 45.2322C1807.02 46.8572 1825.16 30.312 1843.45 38.2891C1858.64 44.9367 1858.79 64.4364 1855.99 78.3225C1852.3 96.9359 1842.42 113.333 1830.18 127.515C1817.35 142.435 1802.3 155.139 1787.85 168.287C1770.89 183.65 1754.96 200.195 1739.77 217.184C1711.16 249.24 1680.18 283.512 1666.17 324.875C1658.8 346.886 1656.59 370.079 1654.23 393.124C1651.87 416.76 1648.18 440.1 1642.87 463.293C1637.71 486.486 1631.96 509.383 1627.68 532.724C1623.7 553.849 1620.16 575.416 1611.01 594.916C1593.76 632.143 1557.18 652.676 1521.49 669.369C1486.38 685.767 1448.04 700.391 1424.14 732.743C1415.44 744.413 1406.59 763.618 1390.52 765.981C1374.29 768.345 1357.63 748.254 1342.88 762.436C1331.52 773.515 1329.02 792.276 1320.9 805.719C1311.46 821.526 1297.31 833.787 1281.67 843.241C1248.63 863.332 1208.37 874.559 1170.47 879.729C1132.12 885.047 1091.41 882.388 1056.9 863.48C1039.2 853.73 1023.27 840.582 1014.87 821.674C1007.49 804.833 1004.84 785.776 994.807 770.118C989.645 761.993 981.828 756.822 975.929 749.288C969.144 740.573 970.324 730.527 975.634 721.516C985.958 703.789 1004.39 691.38 1020.17 678.971C1036.84 665.972 1050.85 652.086 1062.06 634.063C1072.98 616.188 1082.27 597.28 1097.61 582.359C1112.21 568.326 1129.91 558.133 1147.9 548.974C1167.07 539.224 1186.39 529.031 1206.3 520.463C1227.54 511.304 1248.93 508.202 1271.79 505.838C1293.03 503.622 1313.53 499.929 1331.67 487.816C1347.75 477.179 1360.58 462.259 1371.64 446.748C1383.73 429.907 1395.24 412.033 1404.68 393.419C1415.15 372.59 1420.16 350.727 1418.54 327.386C1417.95 317.784 1413.82 305.671 1416.62 296.217C1419.57 286.024 1430.04 286.319 1438.75 285.58C1458.8 283.808 1466.18 263.569 1477.68 249.831C1489.92 235.206 1505.26 222.945 1523.4 216.593C1544.5 209.207 1566.77 212.309 1588.59 213.491C1610.86 214.672 1631.22 211.866 1650.39 200.048C1667.5 189.559 1682.84 175.821 1698.62 163.56C1712.63 152.48 1727.38 140.219 1734.61 123.379C1750.98 85.1179 1719.12 45.9708 1679.45 46.7094C1635.64 47.5958 1598.33 79.7998 1563.37 102.402C1545.23 114.22 1525.03 126.629 1503.2 129.14C1482.11 131.651 1467.21 121.163 1451.87 108.163C1445.24 102.549 1438.45 96.9359 1430.19 93.8336C1420.61 90.2882 1410.58 91.1746 1400.99 93.9814C1390.67 97.0836 1381.08 102.106 1370.75 105.356C1359.84 108.902 1348.34 110.231 1336.98 109.64C1299.22 107.868 1262.5 88.6633 1238.16 59.8569C1226.22 45.6754 1218.25 29.5734 1211.76 12.2896C1205.13 -5.43737 1194.36 -22.4257 1172.68 -17.994C1162.21 -15.9258 1152.62 -10.3123 1143.03 -5.5851C1133 -0.562461 1122.68 3.86928 1111.77 6.23288C1093.03 10.3692 1072.83 7.26694 1058.67 -6.47146C1032.71 -31.7324 1033.6 -76.7884 1036.25 -110.027C1039.79 -155.23 1049.97 -199.4 1043.04 -244.899C1037.73 -279.91 1023.57 -314.33 997.462 -338.852" stroke="white" stroke-miterlimit="10" stroke-linecap="round" stroke-linejoin="round"/>
<path d="M934.484 -338.852C940.679 -312.409 927.405 -285.819 930.355 -259.229C930.355 -247.411 934.779 -235.593 943.629 -225.252C956.903 -211.957 971.651 -200.139 984.925 -186.843C999.674 -170.594 1007.05 -149.912 1010 -129.231C1012.95 -98.2086 1012.95 -68.6636 1015.9 -39.1187C1018.85 -15.4827 1024.75 6.67601 1040.97 25.8802C1043.92 27.3575 1045.4 30.312 1048.35 33.2665C1071.94 53.9479 1107.34 50.9934 1133.89 34.7437C1135.36 33.2665 1138.31 34.7437 1139.79 33.2665C1151.59 25.8802 1164.86 19.9712 1176.66 27.3575C1182.56 33.2665 1184.03 42.1299 1184.03 49.5162C1185.51 70.1976 1194.36 90.8791 1210.58 104.174C1228.28 117.47 1248.93 123.379 1269.58 132.242C1290.23 142.583 1290.23 166.219 1297.6 185.423C1303.5 203.15 1319.72 214.968 1338.9 212.013C1355.12 209.059 1363.97 192.809 1363.97 176.559C1363.97 161.787 1377.24 149.969 1391.99 154.401C1417.07 163.264 1434.76 192.809 1464.26 188.377C1496.71 185.423 1529.16 179.514 1558.65 166.219C1583.73 147.015 1598.48 113.038 1633.87 107.129C1645.67 105.652 1656 111.561 1663.37 118.947C1673.69 130.765 1670.74 149.969 1660.42 161.787C1656 166.219 1650.1 169.173 1644.2 172.128C1611.75 182.468 1579.3 182.468 1546.85 192.809C1507.03 206.104 1470.16 223.831 1433.29 248.945C1417.07 259.285 1408.22 274.058 1405.27 291.785C1402.32 305.08 1400.84 316.898 1400.84 330.193C1399.37 347.92 1393.47 364.17 1386.09 380.42C1361.02 429.169 1315.3 458.714 1265.15 476.441C1217.96 492.69 1169.29 504.508 1125.04 528.144C1104.39 539.962 1086.69 553.258 1071.94 573.939C1058.67 593.143 1051.29 610.87 1040.97 630.074C1039.5 631.552 1038.02 633.029 1036.55 634.506C1012.95 674.392 976.076 698.028 937.729 724.618C928.88 732.005 925.93 743.822 931.83 754.163C943.629 774.845 959.852 791.094 973.126 811.776C976.076 814.73 979.026 817.685 981.975 820.639C1012.95 866.434 1055.72 895.979 1105.87 912.229C1116.19 915.183 1126.51 919.615 1136.84 919.615C1147.16 921.092 1154.54 927.001 1165.16 925.672" stroke="white" stroke-miterlimit="10" stroke-linecap="round" stroke-linejoin="round"/>
<path d="M1247.31 937.341C1309.4 910.751 1363.97 878.252 1422.96 838.366C1437.71 829.502 1452.46 822.116 1467.21 814.73C1505.56 799.957 1545.38 791.094 1577.83 764.504C1589.63 752.686 1599.95 740.868 1608.8 726.095C1616.17 711.323 1622.07 698.027 1625.02 683.255C1648.62 593.143 1653.05 503.031 1701.72 421.782C1735.64 364.169 1791.69 339.056 1847.73 305.08C1858.05 297.693 1868.38 290.307 1878.7 282.921C1890.5 277.012 1900.83 269.626 1913.51 267.853" stroke="white" stroke-miterlimit="10" stroke-linecap="round" stroke-linejoin="round"/>
<path d="M1575.91 924.49C1594.64 895.092 1612.63 865.252 1629.45 834.673C1652.6 792.424 1672.66 748.254 1681.22 700.539C1689.62 652.972 1689.48 603.336 1707.76 557.837C1724.58 516.031 1754.22 480.281 1785.2 448.225C1816.02 416.317 1851.71 389.283 1895.66 379.533C1901.42 378.204 1907.32 377.17 1913.22 376.283" stroke="white" stroke-miterlimit="10" stroke-linecap="round" stroke-linejoin="round"/>
<path d="M1635.05 925.08C1659.39 908.979 1679.3 885.638 1689.33 858.161C1696.26 838.957 1699.51 818.866 1703.34 798.776C1707.47 776.469 1712.93 754.311 1717.94 732.152C1722.96 709.698 1726.94 687.244 1730.04 664.346C1733.13 642.335 1736.23 620.472 1742.57 599.052C1753.49 561.973 1772.81 527.258 1799.8 499.485C1827.67 470.679 1863.07 450.884 1899.94 435.521C1904.51 433.6 1909.23 431.68 1913.81 429.907" stroke="white" stroke-miterlimit="10" stroke-linecap="round" stroke-linejoin="round"/>
<path d="M1723.25 919.172C1735.64 907.797 1747.44 895.979 1754.81 879.729C1760.71 866.434 1763.66 851.662 1763.66 838.366C1762.19 799.958 1760.71 763.027 1765.14 724.618C1771.04 656.665 1782.84 585.757 1835.93 537.008C1843.31 531.099 1849.21 526.667 1855.11 520.758C1874.28 505.986 1893.45 495.645 1913.36 482.793" stroke="white" stroke-miterlimit="10" stroke-linecap="round" stroke-linejoin="round"/>
<path d="M1920 91.3223C1911.89 97.0836 1904.66 104.027 1898.47 112.004C1881.95 133.572 1875.31 161.196 1858.79 182.764C1844.04 202.116 1822.22 214.672 1807.47 234.172C1800.09 243.922 1795.08 255.149 1796.85 267.115C1800.68 293.705 1829 266.524 1857.76 246.729C1876.79 233.581 1897.73 222.945 1920 219.104V91.3223Z" stroke="white" stroke-miterlimit="10" stroke-linecap="round" stroke-linejoin="round"/>
<path d="M1146.57 821.821C1171.06 819.162 1195.83 816.946 1219.43 809.707C1247.9 800.844 1273.56 784.299 1290.08 759.776C1301.43 742.936 1307.78 723.141 1319.43 706.3C1339.63 677.051 1372.38 660.653 1403.35 642.483C1438.89 621.506 1472.52 597.279 1506.59 573.791C1536.09 553.553 1565.88 533.315 1588.89 505.985C1614.7 475.259 1630.48 437.441 1636.68 397.703C1640.51 373.476 1640.51 348.659 1645.97 324.727C1651.87 298.875 1664.55 275.387 1680.63 254.262C1683.28 250.717 1685.94 247.172 1686.38 242.888C1687.85 231.217 1671.78 231.07 1658.36 232.399C1643.75 233.876 1629.15 237.422 1614.4 237.126C1594.49 236.831 1574.88 229.297 1555.26 232.842C1530.48 237.274 1513.52 258.399 1492.28 272.58C1472.08 286.023 1446.71 294.296 1439.78 317.046C1435.21 331.966 1440.52 347.772 1441.99 363.431C1446.71 416.317 1409.25 460.191 1369.72 497.27C1339.34 525.781 1306.01 552.223 1265.89 562.564C1234.62 570.541 1201.88 568.178 1170.02 573.643C1150.7 577.041 1131.97 583.393 1114.86 593.143C1095.39 604.222 1077.55 620.029 1075.48 641.892C1074.16 655.187 1078.88 668.483 1075.48 681.335C1070.03 702.016 1046.72 710.88 1033.45 728.311C1006.75 763.174 1038.46 809.56 1083.3 821.378C1103.8 826.696 1125.33 824.037 1146.57 821.821Z" stroke="white" stroke-miterlimit="10" stroke-linecap="round" stroke-linejoin="round"/>
<path d="M1118.99 781.492C1138.9 787.401 1160.14 784.151 1178.28 774.254C1201.73 761.402 1218.25 739.095 1237.57 720.482C1264.56 694.335 1296.86 674.54 1327.69 653.12C1360.28 630.518 1391.55 606.291 1425.18 585.314C1457.18 565.076 1490.96 547.496 1519.86 523.122C1549.95 497.565 1573.99 465.805 1596.56 433.453C1608.21 416.612 1619.12 399.033 1625.91 379.681C1637.71 346.295 1638.3 308.182 1618.53 279.081C1611.31 268.444 1601.57 259.729 1589.33 256.331C1569.86 250.865 1549.95 259.581 1531.81 269.183C1510.87 280.41 1490.37 294.444 1481.52 316.307C1474 335.068 1475.91 355.75 1475.03 376.136C1473.55 407.453 1463.97 437.737 1448.19 464.771C1427.98 499.043 1397.3 525.633 1361.91 543.656C1334.47 557.689 1303.5 565.223 1279.75 584.871C1270.61 592.405 1262.5 600.973 1252.32 606.734C1227.69 620.472 1197.75 611.166 1169.14 611.904C1155.86 612.348 1142.44 614.711 1132.56 623.575C1121.65 633.177 1117.81 648.097 1117.22 662.722C1116.63 678.971 1120.47 696.255 1111.18 709.403C1103.95 719.743 1090.97 724.766 1084.92 735.698C1073.71 755.345 1095.54 774.697 1118.99 781.492Z" stroke="white" stroke-miterlimit="10" stroke-linecap="round" stroke-linejoin="round"/>
<path d="M1582.4 296.069C1568.24 288.387 1551.57 292.819 1538.15 302.273C1520.6 314.682 1510.57 334.329 1502.9 354.568C1493.32 379.238 1485.94 407.158 1502.9 426.214C1516.47 441.282 1539.04 443.35 1556.15 432.419C1568.09 424.737 1574.73 411.589 1581.37 398.737C1590.66 380.567 1600.1 361.954 1601.72 341.716C1603.05 323.545 1597.89 304.489 1582.4 296.069Z" stroke="white" stroke-miterlimit="10" stroke-linecap="round" stroke-linejoin="round"/>
<path d="M1557.77 333.591C1546.12 330.932 1537.56 341.863 1531.96 353.238C1526.94 363.579 1523.99 375.545 1531.96 382.931C1541.84 392.09 1556 382.488 1563.37 370.079C1571.49 356.193 1572.22 336.841 1557.77 333.591Z" stroke="white" stroke-miterlimit="10" stroke-linecap="round" stroke-linejoin="round"/>
<path d="M893.483 -338.852C901.89 -322.455 903.07 -303.103 903.807 -285.08C904.545 -265.433 905.135 -245.933 910.444 -226.877C920.179 -191.571 940.679 -160.844 961.033 -130.856C971.062 -116.083 981.239 -101.163 987.876 -84.4701C995.103 -66.3 995.84 -47.5389 993.038 -28.3347C987.581 7.85786 972.537 46.8572 988.318 82.6065C994.365 96.3449 1005.13 109.197 1019.44 114.811C1034.92 120.867 1050.12 115.549 1062.65 105.652C1076.07 95.0154 1087.14 81.1293 1102.92 73.5954C1117.81 66.5046 1134.04 67.6864 1148.34 75.6635C1180.35 93.3905 1195.24 129.878 1213.53 159.423C1223.56 175.673 1234.92 191.184 1246.86 206.252C1256.89 218.809 1267.51 231.365 1280.79 240.524C1293.77 249.536 1309.1 254.115 1324.89 251.456C1341.85 248.649 1356.6 238.604 1370.9 229.445C1384.62 220.581 1399.51 210.388 1416.03 207.877C1423.11 206.843 1430.49 207.582 1436.53 211.718C1441.4 214.968 1448.33 222.797 1444.5 229.15C1441.99 233.434 1435.21 233.434 1430.93 234.024C1424.59 234.763 1417.8 235.354 1412.2 239.047C1399.66 247.32 1398.33 265.638 1394.35 278.785C1383.88 314.387 1364.86 347.772 1344.94 378.942C1325.62 409.226 1302.03 434.782 1269.58 450.884C1236.98 466.986 1201.29 475.407 1167.52 488.406C1133 501.702 1099.67 518.985 1072.09 543.803C1043.77 569.36 1027.25 602.302 1007.05 633.915C988.761 662.722 965.752 689.608 935.665 706.3C921.948 713.834 901.743 720.778 894.663 735.993C887.289 751.947 907.347 767.902 915.606 779.277C937.287 809.117 953.363 842.207 977.699 870.275C995.545 890.809 1015.46 909.57 1036.84 926.41C1040.23 929.069 1043.63 931.728 1047.02 934.24" stroke="white" stroke-miterlimit="10" stroke-linecap="round" stroke-linejoin="round"/>
<path d="M16.666 11.1078C48.5234 4.9034 80.3809 -1.15332 112.238 -7.35776C161.942 -16.9599 211.645 -26.4142 260.759 -38.8231C301.171 -49.0161 342.467 -61.425 376.537 -86.5382C411.197 -112.095 431.993 -149.469 447.921 -188.616C465.767 -232.343 482.433 -276.808 498.657 -321.273C500.722 -327.034 502.787 -332.943 504.852 -338.704" stroke="white" stroke-miterlimit="10" stroke-linecap="round" stroke-linejoin="round"/>
<path d="M1014.13 54.9819C1007.49 60.0046 1008.67 69.3112 1011.92 77.1406C1018.55 92.7995 1035.22 104.174 1042.74 91.4699C1047.46 83.4928 1043.77 74.0384 1038.46 66.3567C1032.12 57.1978 1022.39 48.7775 1014.13 54.9819Z" stroke="white" stroke-miterlimit="10" stroke-linecap="round" stroke-linejoin="round"/>
<path d="M827.556 -338.852C841.567 -317.728 845.549 -290.694 853.366 -266.91C864.723 -232.786 883.454 -202.059 899.972 -170.298C917.523 -136.617 932.567 -101.311 945.399 -65.5614C951.741 -48.1299 957.05 -30.2552 959.705 -11.7896C962.507 7.56235 961.622 27.062 959.263 46.414C955.723 76.4021 941.269 117.47 965.899 141.992C983.598 159.571 1012.21 160.014 1034.92 154.548C1049.67 151.003 1062.95 144.355 1076.37 137.265C1090.38 129.878 1105.57 122.64 1121.79 124.708C1153.95 128.697 1173.56 163.707 1187.87 189.116C1204.39 218.218 1219.58 251.013 1246.42 272.433C1257.93 281.592 1271.94 287.796 1286.69 286.171C1302.47 284.546 1315.59 274.501 1331.08 272.137C1345.53 269.922 1359.99 277.308 1365 291.342C1370.46 306.41 1362.35 320.591 1352.76 331.966C1342.44 344.227 1330.79 355.75 1319.58 367.272C1308.37 378.795 1296.86 390.022 1284.18 399.919C1271.94 409.374 1258.52 417.646 1243.91 422.964C1227.1 429.021 1209.4 430.498 1191.85 432.566C1174.45 434.635 1157.78 438.328 1142.44 447.043C1128.28 455.021 1116.04 465.804 1104.69 477.327C1079.91 502.293 1055.72 528.44 1033.15 555.326C1010.59 582.212 993.627 612.938 972.389 640.711C962.065 654.301 950.561 666.71 936.992 677.199C923.57 687.687 908.969 696.403 894.663 705.562C887.436 710.289 880.356 715.016 873.572 720.334C867.082 725.357 860.446 730.823 859.266 739.391C857.053 755.493 871.36 771.447 877.407 785.333C884.339 801.583 888.321 818.867 894.073 835.56C899.382 850.923 906.609 865.104 916.344 877.957C930.355 896.57 948.348 912.229 967.817 924.933C971.062 927.001 974.306 929.069 977.699 930.842" stroke="white" stroke-miterlimit="10" stroke-linecap="round" stroke-linejoin="round"/>
<path d="M7.22705 60.7434C51.031 60.8911 94.835 55.1298 137.312 44.3459C166.219 36.9597 195.717 28.5394 225.804 29.8689C254.712 31.1985 282.145 43.1641 311.2 42.8687C364.148 42.2778 392.318 -8.98267 425.946 -42.073C465.915 -81.3678 513.259 -112.39 546.149 -158.628C578.743 -204.57 596.884 -259.524 597.474 -315.807C597.622 -323.489 597.327 -331.023 596.884 -338.704" stroke="white" stroke-miterlimit="10" stroke-linecap="round" stroke-linejoin="round"/>
<path d="M0 105.208C0 105.208 29.9401 101.811 59.7327 97.0835C102.209 90.4359 144.686 81.4247 187.457 85.7087C223.739 89.2541 258.252 102.254 293.649 111.265C327.276 119.833 363.263 125.151 393.498 109.049C425.061 92.2085 441.284 57.0501 468.717 33.7096C494.233 11.9941 527.417 2.39194 556.03 -15.1873C593.935 -38.5278 621.662 -74.4249 652.192 -107.072C676.528 -133.072 703.371 -158.185 712.81 -192.309C720.184 -219.047 715.76 -247.263 705.436 -273.115C699.389 -288.183 690.687 -303.694 698.061 -317.58C706.173 -332.648 726.084 -331.614 743.635 -328.068C771.068 -322.307 797.468 -309.75 811.627 -285.819C821.656 -268.683 823.721 -248.297 828.146 -228.797C836.257 -193.639 852.334 -161.139 867.23 -128.197C880.946 -97.6177 893.63 -66.4478 906.167 -35.2779C913.541 -17.1077 920.768 1.35788 922.98 20.8575C926.668 53.2093 915.606 84.8223 907.642 116.731C902.48 137.117 898.497 158.685 907.642 177.446C923.865 210.536 967.817 207.877 1004.98 196.945C1035.51 187.934 1064.13 172.423 1095.69 170.06C1116.93 168.435 1139.79 172.866 1148.78 191.48C1157.34 209.502 1148.64 231.218 1156.9 249.388C1165.45 268.296 1187.87 273.615 1207.93 280.41C1233.59 288.978 1258.37 300.057 1283.74 309.364C1294.95 313.5 1306.74 317.637 1311.32 328.273C1318.84 345.409 1298.78 358.113 1279.75 365.352C1250.4 376.283 1218.25 375.988 1188.31 385.59C1159.26 394.897 1134.48 413.51 1113.68 436.112C1096.28 455.021 1081.97 476.441 1063.98 494.611C1041.71 517.065 1014.42 533.906 985.368 546.462C965.457 555.03 943.481 562.121 934.19 581.178C925.635 598.757 931.24 619.438 926.815 638.642C920.621 665.676 896.433 683.108 870.77 694.778C857.643 700.687 843.337 705.562 835.52 717.38C825.786 732.004 830.358 750.618 835.52 767.902C841.567 788.14 848.941 807.787 855.726 827.73C872.687 878.252 885.371 929.956 885.371 929.956" stroke="white" stroke-miterlimit="10" stroke-linecap="round" stroke-linejoin="round"/>
<path d="M4.86719 183.059C4.86719 183.059 35.8397 170.207 67.4021 158.832C101.177 146.423 135.984 135.344 171.971 136.821C208.401 138.299 242.765 152.776 278.31 161.048C302.646 166.662 327.719 169.321 352.497 172.718C390.106 177.889 430.813 185.423 457.656 160.014C475.944 142.583 481.106 115.992 495.708 95.163C518.863 62.0726 560.75 50.6978 596.884 31.6413C628.299 15.0962 655.88 -7.80117 685.082 -28.1872C711.188 -46.5051 738.915 -63.6411 755.139 -90.8225C775.345 -124.799 772.985 -166.458 766.348 -205.752C763.693 -221.559 759.711 -239.729 772.985 -246.82C784.194 -253.024 796.731 -245.047 803.22 -233.229C812.659 -216.093 806.612 -195.116 807.94 -175.321C810.447 -134.844 841.272 -103.675 862.068 -68.3683C884.634 -29.8122 895.99 14.5053 893.778 59.2659C892.303 88.2199 884.339 116.288 879.324 144.798C876.522 160.9 874.752 177.298 879.324 192.957C893.483 240.376 952.921 243.626 1004.25 253.228C1042.74 260.319 1080.35 271.842 1117.81 283.512C1148.49 293.114 1179.46 303.159 1206.45 320.591C1215.01 326.057 1223.86 333 1221.94 342.454C1219.58 354.272 1204.09 353.977 1191.41 356.34C1144.21 364.908 1116.34 411.294 1076.66 439.509C1051.59 457.384 1021.94 467.872 994.955 482.94C968.407 497.713 944.071 516.178 918.703 533.167C915.016 535.53 911.329 537.894 907.789 540.405C881.831 557.837 856.021 576.155 837.29 601.12C815.757 629.927 805.138 665.085 802.63 701.13C799.975 737.027 805.285 772.924 811.48 808.526C822.099 869.388 835.52 929.512 835.52 929.512" stroke="white" stroke-miterlimit="10" stroke-linecap="round" stroke-linejoin="round"/>
<path d="M16.666 227.229C16.666 227.229 49.7033 215.559 83.3306 206.104C111.501 198.275 140.261 192.218 169.464 193.252C216.217 194.877 259.726 215.115 305.448 225.899C344.385 235.058 384.501 238.013 424.176 233.138C464.44 228.263 504.557 216.297 534.202 188.82C552.785 171.832 566.649 150.117 587.15 135.787C618.27 114.072 659.419 114.958 693.489 98.1174C727.264 81.2768 750.567 50.1069 767.233 15.9825C778.884 -7.8012 788.471 -33.2099 786.554 -59.6526C785.669 -71.6183 782.424 -84.6181 790.831 -92.4475C798.648 -99.686 810.742 -96.7315 817.674 -88.3112C827.408 -76.1978 822.246 -58.7662 825.638 -43.2551C828.588 -29.8122 837.437 -18.7328 843.779 -6.32396C854.398 14.3575 857.791 37.698 858.528 60.8908C859.855 97.3788 853.956 133.719 850.564 170.207C847.171 207.877 845.549 248.797 872.982 273.467C894.368 292.671 924.75 294.148 953.658 297.841C995.249 303.159 1035.81 314.386 1076.37 324.727C1096.72 329.898 1120.02 335.511 1121.2 355.306C1122.38 374.067 1102.18 383.374 1084.33 392.237C1041.56 413.214 1000.41 437.884 955.87 454.873C931.977 464.032 907.347 471.122 884.928 483.236C855.726 498.895 832.423 522.974 810.004 547.348C779.032 581.177 748.059 618.256 746.88 663.608C745.995 695.516 760.301 725.948 761.333 757.856C762.218 786.958 751.599 815.026 747.764 844.127C741.865 889.036 752.632 934.24 752.632 934.24" stroke="white" stroke-miterlimit="10" stroke-linecap="round" stroke-linejoin="round"/>
<path d="M18.8784 260.467C18.8784 260.467 65.4847 241.706 114.598 240.524C160.909 239.49 205.598 254.115 251.025 263.717C290.846 271.989 331.258 276.273 371.08 283.955C417.686 292.819 464.587 306.409 510.456 295.625C550.573 286.171 583.758 259.581 618.565 237.126C658.239 211.57 701.601 190.593 733.016 155.582C752.779 133.719 767.085 107.276 774.902 78.9131C779.769 61.1862 782.867 40.5047 799.828 36.073C818.116 31.3458 829.915 51.2886 834.783 71.0837C839.945 91.9129 837.732 113.628 834.783 135.049C827.998 184.98 816.937 236.683 839.502 281.001C858.676 318.67 897.17 341.42 938.614 350.431C963.097 355.749 988.76 355.897 1011.33 366.386C1019.14 370.079 1026.66 375.101 1028.29 383.374C1031.24 398.59 1010.15 399.771 992.742 401.987C954.543 406.714 917.376 418.089 884.191 437.589C845.107 460.634 813.544 494.02 782.424 527.11C749.682 561.973 715.465 597.722 705.435 644.108C696.586 684.289 707.353 725.357 711.04 766.424C718.414 848.411 697.324 929.955 697.324 929.955" stroke="white" stroke-miterlimit="10" stroke-linecap="round" stroke-linejoin="round"/>
<path d="M17.1084 298.433C17.1084 298.433 43.3613 286.615 71.2365 281.887C113.271 274.797 155.747 284.251 197.044 295.478C243.208 307.887 288.487 322.807 334.65 335.068C389.368 349.545 445.414 360.182 501.754 356.488C548.508 353.534 594.377 340.83 633.314 314.83C666.351 292.819 692.751 262.535 716.939 231.07C730.656 213.195 743.93 194.139 763.841 184.094C774.902 178.48 788.029 175.821 796.73 184.094C810.447 197.241 789.651 214.673 783.162 234.468C772.837 266.081 802.188 292.228 828.588 314.978C850.269 333.591 872.687 351.466 892.45 372C897.612 377.318 902.775 383.227 902.185 390.465C901.3 402.726 885.518 403.169 872.244 404.056C847.614 405.681 822.688 408.931 801.598 421.487C774.607 437.589 758.531 465.953 740.685 492.248C717.824 525.929 690.982 557.246 675.938 594.916C657.944 639.972 658.534 689.608 660.452 738.357C661.779 773.072 663.844 807.788 662.516 842.503C660.894 886.229 653.962 929.513 653.962 929.513" stroke="white" stroke-miterlimit="10" stroke-linecap="round" stroke-linejoin="round"/>
<path d="M16.666 314.534C16.666 314.534 53.0956 314.386 88.4927 321.625C139.671 331.966 187.752 355.158 229.344 386.771C264.151 413.214 293.944 445.418 311.347 485.452C333.618 537.008 333.323 594.62 327.128 650.608C322.556 691.675 313.707 732.447 294.239 768.788C278.457 798.185 254.564 823.15 245.42 855.059C234.506 892.729 245.42 932.467 245.42 932.467" stroke="white" stroke-miterlimit="10" stroke-linecap="round" stroke-linejoin="round"/>
<path d="M195.569 924.933C195.569 924.933 193.652 886.081 195.569 847.377C197.634 804.39 205.303 761.549 224.624 723.289C240.553 691.823 265.626 665.528 279.047 632.881C293.649 597.427 294.091 558.132 285.242 520.61C274.033 472.895 249.697 428.873 210.318 399.919C181.853 379.09 147.783 368.601 113.271 360.92C65.4846 350.136 16.666 344.522 16.666 344.522" stroke="white" stroke-miterlimit="10" stroke-linecap="round" stroke-linejoin="round"/>
<path d="M13.7163 370.522C13.7163 370.522 64.7472 376.135 113.713 390.612C149.258 401.101 183.475 416.464 210.465 441.578C230.524 460.339 247.19 485.009 239.963 510.86C234.211 531.394 215.333 545.133 205.451 564.189C191.292 591.518 198.371 624.313 191.145 654.597C182.443 690.346 155.157 718.561 146.898 754.311C141.589 777.799 144.981 802.765 137.016 825.366C113.418 892.434 16.8136 875.445 16.8136 875.445" stroke="white" stroke-miterlimit="10" stroke-linecap="round" stroke-linejoin="round"/>
<path d="M16.666 821.378C16.666 821.378 62.9773 786.515 87.0178 736.289C106.781 694.926 110.321 647.801 128.167 605.404C141.588 573.644 163.712 546.315 179.05 515.44C186.572 500.224 192.767 483.679 185.982 468.463C176.838 447.634 150.88 443.498 127.872 438.623C71.5316 426.657 16.666 408.34 16.666 408.34" stroke="white" stroke-miterlimit="10" stroke-linecap="round" stroke-linejoin="round"/>
<path d="M14.4536 427.839C14.4536 427.839 54.5703 443.793 91.4424 465.952C103.389 473.191 115.04 481.463 119.76 494.315C128.462 517.656 109.288 539.667 90.9999 557.837C51.4731 596.984 3.98193 626.529 3.98193 626.529" stroke="white" stroke-miterlimit="10" stroke-linecap="round" stroke-linejoin="round"/>
<path d="M298.516 938.819C298.516 938.819 296.598 888.888 312.527 842.946C324.621 808.23 346.154 777.799 358.396 743.084C370.932 707.63 373.145 669.664 372.997 631.995C372.85 591.518 369.605 551.042 357.364 512.485C348.514 484.418 335.24 457.679 317.689 434.043C305.89 418.089 291.141 403.612 285.832 384.556C284.062 378.056 283.472 371.408 285.832 365.204C293.649 344.227 321.229 356.34 343.795 367.863C383.174 388.101 420.341 413.067 449.396 446.6C468.717 468.759 485.678 495.792 514.143 498.895C536.414 501.258 556.62 487.963 571.221 470.531C586.118 452.805 595.262 430.941 609.568 412.771C627.267 390.317 651.602 374.51 674.168 356.783C695.554 339.943 716.645 320.443 743.34 319.705C761.039 319.261 778.442 326.943 787.144 342.306C793.191 352.795 794.518 365.647 787.144 374.954C777.262 387.362 758.974 385.147 743.34 389.431C710.45 398.737 696.291 434.634 688.179 468.907C683.607 488.406 680.657 508.497 672.841 526.962C664.286 547.053 649.98 563.894 639.803 583.245C628.299 605.404 622.695 629.926 622.4 654.892C621.957 685.914 629.774 716.198 632.871 747.072C642.606 841.911 608.831 934.978 608.831 934.978" stroke="white" stroke-miterlimit="10" stroke-linecap="round" stroke-linejoin="round"/>
<path d="M494.97 428.873C490.398 440.839 494.38 454.577 504.704 461.964C517.536 471.122 534.939 466.691 545.854 455.02C556.325 443.941 559.865 427.396 550.131 416.021C540.691 405.09 524.32 405.09 511.194 411.737C503.967 415.578 497.92 421.339 494.97 428.873Z" stroke="white" stroke-miterlimit="10" stroke-linecap="round" stroke-linejoin="round"/>
<path d="M344.532 932.024C344.532 932.024 351.022 898.786 365.771 869.093C383.912 832.753 413.409 803.503 430.518 766.72C444.677 736.288 449.396 702.607 447.774 669.074C445.709 624.313 432.435 580.734 409.279 542.326C398.955 525.19 385.681 507.611 392.023 489.293C394.088 483.236 398.07 477.77 403.822 474.963C418.276 467.725 431.698 482.202 442.759 495.349C461.343 517.213 478.009 540.405 497.92 560.939C507.802 571.132 519.011 581.177 532.727 579.552C549.098 577.632 556.915 560.201 566.354 545.871C577.121 529.326 590.985 514.997 603.816 499.929C621.957 478.657 640.098 453.839 647.178 473.929C652.192 488.111 643.638 502.145 635.674 515.44C621.515 539.224 608.831 563.746 595.999 588.12C582.873 613.086 568.714 638.495 567.977 666.562C567.387 688.13 574.614 708.812 580.513 729.493C585.675 747.368 589.805 765.39 591.28 783.856C597.327 861.411 554.408 932.91 554.408 932.91" stroke="white" stroke-miterlimit="10" stroke-linecap="round" stroke-linejoin="round"/>
</g>
</g>
<defs>
<clipPath id="clip0_17_104">
<rect width="1920" height="560" fill="white"/>
</clipPath>
</defs>
</svg>
