<svg width="345" height="299" viewBox="0 0 345 299" fill="none" xmlns="http://www.w3.org/2000/svg">
<path opacity="0.5" fill-rule="evenodd" clip-rule="evenodd" d="M130.541 0H65.2703V65.4062H0V233.594H65.2703V299H279.73V233.594H345L345 0H195.811V65.4062H130.541V0ZM65.2703 168.188H130.541V233.594H65.2703V168.188Z" fill="#AEAD8F"/>
<mask id="mask0_132_4727" style="mask-type:alpha" maskUnits="userSpaceOnUse" x="0" y="0" width="345" height="299">
<path fill-rule="evenodd" clip-rule="evenodd" d="M130.541 0H65.2703V65.4062H0V233.594H65.2703V299H279.73V233.594H345L345 0H195.811V65.4062H130.541V0ZM65.2703 168.188H130.541V233.594H65.2703V168.188Z" fill="#EEEEEE"/>
</mask>
<g mask="url(#mask0_132_4727)">
<path d="M340.195 0C345.294 4.83875 350.807 9.33187 357.008 13.4794C359.764 15.2075 363.209 13.825 365.966 15.2075C367.344 15.8987 367.688 17.6269 367.688 19.355C368.033 26.2675 367.688 34.2169 372.167 40.0925C377.679 47.005 386.982 45.6225 394.768 45.5534" stroke="white" stroke-miterlimit="10" stroke-linecap="round" stroke-linejoin="round"/>
<path d="M229.535 0.0690308C229.879 3.80178 228.846 7.25803 226.434 10.3686C223.678 13.4793 220.577 16.5899 217.821 19.7005C215.065 23.1568 212.653 26.9586 210.586 30.7605C209.552 32.143 208.863 33.5255 209.208 35.2536C209.897 38.3643 213.342 37.673 215.409 36.6361C215.754 36.2905 216.443 35.9449 217.132 35.5993C221.955 31.1061 227.812 28.6868 234.013 26.2674C236.77 24.8849 238.492 22.4655 241.248 20.7374C245.383 18.318 250.206 19.3549 253.996 21.7743C254.34 22.1199 255.029 21.7743 255.374 22.1199C256.063 22.4655 256.752 23.1568 257.786 23.5024C264.676 25.9218 270.877 27.6499 278.112 29.0324C281.902 29.7236 285.692 29.378 289.482 27.9955C292.927 26.9586 296.372 26.2674 299.817 25.9218C305.674 25.9218 311.187 26.9586 316.699 29.0324C320.489 30.4149 319.8 34.908 320.144 38.3643C320.489 40.0924 320.833 42.5118 322.9 42.5118C328.757 43.203 331.513 35.9449 331.858 31.1061C332.547 20.7374 331.513 10.7143 332.478 0.20728" stroke="white" stroke-miterlimit="10" stroke-linecap="round" stroke-linejoin="round"/>
<path d="M240.181 0.207414C239.526 3.80191 237.115 6.91254 234.358 9.33191C233.325 10.3688 232.636 11.7513 231.602 12.7882C230.913 13.825 231.258 15.2075 232.291 15.8988C233.669 16.59 234.703 15.8988 235.736 15.5532C239.182 13.1338 242.627 10.3688 246.417 8.64066C257.786 3.80191 269.5 8.64066 280.18 13.1338C281.902 13.825 283.97 14.1707 285.692 14.5163C297.751 17.6269 309.12 18.6638 320.489 22.4657C322.556 23.1569 324.968 23.1569 326.69 21.4288C328.069 20.0463 328.413 17.9725 329.102 16.2444C330.136 10.7144 329.102 5.53004 329.757 0.172852" stroke="white" stroke-miterlimit="10" stroke-linecap="round" stroke-linejoin="round"/>
<path d="M223.678 0.0690308C223.678 0.691155 223.678 1.72803 223.333 2.41928C220.922 6.56678 217.821 9.6774 214.72 13.4793C210.241 20.0461 207.141 26.9586 204.729 34.2168C204.04 36.6361 203.006 39.0555 203.695 41.4749C205.074 45.968 210.586 45.968 214.376 44.5855C219.199 43.203 223.333 40.438 227.812 38.0186C230.224 36.9818 232.635 35.9449 235.047 34.908C248.483 30.4149 262.953 31.1061 275.356 38.0186C278.802 40.0924 282.247 42.1661 286.036 44.2399C286.726 44.9311 287.415 45.6224 288.448 45.968C297.75 50.8067 307.741 52.5349 318.077 51.1524C327.379 49.7699 337.026 42.8574 337.026 32.8343C334.959 24.1936 333.581 14.8618 335.303 6.22115C339.782 3.45615 342.538 9.6774 345.639 12.0968C347.017 12.788 347.706 14.1705 349.084 14.8618C352.874 16.5899 356.664 16.5899 360.453 18.318C362.176 19.3549 362.521 21.7743 362.865 23.848C362.865 26.613 362.865 29.7236 363.554 32.4886C364.588 39.4011 366.999 45.2768 370.1 51.498C370.445 51.8436 370.1 52.5349 370.445 52.8805C372.856 57.3736 376.991 61.5211 382.503 61.1755C383.881 61.1755 384.915 60.4842 386.293 60.1386C389.049 59.4474 391.805 58.4105 394.906 58.2722" stroke="white" stroke-miterlimit="10" stroke-linecap="round" stroke-linejoin="round"/>
<path d="M216.822 0.0690308C216.443 1.72803 215.754 3.11053 214.72 4.49303C205.418 13.1336 202.662 25.2305 200.25 37.3274C199.561 41.1293 199.906 44.9311 201.284 48.733C201.973 50.1155 203.006 51.1524 204.04 52.1893C205.418 53.2261 207.485 53.9174 209.208 54.263C211.964 54.6086 214.72 54.263 217.132 52.8805C221.266 50.8068 224.367 47.3505 229.19 46.6593C232.291 46.3136 235.392 46.6593 238.148 47.6961C243.316 50.1155 247.794 52.5349 252.618 55.6455C265.71 63.5949 280.524 60.8299 294.994 58.7561C302.229 57.3736 309.464 57.7192 316.01 60.8299C320.489 63.2492 325.657 65.323 330.48 62.2124C334.959 59.4474 335.303 54.263 335.648 49.4243C335.648 48.733 335.992 48.0418 336.337 47.6961C337.715 46.3136 339.782 45.6224 341.16 44.5855C342.883 42.8574 343.572 40.0924 342.538 37.673C341.16 34.2168 340.127 31.1061 338.749 27.6499C337.37 23.1568 336.681 18.6636 335.992 13.8249C335.992 12.788 336.681 11.7511 338.059 11.7511C338.749 11.7511 339.438 12.4424 340.127 12.788C345.294 16.5899 349.773 20.0461 354.252 24.1936C355.286 25.2305 355.975 26.2674 356.664 27.6499C357.008 28.3411 357.353 29.378 357.697 30.0693C359.075 34.2168 359.075 38.3643 360.453 42.5118C362.521 47.0049 365.277 51.1524 367.344 55.9911C368.378 58.7561 368.722 61.8667 369.756 64.6317C370.789 67.3967 373.545 69.1249 376.646 69.1249C382.847 68.7792 388.704 68.088 394.871 69.0903" stroke="white" stroke-miterlimit="10" stroke-linecap="round" stroke-linejoin="round"/>
<path d="M208.622 0.138367C208.933 3.11074 207.279 5.73749 205.66 8.05317C203.971 10.5071 202.283 12.961 201.25 15.7952C199.114 21.6362 198.735 27.892 197.873 34.0096C197.012 40.2308 196.22 46.6595 197.77 52.8462C198.872 57.2702 201.491 61.6941 206.004 63.1803C211.379 64.943 217.098 62.1089 222.162 60.5881C227.399 58.9983 234.117 58.2725 237.907 63.0421C239.526 65.0467 240.319 67.5352 241.8 69.609C243.488 71.9246 245.969 73.1689 248.828 73.3763C254.754 73.8601 260.335 70.8878 265.71 68.8486C268.569 67.7426 271.567 66.7748 274.667 66.8785C277.803 66.9822 280.559 68.3301 283.177 69.9546C285.658 71.4753 288.104 73.0652 290.929 73.8601C293.789 74.6551 296.82 74.4823 299.645 73.5836C305.158 71.7864 309.189 65.738 315.528 67.5352C318.387 68.3647 320.765 70.3002 323.624 71.0951C326.518 71.9246 329.447 71.2334 331.996 69.7126C336.682 66.9131 340.161 62.178 342.47 57.3047C345.019 51.9475 346.707 45.7954 345.949 39.8161C345.57 36.7746 344.261 34.1478 343.193 31.3137C342.47 29.3782 341.402 25.922 343.572 24.4704C345.501 23.1915 347.637 25.0234 348.774 26.475C350.187 28.2722 350.945 30.4842 351.427 32.6617C351.944 34.9428 352.22 37.293 352.805 39.5742C353.494 42.3392 354.769 44.8968 355.768 47.5581C356.94 50.6687 357.284 53.7102 357.215 57.0282C357.146 59.8278 357.043 62.5236 357.87 65.2195C359.386 70.3002 363.486 74.344 368.688 75.45C374.372 76.6597 380.229 74.6551 385.88 74.2058C388.877 73.9638 391.909 73.9984 394.872 74.4823" stroke="white" stroke-miterlimit="10" stroke-linecap="round" stroke-linejoin="round"/>
<path d="M13.8289 0.10376C7.8687 11.1638 1.77064 22.2929 -6.94579 31.4865C-10.9423 35.7031 -15.5244 39.4359 -20.9334 41.6479C-26.0668 43.7216 -31.6825 44.4474 -37.1949 44.2746C-40.2267 44.1709 -43.293 43.8944 -46.2559 43.1686" stroke="white" stroke-miterlimit="10" stroke-linecap="round" stroke-linejoin="round"/>
<path d="M196.289 0.0345459C196.667 5.04611 196.151 10.0577 195.944 15.0692C195.737 20.6683 196.047 26.302 195.841 31.9357C195.737 34.7353 195.462 37.5694 194.979 40.3344C194.463 43.0648 193.808 45.7607 193.567 48.5257C193.084 53.9175 195.014 58.5834 197.804 63.0765C199.94 66.5328 202.352 71.095 206.383 72.6503C210.931 74.3784 214.858 70.6803 219.027 69.5743C223.644 68.3646 228.019 70.6457 231.912 72.8923C236.322 75.4499 240.663 77.6273 245.624 78.9407C250.654 80.2886 255.788 81.0836 260.818 82.2933C265.917 83.5375 270.774 85.473 275.735 87.1666C280.524 88.8256 285.554 90.2081 290.653 89.9316C295.683 89.6551 300.3 87.6504 304.607 85.1619C308.948 82.6389 313.047 79.1826 317.802 77.4545C320.076 76.625 322.522 76.4868 324.623 77.8347C326.449 79.0098 327.655 80.9108 329.516 82.0513C333.581 84.5398 337.612 80.9799 339.093 77.2471C340.402 73.9291 340.196 67.6733 344.985 67.2931C349.119 66.9475 352.495 71.4752 354.287 74.6204C356.078 77.8001 357.215 81.2909 358.938 84.5053C360.35 87.1666 362.383 89.6205 365.553 89.897C369.894 90.2772 374.131 86.4062 378.403 88.2726C381.952 89.8279 381.986 94.3901 381.332 97.639C380.47 101.994 378.162 105.83 375.303 109.148C372.305 112.639 368.791 115.611 365.415 118.688C361.453 122.282 357.732 126.153 354.183 130.128C347.5 137.628 340.265 145.646 336.992 155.324C335.269 160.474 334.752 165.9 334.201 171.292C333.65 176.822 332.789 182.283 331.548 187.709C330.342 193.135 328.999 198.492 328 203.953C327.069 208.896 326.243 213.942 324.107 218.504C320.076 227.214 311.531 232.018 303.194 235.923C294.994 239.76 286.037 243.182 280.455 250.751C278.423 253.481 276.356 257.974 272.6 258.527C268.811 259.08 264.917 254.38 261.472 257.698C258.819 260.29 258.234 264.679 256.339 267.825C254.134 271.523 250.826 274.392 247.175 276.604C239.457 281.304 230.052 283.931 221.198 285.14C212.24 286.385 202.731 285.763 194.669 281.339C190.535 279.057 186.814 275.981 184.85 271.557C183.128 267.617 182.508 263.159 180.165 259.495C178.959 257.594 177.133 256.384 175.755 254.622C174.17 252.583 174.446 250.232 175.686 248.124C178.098 243.977 182.404 241.073 186.091 238.17C189.984 235.129 193.257 231.88 195.875 227.663C198.425 223.481 200.595 219.057 204.178 215.566C207.589 212.283 211.723 209.898 215.926 207.755C220.405 205.474 224.918 203.089 229.569 201.085C234.531 198.942 239.526 198.216 244.866 197.663C249.827 197.144 254.616 196.28 258.854 193.446C262.609 190.958 265.607 187.467 268.19 183.838C271.016 179.898 273.703 175.716 275.908 171.361C278.354 166.487 279.525 161.372 279.146 155.911C279.008 153.665 278.044 150.831 278.698 148.619C279.387 146.234 281.834 146.303 283.866 146.13C288.552 145.715 290.274 140.98 292.962 137.766C295.821 134.344 299.404 131.476 303.642 129.989C308.569 128.261 313.771 128.987 318.87 129.264C324.072 129.54 328.826 128.883 333.305 126.118C337.302 123.665 340.885 120.45 344.571 117.582C347.844 114.989 351.289 112.121 352.978 108.181C356.802 99.2289 349.36 90.0698 340.092 90.2426C329.86 90.45 321.144 97.9846 312.978 103.273C308.741 106.038 304.021 108.941 298.922 109.528C293.995 110.116 290.516 107.662 286.932 104.621C285.382 103.307 283.797 101.994 281.868 101.268C279.629 100.439 277.286 100.646 275.046 101.303C272.635 102.028 270.395 103.204 267.984 103.964C265.434 104.793 262.747 105.104 260.094 104.966C251.274 104.551 242.696 100.058 237.011 93.3187C234.22 90.0007 232.36 86.2334 230.844 82.1896C229.294 78.0421 226.779 74.0674 221.714 75.1043C219.268 75.5881 217.029 76.9015 214.789 78.0075C212.447 79.1826 210.035 80.2195 207.486 80.7725C203.11 81.7403 198.39 81.0144 195.083 77.8001C189.019 71.8899 189.226 61.3484 189.846 53.5718C190.673 42.9957 193.05 32.6615 191.431 22.0163C190.19 13.825 186.883 5.77192 180.785 0.0345459" stroke="white" stroke-miterlimit="10" stroke-linecap="round" stroke-linejoin="round"/>
<path d="M166.073 0.0345459C167.52 6.22123 164.42 12.4425 165.109 18.6637C165.109 21.4287 166.142 24.1937 168.209 26.6131C171.31 29.7237 174.755 32.4887 177.856 35.5993C181.301 39.4012 183.024 44.24 183.713 49.0787C184.402 56.3368 184.402 63.2493 185.091 70.1618C185.78 75.6918 187.158 80.8762 190.948 85.3693C191.637 85.7149 191.982 86.4062 192.671 87.0974C198.183 91.9362 206.452 91.2449 212.653 87.443C212.997 87.0974 213.687 87.443 214.031 87.0974C216.787 85.3693 219.888 83.9868 222.644 85.7149C224.022 87.0974 224.367 89.1712 224.367 90.8993C224.711 95.738 226.778 100.577 230.568 103.687C234.702 106.798 239.526 108.181 244.349 110.254C249.172 112.674 249.172 118.204 250.895 122.697C252.273 126.844 256.063 129.609 260.542 128.918C264.331 128.227 266.399 124.425 266.399 120.623C266.399 117.167 269.499 114.402 272.944 115.439C278.801 117.512 282.936 124.425 289.826 123.388C297.406 122.697 304.985 121.314 311.876 118.204C317.732 113.711 321.178 105.761 329.446 104.379C332.202 104.033 334.614 105.416 336.337 107.144C338.748 109.909 338.059 114.402 335.648 117.167C334.614 118.204 333.236 118.895 331.858 119.586C324.278 122.006 316.699 122.006 309.119 124.425C299.817 127.536 291.204 131.683 282.591 137.559C278.801 139.978 276.734 143.434 276.045 147.582C275.356 150.692 275.012 153.457 275.012 156.568C274.667 160.716 273.289 164.517 271.566 168.319C265.709 179.725 255.029 186.637 243.315 190.785C232.291 194.587 220.921 197.352 210.586 202.882C205.762 205.647 201.628 208.757 198.183 213.596C195.082 218.089 193.36 222.237 190.948 226.73C190.603 227.075 190.259 227.421 189.914 227.767C184.402 237.099 175.789 242.629 166.831 248.85C164.764 250.578 164.075 253.343 165.453 255.762C168.209 260.601 171.999 264.403 175.1 269.242C175.789 269.933 176.478 270.624 177.167 271.315C184.402 282.03 194.393 288.942 206.107 292.744C208.519 293.435 210.93 294.472 213.342 294.472C215.754 294.818 217.476 296.2 219.957 295.889" stroke="white" stroke-miterlimit="10" stroke-linecap="round" stroke-linejoin="round"/>
<path d="M-46.4282 60.6573C-40.3991 62.2817 -34.1288 63.3531 -27.8929 63.6296C-19.9689 64.0098 -11.907 62.9384 -4.46532 60.1734C3.01083 57.4084 9.72902 52.9498 15.138 47.1088C20.5126 41.3023 24.578 34.4243 27.9198 27.3045C31.6407 19.3551 34.5002 10.991 38.2211 3.04161C38.669 2.07386 39.1513 1.10612 39.6336 0.138367" stroke="white" stroke-miterlimit="10" stroke-linecap="round" stroke-linejoin="round"/>
<path d="M239.147 298.62C253.651 292.398 266.399 284.795 280.18 275.463C283.625 273.389 287.07 271.661 290.515 269.933C299.473 266.477 308.775 264.403 316.355 258.182C319.111 255.417 321.522 252.652 323.59 249.195C325.312 245.739 326.69 242.628 327.379 239.172C332.892 218.089 333.925 197.006 345.294 177.997C353.219 164.517 366.31 158.642 379.402 150.692C381.814 148.964 384.226 147.236 386.637 145.508C389.393 144.125 391.805 142.397 394.768 141.983" stroke="white" stroke-miterlimit="10" stroke-linecap="round" stroke-linejoin="round"/>
<path d="M315.907 295.613C320.282 288.735 324.485 281.753 328.413 274.599C333.822 264.714 338.507 254.38 340.506 243.216C342.469 232.087 342.435 220.474 346.707 209.829C350.635 200.048 357.56 191.684 364.795 184.183C371.995 176.718 380.333 170.393 390.599 168.112C391.943 167.801 393.321 167.559 394.699 167.352" stroke="white" stroke-miterlimit="10" stroke-linecap="round" stroke-linejoin="round"/>
<path d="M265.985 296.27C265.985 296.27 281.351 291.811 294.994 283.758C299.99 280.82 304.848 277.571 310.463 276.154C329.274 271.35 302.608 299 302.608 299" stroke="white" stroke-miterlimit="10" stroke-linecap="round" stroke-linejoin="round"/>
<path d="M329.722 295.751C335.407 291.984 340.058 286.523 342.401 280.094C344.02 275.601 344.778 270.901 345.674 266.2C346.638 260.981 347.913 255.797 349.084 250.612C350.256 245.359 351.186 240.105 351.909 234.748C352.633 229.598 353.356 224.483 354.838 219.472C357.387 210.796 361.901 202.674 368.205 196.177C374.717 189.437 382.985 184.806 391.598 181.211C392.667 180.762 393.769 180.312 394.837 179.898" stroke="white" stroke-miterlimit="10" stroke-linecap="round" stroke-linejoin="round"/>
<path d="M215.616 271.592C221.335 270.97 227.123 270.451 232.636 268.758C239.285 266.684 245.28 262.813 249.138 257.076C251.791 253.136 253.272 248.504 255.994 244.564C260.714 237.721 268.363 233.884 275.598 229.633C283.901 224.725 291.756 219.057 299.714 213.562C306.605 208.827 313.564 204.091 318.939 197.697C324.968 190.508 328.654 181.66 330.101 172.363C330.997 166.695 330.997 160.888 332.272 155.289C333.65 149.241 336.613 143.745 340.368 138.803C340.988 137.973 341.608 137.144 341.712 136.142C342.056 133.411 338.301 133.377 335.166 133.688C331.755 134.033 328.344 134.863 324.899 134.794C320.248 134.725 315.666 132.962 311.083 133.791C305.295 134.828 301.333 139.771 296.372 143.089C291.652 146.234 285.727 148.169 284.107 153.492C283.039 156.983 284.28 160.681 284.624 164.345C285.727 176.718 276.976 186.983 267.742 195.658C260.645 202.329 252.859 208.515 243.488 210.935C236.184 212.801 228.536 212.248 221.094 213.527C216.581 214.322 212.205 215.808 208.209 218.089C203.661 220.681 199.492 224.38 199.01 229.495C198.7 232.605 199.803 235.716 199.01 238.723C197.735 243.562 192.292 245.636 189.191 249.714C182.955 257.871 190.363 268.723 200.836 271.488C205.625 272.733 210.655 272.11 215.616 271.592Z" stroke="white" stroke-miterlimit="10" stroke-linecap="round" stroke-linejoin="round"/>
<path d="M209.174 262.156C213.825 263.539 218.786 262.779 223.023 260.463C228.501 257.456 232.36 252.237 236.873 247.882C243.178 241.765 250.723 237.133 257.924 232.122C265.538 226.834 272.841 221.165 280.697 216.258C288.173 211.522 296.062 207.41 302.815 201.707C309.843 195.727 315.459 188.296 320.73 180.727C323.452 176.787 326.001 172.674 327.586 168.147C330.342 160.335 330.48 151.418 325.864 144.609C324.175 142.121 321.902 140.082 319.042 139.287C314.494 138.008 309.843 140.047 305.606 142.294C300.713 144.921 295.924 148.204 293.857 153.319C292.1 157.709 292.548 162.547 292.341 167.317C291.997 174.644 289.758 181.73 286.071 188.055C281.351 196.073 274.185 202.294 265.917 206.511C259.508 209.794 252.273 211.557 246.727 216.154C244.591 217.917 242.696 219.921 240.318 221.269C234.565 224.483 227.571 222.306 220.887 222.479C217.787 222.582 214.652 223.135 212.343 225.209C209.794 227.456 208.898 230.947 208.76 234.368C208.622 238.17 209.518 242.214 207.348 245.29C205.659 247.709 202.628 248.884 201.215 251.442C198.597 256.039 203.696 260.567 209.174 262.156Z" stroke="white" stroke-miterlimit="10" stroke-linecap="round" stroke-linejoin="round"/>
<path d="M226.296 231.741C223.333 233.02 220.68 234.99 218.854 237.652C215.134 242.974 214.858 250.543 220.405 250.405C225.021 250.301 227.192 245.117 231.016 242.214C233.979 239.967 237.907 239.069 240.043 236.062C244.005 230.497 234.599 228.112 226.296 231.741Z" stroke="white" stroke-miterlimit="10" stroke-linecap="round" stroke-linejoin="round"/>
<path d="M317.422 148.584C314.115 146.787 310.222 147.824 307.087 150.036C302.987 152.939 300.644 157.536 298.853 162.271C296.613 168.043 294.891 174.575 298.853 179.034C302.022 182.559 307.293 183.043 311.29 180.485C314.081 178.688 315.631 175.612 317.181 172.605C319.352 168.354 321.557 163.999 321.936 159.264C322.246 155.013 321.04 150.554 317.422 148.584Z" stroke="white" stroke-miterlimit="10" stroke-linecap="round" stroke-linejoin="round"/>
<path d="M311.669 157.363C308.947 156.741 306.949 159.298 305.64 161.96C304.469 164.379 303.78 167.179 305.64 168.907C307.948 171.05 311.256 168.803 312.978 165.9C314.873 162.651 315.045 158.123 311.669 157.363Z" stroke="white" stroke-miterlimit="10" stroke-linecap="round" stroke-linejoin="round"/>
<path d="M156.496 0.0345459C158.46 3.87098 158.735 8.39867 158.908 12.6153C159.08 17.2121 159.218 21.7743 160.458 26.2329C162.732 34.4933 167.521 41.6823 172.275 48.6985C174.618 52.1548 176.995 55.6456 178.545 59.5511C180.234 63.8023 180.406 68.1918 179.751 72.6849C178.476 81.1527 174.962 90.2772 178.649 98.6413C180.061 101.856 182.576 104.863 185.918 106.176C189.536 107.593 193.084 106.349 196.013 104.033C199.148 101.545 201.732 98.2957 205.418 96.533C208.898 94.874 212.688 95.1505 216.029 97.0169C223.506 101.164 226.985 109.701 231.257 116.614C233.6 120.416 236.253 124.045 239.044 127.57C241.386 130.508 243.867 133.446 246.968 135.589C249.999 137.697 253.582 138.768 257.269 138.146C261.231 137.49 264.676 135.139 268.018 132.996C271.222 130.923 274.702 128.538 278.56 127.95C280.214 127.708 281.937 127.881 283.349 128.849C284.486 129.609 286.105 131.441 285.21 132.927C284.624 133.93 283.039 133.93 282.04 134.068C280.559 134.241 278.974 134.379 277.665 135.243C274.736 137.178 274.426 141.464 273.496 144.54C271.05 152.87 266.605 160.681 261.954 167.974C257.441 175.059 251.929 181.038 244.349 184.806C236.735 188.573 228.398 190.543 220.508 193.584C212.446 196.695 204.66 200.739 198.218 206.545C191.603 212.525 187.744 220.232 183.024 227.628C178.752 234.368 173.378 240.659 166.349 244.564C163.145 246.327 158.425 247.951 156.772 251.511C155.049 255.244 159.734 258.977 161.664 261.638C166.728 268.62 170.484 276.362 176.168 282.928C180.337 287.733 184.988 292.122 189.984 296.062C190.776 296.684 191.568 297.306 192.361 297.894" stroke="white" stroke-miterlimit="10" stroke-linecap="round" stroke-linejoin="round"/>
<path d="M-48.3232 81.913C-40.8815 80.4614 -33.4398 79.0444 -25.9981 77.5927C-14.3877 75.3462 -2.7773 73.1342 8.69532 70.2309C18.1352 67.8461 27.7819 64.9429 35.7404 59.0672C43.8367 53.0879 48.6944 44.3436 52.4153 35.1846C56.584 24.9541 60.4771 14.5508 64.2669 4.14746C64.7492 2.79953 65.2315 1.41703 65.7139 0.0690918" stroke="white" stroke-miterlimit="10" stroke-linecap="round" stroke-linejoin="round"/>
<path d="M184.678 92.1781C183.128 93.3533 183.403 95.5307 184.161 97.3625C185.712 101.026 189.605 103.687 191.362 100.715C192.464 98.8487 191.603 96.6367 190.363 94.8395C188.881 92.6966 186.607 90.7265 184.678 92.1781Z" stroke="white" stroke-miterlimit="10" stroke-linecap="round" stroke-linejoin="round"/>
<path d="M141.096 0.0345459C144.369 4.97698 145.299 11.3019 147.125 16.8665C149.778 24.8504 154.153 32.0394 158.012 39.4703C162.112 47.3506 165.626 55.611 168.623 63.9751C170.105 68.0535 171.345 72.2356 171.965 76.5559C172.62 81.0836 172.413 85.6458 171.862 90.1735C171.035 97.1897 167.658 106.798 173.412 112.535C177.546 116.648 184.23 116.752 189.536 115.473C192.981 114.644 196.082 113.088 199.217 111.429C202.49 109.701 206.038 108.008 209.828 108.492C217.339 109.425 221.921 117.616 225.263 123.561C229.121 130.37 232.67 138.043 238.94 143.054C241.628 145.197 244.9 146.649 248.346 146.268C252.032 145.888 255.098 143.538 258.716 142.985C262.092 142.467 265.469 144.195 266.64 147.478C267.915 151.003 266.02 154.321 263.78 156.983C261.369 159.851 258.647 162.547 256.029 165.243C253.41 167.939 250.723 170.566 247.76 172.882C244.9 175.094 241.765 177.029 238.355 178.273C234.427 179.69 230.293 180.036 226.193 180.52C222.128 181.004 218.234 181.868 214.651 183.907C211.344 185.773 208.484 188.296 205.832 190.992C200.044 196.833 194.393 202.951 189.122 209.241C183.851 215.532 179.889 222.721 174.928 229.218C172.516 232.398 169.829 235.301 166.659 237.755C163.524 240.209 160.113 242.248 156.771 244.391C155.083 245.497 153.43 246.603 151.845 247.848C150.329 249.023 148.779 250.301 148.503 252.306C147.986 256.073 151.328 259.806 152.741 263.055C154.36 266.857 155.29 270.901 156.634 274.806C157.874 278.401 159.562 281.719 161.836 284.726C165.109 289.081 169.312 292.744 173.86 295.717C174.618 296.2 175.376 296.684 176.168 297.099" stroke="white" stroke-miterlimit="10" stroke-linecap="round" stroke-linejoin="round"/>
<path d="M-50.5278 93.526C-40.2955 93.5606 -30.0632 92.2127 -20.1409 89.6896C-13.3883 87.9615 -6.49779 85.9914 0.530483 86.3025C7.28313 86.6135 13.6913 89.4131 20.4784 89.344C32.8467 89.2057 39.4271 77.2125 47.2822 69.4705C56.6188 60.2769 67.678 53.0188 75.3609 42.2007C82.9748 31.4518 87.2125 18.5946 87.3503 5.42628C87.3847 3.62903 87.3158 1.86634 87.2125 0.0690918" stroke="white" stroke-miterlimit="10" stroke-linecap="round" stroke-linejoin="round"/>
<path d="M-52.2163 103.929C-52.2163 103.929 -45.2225 103.134 -38.2631 102.028C-28.3409 100.473 -18.4186 98.3648 -8.42744 99.3671C0.0478256 100.197 8.10966 103.238 16.3782 105.346C24.2333 107.351 32.6397 108.595 39.7024 104.828C47.0752 100.888 50.865 92.662 57.2731 87.2011C63.2333 82.1204 70.9851 79.8739 77.6688 75.7609C86.5231 70.3 93.0001 61.9014 100.132 54.2631C105.816 48.1801 112.087 42.3044 114.292 34.3205C116.014 28.0647 114.981 21.4633 112.569 15.4148C111.156 11.8895 109.124 8.2604 110.846 5.01152C112.741 1.48615 117.392 1.72809 121.492 2.55759C127.9 3.90552 134.067 6.84333 137.375 12.4425C139.717 16.4517 140.2 21.2213 141.233 25.7836C143.128 34.0094 146.884 41.6132 150.363 49.3206C153.567 56.4751 156.53 63.7677 159.459 71.0604C161.181 75.3116 162.869 79.6319 163.386 84.1942C164.247 91.7633 161.664 99.1597 159.803 106.625C158.597 111.395 157.667 116.441 159.803 120.83C163.593 128.572 173.86 127.95 182.542 125.393C189.673 123.284 196.357 119.655 203.73 119.102C208.691 118.722 214.031 119.759 216.133 124.114C218.131 128.33 216.098 133.411 218.027 137.662C220.026 142.086 225.262 143.331 229.948 144.92C235.943 146.925 241.731 149.517 247.656 151.695C250.275 152.662 253.031 153.63 254.099 156.119C255.856 160.128 251.171 163.1 246.726 164.794C239.87 167.351 232.36 167.282 225.366 169.529C218.579 171.706 212.791 176.061 207.933 181.349C203.868 185.773 200.526 190.785 196.323 195.036C191.12 200.29 184.747 204.23 177.959 207.167C173.308 209.172 168.175 210.831 166.005 215.29C164.006 219.403 165.315 224.241 164.282 228.734C162.835 235.059 157.185 239.138 151.19 241.868C148.124 243.251 144.782 244.391 142.956 247.156C140.682 250.578 141.75 254.933 142.956 258.977C144.368 263.712 146.091 268.308 147.676 272.974C151.638 284.795 154.601 296.892 154.601 296.892" stroke="white" stroke-miterlimit="10" stroke-linecap="round" stroke-linejoin="round"/>
<path d="M-51.0791 122.144C-51.0791 122.144 -43.8441 119.137 -36.4713 116.476C-28.5818 113.572 -20.451 110.98 -12.0446 111.326C-3.53493 111.671 4.49245 115.058 12.7955 116.994C18.4801 118.307 24.337 118.929 30.125 119.724C38.9103 120.934 48.4191 122.697 54.6895 116.752C58.9615 112.674 60.1674 106.452 63.5781 101.579C68.9872 93.8371 78.7716 91.1758 87.2124 86.7172C94.5508 82.8462 100.993 77.4891 107.815 72.7194C113.913 68.4337 120.39 64.4244 124.18 58.0649C128.9 50.1156 128.348 40.369 126.798 31.1753C126.178 27.4772 125.248 23.226 128.348 21.567C130.967 20.1153 133.895 21.9817 135.411 24.7467C137.616 28.756 136.204 33.6638 136.514 38.2952C137.099 47.7653 144.3 55.058 149.158 63.3184C154.429 72.3393 157.082 82.708 156.565 93.1804C156.22 99.9547 154.36 106.522 153.189 113.192C152.534 116.959 152.121 120.796 153.189 124.459C156.496 135.554 170.38 136.314 182.37 138.561C191.362 140.22 200.147 142.916 208.898 145.646C216.064 147.893 223.299 150.243 229.604 154.321C231.602 155.6 233.669 157.225 233.221 159.437C232.67 162.202 229.053 162.133 226.09 162.686C215.065 164.69 208.553 175.543 199.286 182.144C193.429 186.326 186.504 188.78 180.199 192.306C173.998 195.762 168.313 200.082 162.387 204.057C161.526 204.61 160.665 205.163 159.838 205.75C153.774 209.829 147.745 214.115 143.37 219.956C138.34 226.695 135.859 234.921 135.273 243.354C134.653 251.753 135.894 260.152 137.341 268.481C139.821 282.721 142.956 296.788 142.956 296.788" stroke="white" stroke-miterlimit="10" stroke-linecap="round" stroke-linejoin="round"/>
<path d="M153.36 217.052C149.088 215.566 146.987 221.131 145.85 226.004C144.989 229.633 144.472 233.712 147.607 235.301C151.397 237.202 153.912 232.122 155.29 227.594C156.53 223.343 157.219 218.4 153.36 217.052Z" stroke="white" stroke-miterlimit="10" stroke-linecap="round" stroke-linejoin="round"/>
<path d="M-48.3232 132.478C-48.3232 132.478 -40.6059 129.748 -32.7508 127.536C-26.1704 125.704 -19.4522 124.287 -12.6307 124.529C-1.70929 124.909 8.45414 129.644 19.1344 132.167C28.2298 134.31 37.6008 135.001 46.8684 133.86C56.2739 132.72 65.6449 129.92 72.5699 123.492C76.9108 119.517 80.1494 114.436 84.9382 111.084C92.2077 106.003 101.82 106.21 109.778 102.27C117.668 98.3302 123.111 91.0376 127.004 83.0536C129.726 77.4891 131.966 71.5443 131.518 65.3577C131.311 62.5581 130.553 59.5166 132.517 57.6848C134.343 55.9912 137.168 56.6825 138.787 58.6525C141.061 61.4866 139.855 65.565 140.648 69.1941C141.337 72.3393 143.404 74.9315 144.885 77.8347C147.366 82.6734 148.158 88.1343 148.33 93.5606C148.641 102.098 147.262 110.6 146.47 119.137C145.678 127.95 145.299 137.524 151.707 143.296C156.702 147.789 163.8 148.135 170.552 148.999C180.268 150.243 189.742 152.87 199.216 155.289C203.971 156.499 209.414 157.812 209.69 162.444C209.966 166.833 205.246 169.011 201.077 171.084C191.086 175.992 181.474 181.764 171.069 185.739C165.488 187.882 159.734 189.541 154.497 192.375C147.676 196.038 142.232 201.672 136.996 207.375C129.761 215.29 122.526 223.965 122.25 234.576C122.043 242.041 125.385 249.161 125.626 256.626C125.833 263.435 123.353 270.002 122.457 276.811C121.079 287.318 123.594 297.894 123.594 297.894" stroke="white" stroke-miterlimit="10" stroke-linecap="round" stroke-linejoin="round"/>
<path d="M-47.8062 140.254C-47.8062 140.254 -36.9192 135.865 -25.4466 135.589C-14.6286 135.347 -4.18954 138.768 6.42176 141.015C15.7239 142.95 25.1638 143.953 34.4659 145.75C45.3529 147.824 56.3087 151.003 67.0234 148.48C76.3944 146.268 84.1462 140.047 92.2769 134.794C101.545 128.814 111.674 123.906 119.012 115.715C123.628 110.6 126.97 104.413 128.796 97.7772C129.933 93.6297 130.657 88.7909 134.619 87.7541C138.891 86.6481 141.647 91.314 142.784 95.9454C143.99 100.819 143.473 105.899 142.784 110.911C141.199 122.593 138.615 134.69 143.886 145.059C148.365 153.872 157.357 159.195 167.038 161.303C172.757 162.547 178.752 162.582 184.023 165.036C185.849 165.9 187.606 167.075 187.985 169.01C188.674 172.57 183.748 172.847 179.682 173.365C170.759 174.471 162.077 177.133 154.325 181.695C145.196 187.087 137.823 194.898 130.553 202.64C122.905 210.796 114.912 219.161 112.569 230.013C110.502 239.414 113.017 249.023 113.878 258.631C115.601 277.813 110.674 296.892 110.674 296.892" stroke="white" stroke-miterlimit="10" stroke-linecap="round" stroke-linejoin="round"/>
<path d="M-48.2197 149.137C-48.2197 149.137 -42.0872 146.372 -35.5757 145.266C-25.7568 143.607 -15.8346 145.819 -6.18792 148.446C4.59565 151.349 15.1725 154.84 25.9561 157.709C38.7379 161.096 51.8297 163.584 64.9905 162.72C75.9119 162.029 86.6266 159.057 95.722 152.974C103.439 147.824 109.606 140.738 115.256 133.377C118.46 129.195 121.561 124.736 126.212 122.386C128.796 121.072 131.862 120.45 133.895 122.386C137.099 125.462 132.241 129.54 130.726 134.172C128.314 141.568 135.17 147.686 141.337 153.008C146.401 157.363 151.638 161.545 156.255 166.349C157.46 167.594 158.666 168.976 158.529 170.67C158.322 173.538 154.635 173.642 151.535 173.849C145.781 174.23 139.959 174.99 135.032 177.928C128.727 181.695 124.972 188.331 120.803 194.483C115.463 202.363 109.193 209.691 105.679 218.504C101.476 229.046 101.613 240.659 102.061 252.064C102.371 260.186 102.854 268.309 102.544 276.431C102.165 286.661 100.545 296.788 100.545 296.788" stroke="white" stroke-miterlimit="10" stroke-linecap="round" stroke-linejoin="round"/>
<path d="M-48.3232 152.904C-48.3232 152.904 -39.8135 152.87 -31.545 154.563C-19.59 156.983 -8.35858 162.409 1.35697 169.805C9.48771 175.992 16.4471 183.527 20.5124 192.893C25.7147 204.955 25.6458 218.435 24.1988 231.534C23.1308 241.142 21.0637 250.682 16.516 259.184C12.8296 266.062 7.24831 271.903 5.11227 279.369C2.5628 288.182 5.11227 297.479 5.11227 297.479" stroke="white" stroke-miterlimit="10" stroke-linecap="round" stroke-linejoin="round"/>
<path d="M-6.53261 295.717C-6.53261 295.717 -6.98049 286.627 -6.53261 277.571C-6.05027 267.514 -4.25876 257.49 0.254494 248.539C3.97534 241.177 9.83223 235.025 12.9674 227.387C16.3782 219.092 16.4815 209.898 14.4144 201.119C11.796 189.955 6.11139 179.656 -3.08738 172.882C-9.73667 168.008 -17.6952 165.554 -25.757 163.757C-36.9195 161.234 -48.3232 159.921 -48.3232 159.921" stroke="white" stroke-miterlimit="10" stroke-linecap="round" stroke-linejoin="round"/>
<path d="M-49.0122 166.004C-49.0122 166.004 -37.0917 167.317 -25.6535 170.704C-17.3505 173.158 -9.35761 176.753 -3.05284 182.628C1.63267 187.018 5.52578 192.79 3.83762 198.838C2.49398 203.642 -1.91592 206.856 -4.22422 211.315C-7.53164 217.709 -5.87793 225.382 -7.56609 232.467C-9.59878 240.831 -15.9725 247.433 -17.9018 255.797C-19.1421 261.292 -18.3497 267.133 -20.2101 272.421C-25.7225 288.113 -48.2887 284.138 -48.2887 284.138" stroke="white" stroke-miterlimit="10" stroke-linecap="round" stroke-linejoin="round"/>
<path d="M17.5154 298.965C17.5154 298.965 17.0676 287.283 20.7884 276.534C23.6135 268.412 28.6435 261.292 31.5031 253.17C34.4315 244.875 34.9483 235.993 34.9139 227.179C34.8794 217.709 34.1214 208.239 31.2619 199.218C29.1948 192.651 26.0941 186.395 21.9942 180.865C19.2381 177.133 15.7928 173.746 14.5525 169.287C14.1391 167.766 14.0013 166.211 14.5525 164.759C16.3785 159.851 22.8211 162.686 28.0923 165.381C37.2911 170.116 45.973 175.958 52.7601 183.803C57.2734 188.988 61.2354 195.313 67.8847 196.038C73.087 196.591 77.807 193.481 81.2177 189.402C84.6974 185.255 86.8335 180.14 90.1753 175.888C94.3096 170.635 99.9942 166.937 105.265 162.789C110.261 158.849 115.188 154.287 121.424 154.114C125.558 154.01 129.623 155.808 131.656 159.402C133.068 161.856 133.379 164.863 131.656 167.04C129.348 169.944 125.076 169.425 121.424 170.428C113.741 172.605 110.433 181.004 108.538 189.022C107.47 193.584 106.781 198.285 104.955 202.605C102.957 207.306 99.6153 211.246 97.2381 215.774C94.5508 220.958 93.2416 226.695 93.1727 232.536C93.0693 239.794 94.8953 246.88 95.6188 254.103C97.8927 276.292 90.0031 298.067 90.0031 298.067" stroke="white" stroke-miterlimit="10" stroke-linecap="round" stroke-linejoin="round"/>
<path d="M63.4058 179.656C62.3378 182.455 63.268 185.67 65.6797 187.398C68.677 189.541 72.7424 188.504 75.2919 185.773C77.738 183.181 78.5648 179.31 76.291 176.649C74.086 174.091 70.2618 174.091 67.1956 175.647C65.5074 176.545 64.0949 177.893 63.4058 179.656Z" stroke="white" stroke-miterlimit="10" stroke-linecap="round" stroke-linejoin="round"/>
<path d="M28.2642 297.376C28.2642 297.376 29.7801 289.599 33.2253 282.652C37.4629 274.15 44.3534 267.306 48.3498 258.7C51.6573 251.58 52.7597 243.7 52.3808 235.854C51.8984 225.382 48.7977 215.186 43.3887 206.2C40.9771 202.191 37.8763 198.078 39.3578 193.792C39.8401 192.375 40.7703 191.096 42.114 190.439C45.4903 188.746 48.6255 192.133 51.2094 195.209C55.5504 200.324 59.4435 205.75 64.0945 210.555C66.4028 212.939 69.0212 215.29 72.2253 214.91C76.0495 214.46 77.8755 210.382 80.0804 207.029C82.5954 203.158 85.8339 199.806 88.8313 196.28C93.0689 191.303 97.3066 185.497 98.9603 190.197C100.132 193.515 98.1334 196.799 96.273 199.909C92.9656 205.474 90.0027 211.211 87.0053 216.914C83.9391 222.755 80.6316 228.7 80.4594 235.267C80.3216 240.313 82.0097 245.152 83.3878 249.99C84.5937 254.172 85.5583 258.389 85.9029 262.709C87.3154 280.855 77.2898 297.583 77.2898 297.583" stroke="white" stroke-miterlimit="10" stroke-linecap="round" stroke-linejoin="round"/>
<path d="M38.1177 296.788C38.1177 296.788 44.009 289.806 49.3147 282.41C52.7254 277.606 55.8606 272.629 58.5479 267.41C62.6822 259.461 66.0585 250.785 64.4392 242.041C63.4746 236.891 60.615 231.292 64.4392 228.216C66.5064 226.557 69.4004 226.557 71.433 228.216C73.7758 230.082 74.1548 233.331 74.3615 236.373C74.7405 241.419 74.5682 246.5 75.2917 251.511C75.8774 255.728 77.0832 259.806 77.5311 264.057C78.0823 269.242 77.4967 274.495 75.9463 279.472C72.88 289.461 66.2308 297.825 66.2308 297.825" stroke="white" stroke-miterlimit="10" stroke-linecap="round" stroke-linejoin="round"/>
<path d="M48.8325 297.375C48.8325 297.375 54.3793 292.018 58.5481 285.59C61.4076 281.166 63.6126 276.327 65.3352 271.315C65.7486 270.071 66.1965 268.723 67.4023 268.447C68.8149 268.101 69.7451 269.622 70.0896 271.143C70.8131 274.53 68.367 277.502 66.541 280.544C61.821 288.32 59.9606 297.479 59.9606 297.479" stroke="white" stroke-miterlimit="10" stroke-linecap="round" stroke-linejoin="round"/>
</g>
</svg>
