<svg viewBox="0 0 87 30" fill="none" xmlns="http://www.w3.org/2000/svg">
<g clip-path="url(#clip0_132_4186)">
<path d="M26.8181 7.47912V8.31329H30.5166C31.124 8.31329 31.4385 7.92329 31.4385 7.53329C31.4385 7.14329 31.1348 6.78579 30.5166 6.78579H24.8115L25.3538 4.99829H30.5383C32.5231 4.99829 33.5535 6.22246 33.5535 7.42496C33.5535 8.06412 33.2064 8.71412 32.5123 9.15829C33.3474 9.62412 33.7704 10.3391 33.7704 11.0541C33.7704 12.235 32.7834 13.405 30.7552 13.405H24.8115V8.02079L26.8181 7.47912V7.47912ZM26.8181 11.6175H30.7335C31.3409 11.6175 31.6554 11.2275 31.6554 10.8375C31.6554 10.4475 31.3517 10.09 30.7335 10.09H26.8181V11.6175V11.6175Z" fill="#A6A272"/>
<path d="M36.8293 4.99829V13.405H34.8228V4.99829H36.8293Z" fill="#A6A272"/>
<path d="M40.4518 7.47912V8.96329H44.0419C44.6493 8.96329 44.9638 8.41079 44.9638 7.85829C44.9638 7.30579 44.6601 6.78579 44.0419 6.78579H38.4453L38.9876 4.99829H44.0636C46.0376 4.99829 47.0788 6.49329 47.0788 7.95579C47.0788 9.06079 46.4823 10.1658 45.235 10.5775L47.3283 13.405H44.9638L43.1308 10.7508H40.4518V13.405H38.4453V8.02079L40.4518 7.47912V7.47912Z" fill="#A6A272"/>
<path d="M50.2136 7.48996V11.6175H53.3698C54.4761 11.6175 55.0509 10.3716 55.0509 9.14746C55.0509 7.92329 54.5086 6.78579 53.3698 6.78579H48.207L48.7493 4.99829H53.6084C55.9512 4.99829 57.1659 7.15412 57.1659 9.27746C57.1659 11.4008 56.0054 13.405 53.6084 13.405H48.207V8.03162L50.2136 7.48996Z" fill="#A6A272"/>
<path d="M57.8271 7.55496C57.8271 6.26579 58.8467 4.99829 60.8424 4.99829H66.5691L66.0268 6.78579H60.8641C60.2458 6.78579 59.9421 7.17579 59.9421 7.55496C59.9421 7.93412 60.2567 8.31329 60.8641 8.31329H63.7708C65.734 8.31329 66.7535 9.58079 66.7535 10.87C66.7535 12.1591 65.7882 13.405 63.7708 13.405H57.8271L58.3695 11.6175H63.7491C64.3565 11.6175 64.671 11.26 64.671 10.87C64.671 10.48 64.3674 10.09 63.7491 10.09H60.8424C58.8141 10.09 57.8271 8.82246 57.8271 7.55496V7.55496Z" fill="#A6A272"/>
<path d="M32.7679 18.2458H34.8829L30.8807 26.3275L28.8742 26.8692L24.731 18.2458H26.8459L29.8395 24.5725L32.7679 18.2458Z" fill="#A6A272"/>
<path d="M37.6594 18.2458V26.6525H35.6528V18.2458H37.6594Z" fill="#A6A272"/>
<path d="M47.6269 18.2458L47.0845 20.0333H42.4641C41.3578 20.0333 40.783 21.2792 40.783 22.5034C40.783 23.7275 41.3253 24.865 42.4641 24.865H47.6269L47.0845 26.6525H42.2255C39.8827 26.6525 38.668 24.4967 38.668 22.3734C38.668 20.25 39.8285 18.2458 42.2255 18.2458H47.6269V18.2458Z" fill="#A6A272"/>
<path d="M47.832 18.2458H56.6282L56.0859 20.0333H52.9405V26.6525H50.934V20.0333H47.832V18.2458V18.2458Z" fill="#A6A272"/>
<path d="M61.8563 26.8375C59.1664 26.8375 56.9321 25.4183 56.9321 22.45C56.9321 19.4817 59.1664 18.0625 61.8563 18.0625C64.5461 18.0625 66.9214 19.395 66.9214 22.45C66.9214 25.505 64.6329 26.8375 61.8563 26.8375ZM61.9539 25.0175C63.8303 25.0175 64.8064 24.2592 64.8064 22.45C64.8064 20.6408 63.8303 19.8825 61.9539 19.8825C60.0775 19.8825 59.0471 20.5867 59.0471 22.45C59.0471 24.3133 60.0124 25.0175 61.9539 25.0175Z" fill="#A6A272"/>
<path d="M69.9255 20.7267V22.2108H73.5155C74.1229 22.2108 74.4375 21.6584 74.4375 21.1059C74.4375 20.5534 74.1338 20.0333 73.5155 20.0333H67.9189L68.4613 18.2458H73.5372C75.5112 18.2458 76.5524 19.7409 76.5524 21.2034C76.5524 22.3084 75.9559 23.4133 74.7086 23.825L76.8019 26.6525H74.4375L72.6045 23.9984H69.9255V26.6525H67.9189V21.2684L69.9255 20.7267V20.7267Z" fill="#A6A272"/>
<path d="M82.7565 26.6534H80.75V23.75L76.6719 18.2467H79.0038L81.7695 22.19L84.5353 18.2467H86.8672L82.7565 23.7934V26.6534V26.6534Z" fill="#A6A272"/>
<path d="M74.3818 13.7951C72.0024 13.7951 70.0259 12.5392 70.0259 9.9134C70.0259 7.28757 72.0024 6.03174 74.3818 6.03174C76.7613 6.03174 78.863 7.21091 78.863 9.9134C78.863 12.6159 76.8381 13.7951 74.3818 13.7951ZM74.4686 12.1851C76.1289 12.1851 76.9924 11.5142 76.9924 9.9134C76.9924 8.31257 76.1289 7.64174 74.4686 7.64174C72.8083 7.64174 71.8972 8.26507 71.8972 9.9134C71.8972 11.5617 72.7516 12.1851 74.4686 12.1851Z" fill="#A6A272"/>
<path d="M81.5303 13.6317H79.7549V6.19507H86.8649L86.3852 7.77674H81.5303V9.1284H86.0498V10.7101H81.5303V13.6334V13.6317Z" fill="#A6A272"/>
<path d="M8.89297 14.8867L10.4056 12.9967L0 0V3.77917L5.33712 10.4458L8.89297 14.8867Z" fill="#A6A272"/>
<path d="M6.92482 17.3433L8.43827 15.4541L5.62579 11.94L0 4.91248V8.69164L3.77778 13.4116L6.92482 17.3433Z" fill="#A6A272"/>
<path d="M6.47179 17.9116L0 9.82495V13.6033L5.0618 19.93L6.47179 17.9116Z" fill="#A6A272"/>
<path d="M12.1693 27.3742L11.9991 27.5467L11.7488 26.5151L12.3487 25.7242L12.2769 25.6109C11.5377 24.4467 10.1069 24.1942 10.046 24.1834L9.74561 24.1326L10.7651 27.8126L11.5627 28.2584L12.5381 27.5917L12.2394 26.8351L12.1693 27.3742V27.3742Z" fill="#A6A272"/>
<path d="M6.31678 19.3167C5.41655 20.44 4.951 21.8017 4.93182 23.1667C4.91429 24.3717 5.24385 25.58 5.92715 26.6317C5.9672 26.3725 6.03395 26.1225 6.12489 25.8842C6.15826 25.7967 6.19414 25.7108 6.23335 25.6267C6.38853 25.295 6.5896 24.99 6.82988 24.72C6.86576 24.6792 6.90247 24.64 6.94085 24.6008C7.61998 23.9025 8.5711 23.4683 9.62317 23.4683C9.81673 23.4683 10.007 23.4833 10.1922 23.5117C10.3157 23.5308 10.4375 23.5558 10.5576 23.5858C10.6327 23.605 10.7061 23.6275 10.7787 23.6508C10.8805 23.6842 10.9806 23.72 11.0782 23.7617C11.19 23.8092 11.2993 23.8617 11.4053 23.9192C12.5708 24.5517 13.3617 25.785 13.3617 27.2033C13.3617 27.2517 13.3609 27.3 13.3592 27.3475C13.3592 27.3517 13.3592 27.355 13.3592 27.3592C13.3559 27.4492 13.3484 27.5383 13.3384 27.6258C13.3367 27.6367 13.3359 27.6483 13.3342 27.6592C13.3192 27.785 13.2967 27.9092 13.2691 28.0317C13.194 28.3642 13.0747 28.6792 12.9171 28.9717C12.8511 29.0933 12.7794 29.2108 12.7018 29.3233C12.7477 29.3025 12.7919 29.2808 12.837 29.2592L12.7519 29.3133L13.3309 30.0008L14.4806 29.7258L14.4722 28.9125L14.2144 29.3908L13.9933 29.4908L14.1235 28.4792C14.2845 28.3583 14.438 28.2342 14.584 28.105C14.6366 28.0583 14.6883 28.0117 14.7384 27.965C15.0921 27.6342 15.3991 27.2833 15.6661 26.9217C15.742 26.8183 15.8155 26.7142 15.8855 26.61C15.9556 26.5058 16.0224 26.4008 16.0858 26.295C16.2134 26.0842 16.3286 25.8725 16.4329 25.6617C16.4846 25.5567 16.5346 25.4517 16.5814 25.3467C16.6047 25.2942 16.6273 25.2425 16.6498 25.19C16.694 25.0858 16.7357 24.9825 16.7749 24.8808C16.795 24.83 16.8141 24.7783 16.8325 24.7283C16.8884 24.5767 16.9385 24.4267 16.9843 24.28C17.122 23.8408 17.2163 23.4308 17.2822 23.075C17.2972 22.9958 17.3097 22.9192 17.3222 22.8458C17.3398 22.735 17.3548 22.6317 17.3673 22.535C17.384 22.4067 17.3965 22.2908 17.4048 22.1908C17.4299 21.915 17.4299 21.7558 17.4299 21.7558H21.7933L19.9804 19.4867L18.5337 17.6758L21.7933 13.6075V9.82833L18.7698 13.6025H17.8612L21.7933 8.69V4.915L18.6213 8.87417L17.0352 10.8533H16.1267L21.7933 3.78167V0L6.31678 19.3167ZM5.76029 23.4617L6.06815 22.0308L6.32012 22.9083L5.76029 23.4617V23.4617Z" fill="#A6A272"/>
</g>
<defs>
<clipPath id="clip0_132_4186">
<rect width="87" height="30" fill="white"/>
</clipPath>
</defs>
</svg>
