<svg width="144" height="50" viewBox="0 0 144 50" fill="none" xmlns="http://www.w3.org/2000/svg">
<g clip-path="url(#clip0_24_1289)">
<path d="M44.389 12.4653V13.8556H50.5107C51.516 13.8556 52.0366 13.2056 52.0366 12.5556C52.0366 11.9056 51.534 11.3097 50.5107 11.3097H41.0679L41.9655 8.33057H50.5466C53.8319 8.33057 55.5373 10.3708 55.5373 12.375C55.5373 13.4403 54.9629 14.5236 53.8139 15.2639C55.1962 16.0403 55.8964 17.232 55.8964 18.4236C55.8964 20.3917 54.2627 22.3417 50.9057 22.3417H41.0679V13.3681L44.389 12.4653V12.4653ZM44.389 19.3625H50.8698C51.8751 19.3625 52.3957 18.7125 52.3957 18.0625C52.3957 17.4125 51.893 16.8167 50.8698 16.8167H44.389V19.3625V19.3625Z" fill="white"/>
<path d="M60.9588 8.33057V22.3417H57.6377V8.33057H60.9588Z" fill="white"/>
<path d="M66.9549 12.4653V14.9389H72.8971C73.9024 14.9389 74.423 14.0181 74.423 13.0972C74.423 12.1764 73.9204 11.3097 72.8971 11.3097H63.6338L64.5314 8.33057H72.933C76.2003 8.33057 77.9237 10.8222 77.9237 13.2597C77.9237 15.1014 76.9364 16.9431 74.8719 17.6292L78.3366 22.3417H74.423L71.3891 17.9181H66.9549V22.3417H63.6338V13.3681L66.9549 12.4653V12.4653Z" fill="white"/>
<path d="M83.1117 12.4833V19.3625H88.3358C90.1669 19.3625 91.1184 17.2861 91.1184 15.2458C91.1184 13.2056 90.2207 11.3097 88.3358 11.3097H79.7905L80.6881 8.33057H88.7307C92.6084 8.33057 94.619 11.9236 94.619 15.4625C94.619 19.0014 92.6981 22.3417 88.7307 22.3417H79.7905V13.3861L83.1117 12.4833Z" fill="white"/>
<path d="M95.7139 12.5917C95.7139 10.4431 97.4014 8.33057 100.705 8.33057H110.183L109.286 11.3097H100.74C99.7172 11.3097 99.2145 11.9597 99.2145 12.5917C99.2145 13.2236 99.7352 13.8556 100.74 13.8556H105.552C108.801 13.8556 110.489 15.9681 110.489 18.1167C110.489 20.2653 108.891 22.3417 105.552 22.3417H95.7139L96.6115 19.3625H105.516C106.521 19.3625 107.042 18.7667 107.042 18.1167C107.042 17.4667 106.539 16.8167 105.516 16.8167H100.705C97.3475 16.8167 95.7139 14.7042 95.7139 12.5917V12.5917Z" fill="white"/>
<path d="M54.2362 30.4097H57.7368L51.1125 43.8791L47.7913 44.7819L40.9336 30.4097H44.4343L49.3891 40.9541L54.2362 30.4097Z" fill="white"/>
<path d="M62.3329 30.4097V44.4208H59.0117V30.4097H62.3329Z" fill="white"/>
<path d="M78.8309 30.4097L77.9333 33.3888H70.2857C68.4546 33.3888 67.5031 35.4652 67.5031 37.5055C67.5031 39.5458 68.4007 41.4416 70.2857 41.4416H78.8309L77.9333 44.4208H69.8908C66.0131 44.4208 64.0024 40.8277 64.0024 37.2888C64.0024 33.7499 65.9233 30.4097 69.8908 30.4097H78.8309V30.4097Z" fill="white"/>
<path d="M79.1704 30.4097H93.7296L92.832 33.3888H87.6259V44.4208H84.3047V33.3888H79.1704V30.4097V30.4097Z" fill="white"/>
<path d="M102.383 44.7292C97.9306 44.7292 94.2324 42.364 94.2324 37.4167C94.2324 32.4695 97.9306 30.1042 102.383 30.1042C106.835 30.1042 110.766 32.3251 110.766 37.4167C110.766 42.5084 106.978 44.7292 102.383 44.7292ZM102.544 41.6959C105.65 41.6959 107.266 40.432 107.266 37.4167C107.266 34.4015 105.65 33.1376 102.544 33.1376C99.4386 33.1376 97.7331 34.3112 97.7331 37.4167C97.7331 40.5223 99.3308 41.6959 102.544 41.6959Z" fill="white"/>
<path d="M115.739 34.5444V37.018H121.681C122.687 37.018 123.207 36.0972 123.207 35.1763C123.207 34.2555 122.705 33.3888 121.681 33.3888H112.418L113.316 30.4097H121.717C124.984 30.4097 126.708 32.9013 126.708 35.3388C126.708 37.1805 125.721 39.0222 123.656 39.7083L127.121 44.4208H123.207L120.173 39.9972H115.739V44.4208H112.418V35.4472L115.739 34.5444V34.5444Z" fill="white"/>
<path d="M136.976 44.4222H133.655V39.5834L126.905 30.4111H130.765L135.343 36.9834L139.921 30.4111H143.78L136.976 39.6556V44.4222V44.4222Z" fill="white"/>
<path d="M123.115 22.9916C119.176 22.9916 115.905 20.8986 115.905 16.5222C115.905 12.1458 119.176 10.0527 123.115 10.0527C127.053 10.0527 130.532 12.018 130.532 16.5222C130.532 21.0263 127.18 22.9916 123.115 22.9916ZM123.258 20.3083C126.006 20.3083 127.436 19.1902 127.436 16.5222C127.436 13.8541 126.006 12.7361 123.258 12.7361C120.51 12.7361 119.002 13.775 119.002 16.5222C119.002 19.2694 120.416 20.3083 123.258 20.3083Z" fill="white"/>
<path d="M134.946 22.7194H132.008V10.325H143.776L142.982 12.9611H134.946V15.2138H142.427V17.85H134.946V22.7222V22.7194Z" fill="white"/>
<path d="M14.7194 24.8111L17.223 21.6611L0 0V6.29861L8.83385 17.4097L14.7194 24.8111Z" fill="white"/>
<path d="M11.4618 28.9056L13.9668 25.7569L9.31165 19.9L0 8.1875V14.4861L6.25288 22.3528L11.4618 28.9056Z" fill="white"/>
<path d="M10.7119 29.8528L0 16.375V22.6722L8.37814 33.2167L10.7119 29.8528Z" fill="white"/>
<path d="M20.1425 45.6237L19.8608 45.9112L19.4465 44.1918L20.4394 42.8737L20.3206 42.6848C19.0971 40.7446 16.7288 40.3237 16.628 40.3057L16.1309 40.2209L17.8184 46.3543L19.1385 47.0973L20.7529 45.9862L20.2585 44.7251L20.1425 45.6237V45.6237Z" fill="white"/>
<path d="M10.4551 32.1944C8.96504 34.0667 8.19448 36.3361 8.16272 38.6111C8.13372 40.6194 8.67919 42.6333 9.81018 44.3861C9.87646 43.9542 9.98694 43.5375 10.1375 43.1403C10.1927 42.9944 10.2521 42.8514 10.317 42.7111C10.5738 42.1583 10.9066 41.65 11.3043 41.2C11.3637 41.1319 11.4245 41.0667 11.488 41.0014C12.6121 39.8375 14.1864 39.1139 15.9277 39.1139C16.2481 39.1139 16.563 39.1389 16.8695 39.1861C17.0739 39.2181 17.2755 39.2597 17.4744 39.3097C17.5987 39.3417 17.7202 39.3792 17.8403 39.4181C18.0088 39.4736 18.1745 39.5333 18.3361 39.6028C18.5211 39.6819 18.702 39.7694 18.8774 39.8653C20.8066 40.9194 22.1157 42.975 22.1157 45.3389C22.1157 45.4194 22.1143 45.5 22.1116 45.5792C22.1116 45.5861 22.1116 45.5917 22.1116 45.5986C22.106 45.7486 22.0936 45.8972 22.077 46.0431C22.0743 46.0611 22.0729 46.0806 22.0701 46.0986C22.0453 46.3083 22.008 46.5153 21.9624 46.7194C21.8381 47.2736 21.6407 47.7986 21.3797 48.2861C21.2706 48.4889 21.1518 48.6847 21.0234 48.8722C21.0993 48.8375 21.1725 48.8014 21.2471 48.7653L21.1062 48.8556L22.0646 50.0014L23.9675 49.5431L23.9537 48.1875L23.527 48.9847L23.1611 49.1514L23.3765 47.4653C23.643 47.2639 23.8971 47.0569 24.1388 46.8417C24.2258 46.7639 24.3114 46.6861 24.3942 46.6083C24.9798 46.0569 25.488 45.4722 25.9299 44.8694C26.0555 44.6972 26.177 44.5236 26.293 44.35C26.409 44.1764 26.5195 44.0014 26.6245 43.825C26.8357 43.4736 27.0263 43.1208 27.1989 42.7694C27.2845 42.5944 27.3674 42.4194 27.4447 42.2444C27.4834 42.1569 27.5207 42.0708 27.558 41.9833C27.6312 41.8097 27.7002 41.6375 27.7651 41.4681C27.7983 41.3833 27.83 41.2972 27.8604 41.2139C27.9529 40.9611 28.0358 40.7111 28.1117 40.4667C28.3396 39.7347 28.4956 39.0514 28.6047 38.4583C28.6296 38.3264 28.6503 38.1986 28.671 38.0764C28.7 37.8917 28.7249 37.7194 28.7456 37.5583C28.7732 37.3444 28.7939 37.1514 28.8077 36.9847C28.8491 36.525 28.8492 36.2597 28.8492 36.2597H36.0714L33.0707 32.4778L30.6761 29.4597L36.0714 22.6792V16.3806L31.0669 22.6708H29.5631L36.0714 14.4833V8.19167L30.8211 14.7903L28.196 18.0889H26.6921L36.0714 6.30278V0L10.4551 32.1944ZM9.53399 39.1028L10.0436 36.7181L10.4606 38.1806L9.53399 39.1028V39.1028Z" fill="white"/>
</g>
<defs>
<clipPath id="clip0_24_1289">
<rect width="144" height="50" fill="white"/>
</clipPath>
</defs>
</svg>
