<svg width="30" height="30" viewBox="0 0 30 30" fill="none" xmlns="http://www.w3.org/2000/svg">
<g clip-path="url(#clip0_132_4893)">
<path fill-rule="evenodd" clip-rule="evenodd" d="M24.0583 2.48647V2.23518L24.0593 2.23371C24.0438 2.23239 24.0329 2.23106 24.0251 2.23011C24.0127 2.22859 24.0079 2.228 24.004 2.2298L23.978 2.24119C23.9495 2.25357 23.9212 2.26587 23.8945 2.28162C21.5943 3.65151 20.0939 5.62371 19.4324 8.22365C19.2758 8.83864 19.2091 9.46698 19.1425 10.0953C19.1199 10.3086 19.0972 10.5219 19.0711 10.7346C18.9874 11.4157 18.906 12.097 18.8246 12.7783L18.8246 12.7783L18.8246 12.7784L18.8246 12.7784L18.8245 12.7784L18.8245 12.7784L18.8245 12.7784L18.8245 12.7784L18.8245 12.7785C18.7167 13.6812 18.6088 14.5838 18.4957 15.4857C18.4683 15.7047 18.5284 15.7301 18.7284 15.7174C19.4862 15.6695 20.1506 16.2146 20.2689 16.9597C20.3916 17.7307 19.9428 18.4474 19.1987 18.6493C19.0433 18.6916 18.8852 18.7234 18.727 18.7551L18.7269 18.7552L18.7268 18.7552L18.7267 18.7552L18.7266 18.7552L18.7265 18.7552L18.7264 18.7553L18.7263 18.7553L18.7262 18.7553C18.5976 18.7811 18.4689 18.807 18.3417 18.8385C18.195 18.8747 18.1451 18.798 18.0855 18.6889C17.5643 17.74 17.1116 16.7622 16.7606 15.7355C16.2986 14.3842 15.9172 13.0158 15.8185 11.5853C15.7301 10.3072 15.8133 9.03192 15.8964 7.75738C15.9103 7.54449 15.9242 7.33161 15.9373 7.11875C15.9578 6.78294 15.9803 6.44723 16.0028 6.1115L16.0028 6.11137L16.0028 6.11123L16.0028 6.1111L16.0028 6.11097L16.0028 6.11083L16.0028 6.1107L16.0028 6.11056L16.0028 6.11043C16.0733 5.05692 16.1438 4.00337 16.1553 2.94701C16.1666 1.89149 15.8248 0.954275 15.1844 0.117287C15.0524 -0.0552928 14.9888 -0.0244903 14.8734 0.1256C14.2261 0.968455 13.8903 1.91593 13.9069 2.98074C13.9257 4.16332 14.0061 5.34263 14.0865 6.52188C14.1379 7.27662 14.1894 8.03133 14.2247 8.78686L14.2304 8.90942V8.90943C14.288 10.13 14.3456 11.3521 14.1318 12.5645C13.7739 14.5954 13.1379 16.5334 12.1537 18.3516L12.145 18.3677C11.8815 18.8547 11.8808 18.856 11.3314 18.75C11.2826 18.7406 11.2336 18.7322 11.1845 18.7237L11.1844 18.7237L11.1844 18.7237L11.1844 18.7237L11.1843 18.7236L11.1843 18.7236L11.1842 18.7236L11.1842 18.7236L11.1842 18.7236C11.1212 18.7127 11.0581 18.7018 10.9955 18.6889C10.1649 18.5164 9.65253 17.7615 9.79822 16.927C9.92485 16.2019 10.5937 15.6671 11.3436 15.7199C11.5641 15.7355 11.5964 15.6759 11.5661 15.4779C11.5221 15.1912 11.4894 14.9026 11.4566 14.614C11.4435 14.4981 11.4303 14.3822 11.4165 14.2664C11.3506 13.7183 11.2901 13.1693 11.2296 12.6204L11.2296 12.6203C11.0947 11.3968 10.9598 10.1734 10.7657 8.95944C10.2974 6.02851 8.72168 3.81871 6.18236 2.2914C6.17246 2.28546 6.16253 2.27796 6.15235 2.27025L6.15235 2.27025C6.11224 2.23991 6.06805 2.20648 6.00489 2.25327V2.34763L6.0049 3.9895C6.00493 10.579 6.00497 17.1682 6 23.7573C6 23.9499 6.06013 23.9812 6.23467 23.9802C7.0644 23.9763 7.89398 23.976 8.72358 23.9758C9.42545 23.9756 10.1273 23.9754 10.8293 23.9729C10.9877 23.9724 11.0464 24.0125 11.0816 24.1778C11.4712 26.0057 12.3806 27.5325 13.794 28.7533C13.8861 28.8329 13.9806 28.9099 14.0751 28.9869C14.4329 29.2783 14.7904 29.5696 15.0182 30C15.0641 29.9409 15.1076 29.8838 15.1499 29.8285C15.244 29.7051 15.3318 29.5901 15.4249 29.4798C15.5618 29.3175 15.7285 29.1865 15.8967 29.0564C17.5105 27.8083 18.5416 26.1866 18.9772 24.1939C19.0198 24.0003 19.098 23.9729 19.2662 23.9734C19.8334 23.9752 20.4006 23.9751 20.9679 23.975H20.9685C21.9 23.9748 22.8315 23.9747 23.763 23.9832C24.0153 23.9856 24.0642 23.9172 24.0642 23.6761C24.0579 17.6217 24.0581 11.5676 24.0582 5.5135L24.0583 2.48647ZM22.5537 7.71981V5.36188L22.5532 5.36236C22.5334 5.37758 22.518 5.38857 22.5057 5.39734C22.4864 5.41111 22.4748 5.41938 22.4662 5.42983C21.5387 6.56456 20.9467 7.85377 20.755 9.30726C20.6253 10.2924 20.509 11.279 20.3927 12.2656L20.3927 12.2659C20.3117 12.9523 20.2308 13.6388 20.1454 14.3248C20.1273 14.4729 20.1615 14.5384 20.2852 14.6088C20.8391 14.9237 21.3021 15.3603 21.5016 15.9601C21.6536 16.4163 21.8966 16.4965 22.3087 16.4613C22.5097 16.4441 22.559 16.4011 22.5586 16.2007C22.5527 13.94 22.5531 11.679 22.5535 9.4182V9.41617L22.5537 7.71981ZM7.50891 5.32883C8.09119 6.01573 8.50773 6.72414 8.82502 7.49463C9.15649 8.30033 9.30511 9.14612 9.40387 10.0056C9.57009 11.4532 9.74218 12.8999 9.91916 14.346C9.93432 14.4707 9.91281 14.5308 9.80085 14.5948C9.12226 14.9821 8.65537 15.5482 8.41581 16.2933C8.37719 16.4131 8.32683 16.4629 8.19679 16.4536C8.12193 16.4484 8.03938 16.4549 7.95769 16.4614C7.80092 16.4738 7.64731 16.4859 7.55731 16.4145C7.45409 16.3326 7.47474 16.1581 7.49507 15.9863C7.50324 15.9173 7.51136 15.8487 7.51136 15.7868C7.50856 13.0274 7.5087 10.2676 7.50885 7.50807L7.50891 5.66763V5.32883ZM7.5081 19.6596C7.50777 19.8396 7.50743 20.0196 7.50743 20.1996L7.50694 20.1991C7.50694 20.3839 7.5073 20.5688 7.50765 20.7536C7.50862 21.2528 7.50958 21.7519 7.50352 22.251C7.50156 22.4133 7.53187 22.4759 7.71276 22.4744C8.70571 22.4656 9.69914 22.4666 10.6926 22.4739C10.8529 22.4749 10.8964 22.4275 10.8994 22.27C10.9106 21.6912 10.9688 21.1143 11.1272 20.557C11.1966 20.313 11.1428 20.2421 10.9023 20.2006C9.84239 20.0187 8.98927 19.4921 8.5786 18.4821C8.38304 18.001 8.13419 17.9018 7.69223 17.9541C7.54703 17.9712 7.50156 17.9966 7.50352 18.1477C7.51 18.6517 7.50905 19.1557 7.5081 19.6596ZM22.5538 20.2134C22.5538 20.3958 22.5535 20.5783 22.5532 20.7608V20.7613C22.5524 21.2626 22.5517 21.7639 22.5567 22.2653C22.5581 22.4173 22.5269 22.476 22.3587 22.4745C21.3574 22.4662 20.3557 22.4672 19.3544 22.4745C19.2009 22.4755 19.1647 22.4266 19.1613 22.2814C19.1481 21.6698 19.0787 21.0631 18.9134 20.473C18.8621 20.2906 18.9257 20.2476 19.0767 20.2197C19.526 20.1366 19.9631 20.0183 20.3562 19.7709C20.9712 19.3837 21.4073 18.8523 21.6302 18.1605C21.6835 17.9958 21.7539 17.9439 21.9177 17.9586C21.9888 17.9648 22.0685 17.9586 22.147 17.9526C22.2908 17.9415 22.4306 17.9306 22.5068 17.9967C22.6043 18.0811 22.5853 18.2436 22.5664 18.4052C22.5585 18.4729 22.5506 18.5404 22.5513 18.602C22.5562 18.9881 22.5553 19.3742 22.5544 19.7602V19.7606C22.5541 19.9117 22.5538 20.0628 22.5538 20.2139V20.2134ZM15.0522 15.5671L15.052 15.5665L15.0525 15.5669L15.0522 15.5671ZM15.0522 15.5671C15.4423 16.8175 15.9556 17.9906 16.6033 19.1046C16.6629 19.2077 16.6614 19.2488 16.5368 19.2933C15.9907 19.4874 15.5169 19.7959 15.1351 20.2359C15.0584 20.3244 15.0114 20.3342 14.9293 20.2393C14.5475 19.8008 14.0776 19.4864 13.5296 19.2943C13.4147 19.2542 13.3907 19.2214 13.4558 19.109C14.0972 18.0007 14.6125 16.8366 14.9938 15.6139C14.9959 15.6066 15.0039 15.6012 15.0184 15.5914C15.0272 15.5854 15.0384 15.5778 15.0522 15.5671ZM14.2818 27.1424C13.5817 26.4052 13.1045 25.6117 12.7857 24.7214C12.7397 24.5926 12.7013 24.461 12.6629 24.3295C12.6422 24.2584 12.6214 24.1873 12.5995 24.1167C12.5677 24.015 12.5907 23.9715 12.709 23.9729C13.1891 23.9783 13.6697 23.9778 14.1498 23.9729C14.2637 23.9719 14.2832 24.0233 14.2832 24.1211C14.2816 24.9387 14.2817 25.7568 14.2817 26.6165L14.2818 27.1424ZM15.778 26.4412L15.7779 27.1476C16.6315 26.2353 17.1718 25.2335 17.4656 24.0944C17.4935 23.9854 17.4387 23.9751 17.3512 23.9751C16.8706 23.9776 16.39 23.979 15.9099 23.9741C15.7965 23.9727 15.7765 24.024 15.7765 24.1218C15.7784 24.8831 15.7782 25.6444 15.778 26.4412ZM13.1075 22.4699H13.1075H13.1074C12.9296 22.4686 12.7518 22.4673 12.5744 22.4735C12.4405 22.4784 12.3862 22.4437 12.395 22.2985C12.4258 21.7861 12.4908 21.2801 12.616 20.7809C12.6527 20.6352 12.7187 20.6264 12.8384 20.6499C13.5855 20.7961 14.2499 21.5803 14.2734 22.3351C14.2768 22.4515 14.2357 22.473 14.137 22.4715C13.9475 22.4691 13.7577 22.4696 13.5681 22.4701H13.5681C13.4891 22.4703 13.4102 22.4705 13.3313 22.4705V22.471C13.2567 22.471 13.1821 22.4705 13.1075 22.4699ZM16.4845 22.4702C16.56 22.4705 16.6354 22.4709 16.7109 22.4709C16.7876 22.4709 16.8643 22.4703 16.9409 22.4696C17.1248 22.4681 17.3086 22.4666 17.4922 22.4738C17.6345 22.4792 17.6736 22.4298 17.6653 22.2925C17.6345 21.7884 17.567 21.2912 17.4506 20.7984C17.4091 20.6214 17.324 20.6253 17.1925 20.6566C16.443 20.8341 15.8407 21.5513 15.7894 22.3169C15.7816 22.4377 15.8114 22.4758 15.9302 22.4729C16.1148 22.4683 16.2996 22.4693 16.4845 22.4702Z" fill="#FEDE00"/>
</g>
<defs>
<clipPath id="clip0_132_4893">
<rect width="30" height="30" fill="white"/>
</clipPath>
</defs>
</svg>
