<svg width="30" height="30" viewBox="0 0 30 30" fill="none" xmlns="http://www.w3.org/2000/svg">
<g clip-path="url(#clip0_132_4870)">
<path d="M0 9.71189C0.250951 9.7718 0.502048 9.8304 0.75256 9.89208C2.45531 10.3106 4.15805 10.7296 5.86065 11.1487C7.12097 11.459 8.38144 11.7693 9.64132 12.0818C9.70373 12.0973 9.73142 12.086 9.76424 12.0286C10.3155 11.0639 11.075 10.3064 12.041 9.75701C12.0867 9.73108 12.0982 9.70866 12.0854 9.65622C11.6274 7.80258 11.1713 5.9485 10.715 4.09442C10.3814 2.73932 10.0479 1.38436 9.71443 0.0292507C9.71208 0.0198749 9.71267 0.00991301 9.71194 0.000244141C13.2373 0.000244141 16.7627 0.000244141 20.2881 0.000244141C20.2172 0.29368 20.1474 0.587408 20.0753 0.880404C19.5654 2.95452 19.0551 5.02864 18.5447 7.10276C18.337 7.94703 18.13 8.79144 17.9193 9.63512C17.9021 9.70412 17.9174 9.73357 17.9781 9.76829C18.9381 10.3177 19.6914 11.0749 20.2397 12.0352C20.2692 12.0869 20.2935 12.0991 20.3513 12.0847C21.7059 11.7492 23.061 11.416 24.4161 11.0824C26.2322 10.6354 28.0485 10.1884 29.8648 9.74177C29.9096 9.73078 29.9549 9.722 30 9.71218V20.2883C29.6924 20.214 29.3844 20.1409 29.0771 20.0653C27.2561 19.6175 25.4351 19.1691 23.6142 18.7208C22.5287 18.4536 21.4432 18.1866 20.3584 17.9172C20.296 17.9017 20.2684 17.9136 20.2355 17.9711C19.686 18.9341 18.928 19.69 17.9655 20.2398C17.9145 20.269 17.9012 20.2927 17.9155 20.351C18.5253 22.8195 19.1329 25.2884 19.7409 27.7574C19.922 28.4928 20.1029 29.2283 20.2837 29.9639C20.2866 29.9756 20.2866 29.9881 20.2879 30.0001H9.71194C9.78284 29.7067 9.85257 29.4129 9.92465 29.1198C10.4346 27.0457 10.945 24.9716 11.4553 22.8976C11.663 22.0533 11.8701 21.2089 12.0804 20.3652C12.0974 20.2972 12.0843 20.2671 12.0225 20.2316C11.0625 19.6824 10.3085 18.9257 9.76043 17.9651C9.73054 17.9128 9.70549 17.9024 9.6485 17.9165C7.12566 18.539 4.60238 19.1597 2.0791 19.7807C1.40037 19.9477 0.721942 20.1153 0.0432169 20.2824C0.0291531 20.286 0.0143568 20.2863 0 20.2882C0 16.7628 0 13.2374 0 9.71203L0 9.71189Z" fill="#806600"/>
<path d="M0.657854 14.9946C0.657854 13.5444 0.657561 12.0944 0.658294 10.6442C0.658294 10.5351 0.636758 10.5399 0.753957 10.5683C1.34552 10.712 1.9362 10.8591 2.52731 11.0048C3.46358 11.2355 4.3997 11.4662 5.33597 11.6967C6.24866 11.9214 7.16134 12.1458 8.07402 12.3701C8.50428 12.4759 8.93469 12.5817 9.3654 12.6857C9.41565 12.6978 9.43088 12.7106 9.40862 12.7659C9.21011 13.2589 9.08149 13.7695 9.02069 14.298C8.90437 15.3084 9.0327 16.2859 9.4073 17.2308C9.43044 17.2891 9.41506 17.302 9.36188 17.315C8.34255 17.5643 7.32336 17.8151 6.30432 18.066C5.38695 18.2917 4.46973 18.5182 3.55236 18.7439C2.62312 18.9726 1.69374 19.2007 0.764505 19.4291C0.693307 19.4466 0.657708 19.4185 0.657708 19.3449C0.657708 17.8947 0.657708 16.4447 0.657708 14.9945L0.657854 14.9946Z" fill="#D40663"/>
<path d="M14.9983 29.3421C13.5434 29.3421 12.0884 29.3421 10.6335 29.3421C10.5748 29.3421 10.5525 29.3136 10.5666 29.2566C10.7973 28.3204 11.0282 27.3843 11.2586 26.448C11.4826 25.5376 11.7059 24.6273 11.9299 23.717C12.1603 22.7807 12.3914 21.8446 12.6218 20.9083C12.6451 20.8138 12.6677 20.719 12.6887 20.624C12.6978 20.5832 12.7104 20.568 12.7564 20.5869C13.1955 20.7678 13.6515 20.8893 14.1209 20.9574C14.5978 21.0265 15.0764 21.0399 15.5573 20.9945C16.0301 20.9499 16.4908 20.8535 16.9403 20.7013C17.0394 20.6678 17.1386 20.6329 17.2344 20.5909C17.29 20.5664 17.3026 20.585 17.3147 20.6347C17.4649 21.2497 17.6166 21.8642 17.7677 22.4791C18.0088 23.4603 18.2495 24.4417 18.4909 25.4229C18.7946 26.6572 19.0988 27.8913 19.4026 29.1254C19.4061 29.1396 19.4088 29.154 19.4112 29.1683C19.4211 29.2246 19.4697 29.2977 19.4372 29.3305C19.4074 29.3605 19.3267 29.3416 19.2684 29.3416C17.8452 29.3419 16.422 29.3419 14.9987 29.3419L14.9983 29.3421Z" fill="#D40663"/>
<path d="M14.9998 0.657959C16.4547 0.657959 17.9097 0.657959 19.3645 0.657959C19.4548 0.657959 19.4545 0.657959 19.434 0.741463C19.1246 1.9968 18.8149 3.25214 18.5059 4.50749C18.2825 5.41533 18.06 6.32362 17.837 7.23162C17.6628 7.94096 17.4875 8.65016 17.3153 9.35994C17.3002 9.42205 17.2828 9.42835 17.2252 9.40521C16.7368 9.2089 16.2307 9.08159 15.7072 9.02094C15.4158 8.98725 15.124 8.97216 14.8313 8.98066C14.1209 9.00146 13.4342 9.13975 12.7742 9.40521C12.716 9.4285 12.699 9.42161 12.6841 9.35979C12.44 8.35921 12.1936 7.35907 11.9474 6.35907C11.6435 5.12497 11.3392 3.89088 11.0356 2.65678C10.8791 2.02083 10.7237 1.38459 10.5676 0.748495C10.5528 0.688138 10.5777 0.657959 10.6422 0.657959C12.0947 0.657959 13.5471 0.657959 14.9996 0.657959H14.9998Z" fill="#D40663"/>
<path d="M29.342 15.0016C29.342 16.4565 29.342 17.9113 29.342 19.3664C29.342 19.4548 29.342 19.4544 29.2568 19.4334C27.9636 19.1148 26.6706 18.796 25.3775 18.4777C24.4484 18.249 23.519 18.0209 22.5898 17.7927C21.942 17.6334 21.2943 17.4736 20.6461 17.3161C20.5876 17.3019 20.5681 17.2899 20.5946 17.2238C20.7914 16.7355 20.9175 16.2292 20.9791 15.706C21.0164 15.3878 21.0314 15.0688 21.0169 14.7495C20.9862 14.0702 20.8519 13.4115 20.5963 12.78C20.5694 12.7136 20.5826 12.6989 20.649 12.6828C21.5882 12.4543 22.5267 12.2225 23.4651 11.9914C24.6992 11.6875 25.9332 11.3832 27.1673 11.0795C27.8648 10.9079 28.5622 10.737 29.2597 10.5656C29.3144 10.5523 29.3417 10.5736 29.3417 10.6297C29.3417 12.087 29.3417 13.5444 29.3417 15.0017L29.342 15.0016Z" fill="#D40663"/>
<path d="M14.997 20.9345C11.722 20.9394 9.05914 18.2669 9.06397 14.9913C9.06881 11.7164 11.7373 9.06065 15.0068 9.06372C18.2785 9.06695 20.9389 11.7326 20.9362 15.0047C20.9334 18.2755 18.2711 20.9435 14.997 20.9343V20.9345Z" fill="#FEDE00"/>
<path d="M9.82153 0.0945809C9.85025 0.0809566 9.8775 0.0868166 9.90387 0.0868166C13.3022 0.0865236 16.7005 0.0868166 20.0987 0.0852051C20.1678 0.0852051 20.1823 0.0967784 20.1646 0.167976C19.8599 1.39724 19.5581 2.62709 19.2554 3.85679C18.9522 5.08884 18.6486 6.32089 18.3457 7.55294C18.177 8.2387 18.0093 8.92489 17.841 9.6108C17.8358 9.63189 17.8285 9.6524 17.8218 9.67496C17.6829 9.60933 17.5471 9.54311 17.4095 9.48114C17.3575 9.45771 17.3864 9.42255 17.393 9.39515C17.4708 9.07315 17.5512 8.75188 17.6303 8.43032C17.933 7.20061 18.2354 5.97076 18.5379 4.74106C18.8404 3.51135 19.1429 2.2815 19.4453 1.0518C19.4796 0.912333 19.5113 0.771988 19.5486 0.6334C19.5623 0.58198 19.549 0.565865 19.4989 0.571139C19.482 0.572897 19.4648 0.571432 19.4476 0.571432C16.4838 0.571432 13.5202 0.571432 10.5565 0.571432C10.5419 0.571432 10.5271 0.572897 10.5126 0.571139C10.4546 0.564546 10.4373 0.57861 10.4537 0.643362C10.558 1.05414 10.6573 1.46609 10.7585 1.87761C11.0618 3.10966 11.3652 4.3417 11.6683 5.57375C11.971 6.80345 12.2736 8.03331 12.5751 9.2633C12.5912 9.32893 12.6365 9.40306 12.611 9.45932C12.5868 9.51293 12.4985 9.51718 12.4408 9.54839C12.3743 9.58428 12.3034 9.61226 12.2383 9.6505C12.1891 9.67936 12.1718 9.67262 12.1582 9.61607C12.0688 9.24426 11.9764 8.87332 11.8851 8.50195C11.7352 7.89179 11.586 7.28133 11.4358 6.67131C11.1321 5.43692 10.8275 4.20253 10.5238 2.96814C10.294 2.03407 10.065 1.0997 9.83574 0.165486C9.83003 0.142046 9.82564 0.118167 9.8208 0.0948739L9.82153 0.0945809Z" fill="#FEDE00"/>
<path d="M12.1775 20.3246C12.3175 20.3905 12.4488 20.4553 12.5827 20.5136C12.6354 20.5366 12.6161 20.5704 12.6082 20.603C12.531 20.92 12.4527 21.2369 12.3746 21.5537C12.0652 22.8094 11.7555 24.065 11.4464 25.3206C11.1436 26.5503 10.8414 27.7802 10.539 29.0099C10.51 29.1281 10.4836 29.2471 10.452 29.3647C10.4394 29.4119 10.4437 29.4358 10.4989 29.4289C10.5109 29.4274 10.5232 29.4287 10.5355 29.4287C13.5115 29.4287 16.4874 29.4287 19.4634 29.4287C19.53 29.4287 19.5553 29.396 19.5394 29.3304C19.2891 28.3136 19.0387 27.2967 18.7882 26.2799C18.4842 25.0455 18.1798 23.8111 17.8761 22.5767C17.7149 21.9217 17.5551 21.2663 17.3931 20.6115C17.3796 20.5568 17.3811 20.5279 17.4436 20.5029C17.5699 20.4521 17.6905 20.387 17.8232 20.323C17.8534 20.444 17.8834 20.5624 17.9126 20.6812C18.2042 21.8659 18.4959 23.0508 18.7874 24.2355C19.0901 25.4652 19.3925 26.6951 19.695 27.9248C19.852 28.5634 20.0078 29.2021 20.1669 29.8401C20.1833 29.9057 20.1666 29.9148 20.1049 29.9148C16.7018 29.9133 13.2985 29.9133 9.89531 29.9148C9.83452 29.9148 9.8165 29.9069 9.8329 29.8405C10.1372 28.6113 10.4391 27.3813 10.7418 26.1516C11.0456 24.9172 11.35 23.6828 11.6537 22.4484C11.8225 21.7626 11.9902 21.0766 12.1586 20.3907C12.1637 20.3696 12.1704 20.3488 12.1773 20.3248L12.1775 20.3246Z" fill="#FEDE00"/>
<path d="M9.6756 12.1771C9.60909 12.3179 9.54389 12.4489 9.48559 12.5829C9.46215 12.6367 9.42816 12.6156 9.39608 12.6077C9.01987 12.5158 8.64396 12.4228 8.26804 12.3302C7.03365 12.0262 5.79926 11.7221 4.56487 11.4183C3.3942 11.1302 2.22354 10.8425 1.05287 10.5548C0.913407 10.5205 0.773355 10.4884 0.634475 10.4517C0.585984 10.4388 0.564449 10.4465 0.570895 10.4999C0.572653 10.5144 0.571188 10.5292 0.571188 10.5438C0.571188 13.5149 0.571188 16.4861 0.571188 19.4572C0.571188 19.5637 0.571188 19.564 0.670513 19.5397C1.62832 19.304 2.58597 19.0682 3.54363 18.8324C4.77802 18.5284 6.01227 18.2241 7.24666 17.9203C7.96318 17.7439 8.67985 17.5684 9.39623 17.3913C9.4456 17.3791 9.47255 17.3838 9.49526 17.4376C9.54917 17.5655 9.61246 17.6892 9.67618 17.8234C9.56089 17.8529 9.44721 17.8829 9.33309 17.9109C8.42494 18.1342 7.51651 18.3565 6.60851 18.58C5.37398 18.8836 4.13988 19.1882 2.90534 19.4921C1.9972 19.7155 1.08891 19.9381 0.180624 20.1611C0.117825 20.1765 0.0864258 20.153 0.0864258 20.0905C0.0864258 16.697 0.0864258 13.3035 0.0864258 9.91006C0.0864258 9.84756 0.117874 9.82407 0.18077 9.8396C1.36784 10.1319 2.55506 10.4244 3.74228 10.7165C4.65277 10.9405 5.5634 11.1639 6.47388 11.3879C7.5168 11.6445 8.55972 11.9013 9.60249 12.1579C9.62593 12.1636 9.64923 12.1704 9.67574 12.1776L9.6756 12.1771Z" fill="#FEDE00"/>
<path d="M20.3249 17.8216C20.3909 17.6818 20.4568 17.546 20.5191 17.4086C20.5425 17.3569 20.5792 17.3857 20.6058 17.3922C20.8309 17.4458 21.0549 17.5037 21.2796 17.5591C22.5874 17.8811 23.8952 18.2028 25.2029 18.5243C26.1134 18.7482 27.0239 18.9719 27.9345 19.1956C28.4052 19.3112 28.8758 19.4268 29.3465 19.5422C29.4284 19.5623 29.4287 19.5617 29.4287 19.4766C29.4287 17.5626 29.4287 15.6486 29.4287 13.7346C29.4287 12.6653 29.4287 11.596 29.4287 10.5267C29.4287 10.4385 29.4284 10.4379 29.3418 10.4592C28.6016 10.641 27.8613 10.8229 27.1212 11.0052C25.8868 11.309 24.6524 11.6131 23.418 11.9171C22.4839 12.1471 21.5497 12.3767 20.6161 12.6086C20.5512 12.6247 20.5228 12.6102 20.4976 12.5482C20.4547 12.4423 20.4034 12.3392 20.3489 12.2385C20.3205 12.1862 20.3319 12.1719 20.3855 12.1591C20.7242 12.0781 21.0622 11.9945 21.4004 11.9114C22.3016 11.6899 23.2027 11.4685 24.1036 11.2466C25.3404 10.942 26.5769 10.6367 27.8137 10.3323C28.4899 10.1657 29.1666 10.0008 29.8427 9.83334C29.9003 9.81913 29.9149 9.82909 29.9149 9.89062C29.9134 13.2963 29.9134 16.7019 29.9149 20.1077C29.9149 20.1749 29.8985 20.1811 29.8378 20.1661C28.5449 19.8459 27.2514 19.5273 25.9578 19.2089C25.0497 18.9855 24.1414 18.7628 23.2333 18.5399C22.2825 18.3065 21.3317 18.0731 20.381 17.8396C20.3625 17.8351 20.3446 17.8282 20.3247 17.8219L20.3249 17.8216Z" fill="#FEDE00"/>
<path d="M20.405 14.998C20.406 17.9815 17.9844 20.404 15.0001 20.4048C12.0176 20.4055 9.59434 17.9814 9.59522 14.9978C9.59609 12.0145 12.0203 9.59277 15.0036 9.59497C17.9849 9.59717 20.4038 12.017 20.4049 14.998H20.405Z" fill="#806600"/>
<path d="M15.0027 9.68164C17.9405 9.68223 20.318 12.0605 20.3184 14.9991C20.3189 17.9432 17.9368 20.3212 14.9897 20.3183C12.0546 20.3153 9.67813 17.9314 9.68164 14.9934C9.68501 12.0551 12.0633 9.68105 15.0027 9.68164Z" fill="#001787"/>
<path d="M17.7051 11.1812V11.2565C17.7051 13.373 17.7047 15.4895 17.7069 17.6061C17.7069 17.6783 17.6922 17.6988 17.6167 17.6981C17.1675 17.694 16.7183 17.6966 16.2692 17.6951C16.2188 17.695 16.1953 17.7032 16.1826 17.7612C16.0521 18.3583 15.7431 18.8443 15.2595 19.2183C15.2091 19.2572 15.1592 19.2965 15.1181 19.3451C15.0777 19.393 15.0406 19.4439 14.9962 19.501C14.91 19.338 14.7616 19.2416 14.6294 19.1274C14.2059 18.7616 13.9334 18.3041 13.8166 17.7564C13.8061 17.7069 13.7885 17.6948 13.7411 17.695C13.2821 17.6966 12.8232 17.695 12.3643 17.6972C12.312 17.6975 12.2939 17.6881 12.2939 17.6304C12.2956 15.492 12.2954 13.3535 12.2954 11.2149V11.1867C12.3191 11.1691 12.3339 11.1893 12.3486 11.1981C13.1095 11.6558 13.5817 12.3179 13.722 13.1962C13.8062 13.7231 13.8533 14.2561 13.917 14.7864C13.9315 14.9074 13.9434 15.029 13.9618 15.1494C13.9709 15.2088 13.9612 15.2266 13.8952 15.222C13.6704 15.2061 13.47 15.3664 13.4321 15.5837C13.3884 15.8337 13.542 16.0599 13.7909 16.1116C13.8243 16.1185 13.8581 16.1235 13.8915 16.13C14.0579 16.162 14.0563 16.1613 14.1379 16.0106C14.4328 15.4657 14.6234 14.885 14.7306 14.2765C14.7969 13.901 14.7762 13.5224 14.7585 13.1445C14.7314 12.5643 14.6725 11.9858 14.6633 11.4047C14.6583 11.0856 14.7589 10.8017 14.9529 10.5491C14.9875 10.5041 15.0065 10.4949 15.0461 10.5466C15.238 10.7974 15.3404 11.0783 15.337 11.3946C15.3325 11.8121 15.2972 12.2281 15.2717 12.6446C15.2443 13.0903 15.2052 13.5361 15.2361 13.983C15.2657 14.4117 15.3799 14.8217 15.5184 15.2266C15.6236 15.5343 15.7592 15.8273 15.9154 16.1116C15.9332 16.1443 15.9482 16.1673 15.9921 16.1565C16.0773 16.1354 16.1644 16.1228 16.249 16.0998C16.4719 16.0393 16.6064 15.8245 16.5696 15.5935C16.5342 15.3702 16.3351 15.2069 16.108 15.2212C16.0481 15.225 16.0301 15.2174 16.0383 15.1518C16.0978 14.6776 16.1524 14.2026 16.2107 13.7281C16.2416 13.4766 16.2561 13.2226 16.319 12.9757C16.5172 12.1966 16.9668 11.6057 17.6561 11.1952C17.6665 11.189 17.6777 11.1846 17.6889 11.1796C17.6908 11.1788 17.6934 11.1798 17.7054 11.1808L17.7051 11.1812Z" fill="#FEDE00"/>
<path d="M17.2543 12.1182V12.8247C17.2543 13.6718 17.2535 14.519 17.2557 15.366C17.2559 15.4261 17.2411 15.439 17.1809 15.4441C17.0574 15.4547 16.9845 15.4306 16.939 15.2939C16.8792 15.1142 16.7405 14.9834 16.5745 14.889C16.5374 14.8679 16.5272 14.8483 16.5326 14.8039C16.595 14.3029 16.6494 13.801 16.7153 13.3004C16.7727 12.8649 16.9501 12.4785 17.228 12.1385C17.2323 12.1334 17.2389 12.13 17.2541 12.1183L17.2543 12.1182Z" fill="#001787"/>
<path d="M12.7459 12.1083C12.9204 12.3141 13.0452 12.5264 13.1403 12.7573C13.2396 12.9987 13.2842 13.2522 13.3138 13.5097C13.3636 13.9435 13.4151 14.377 13.4682 14.8103C13.4727 14.8477 13.4663 14.8657 13.4327 14.8849C13.2294 15.0009 13.0895 15.1705 13.0177 15.3938C13.0061 15.4297 12.991 15.4446 12.9521 15.4419C12.8866 15.4373 12.8015 15.4627 12.7604 15.4301C12.7171 15.3957 12.7467 15.3068 12.7467 15.242C12.7456 14.2313 12.7459 13.2205 12.7459 12.2098C12.7459 12.183 12.7459 12.1562 12.7459 12.1082V12.1083Z" fill="#001787"/>
<path d="M12.7458 16.5643C12.7458 16.3594 12.7473 16.1544 12.7447 15.9495C12.7441 15.9042 12.7577 15.8966 12.8012 15.8915C12.9336 15.8758 13.0082 15.9055 13.0668 16.0497C13.1899 16.3523 13.4455 16.5101 13.7631 16.5646C13.8352 16.5771 13.8513 16.5983 13.8305 16.6714C13.783 16.8384 13.7656 17.0113 13.7622 17.1847C13.7613 17.2319 13.7483 17.2461 13.7003 17.2458C13.4026 17.2436 13.1049 17.2433 12.8074 17.246C12.7532 17.2464 12.7441 17.2277 12.7447 17.179C12.7471 16.9741 12.7457 16.7691 12.7457 16.5642L12.7458 16.5643Z" fill="#001787"/>
<path d="M17.2543 16.5684C17.2543 16.7733 17.2531 16.9783 17.2552 17.1832C17.2556 17.2288 17.2462 17.2464 17.1958 17.2459C16.8958 17.2434 16.5956 17.2437 16.2956 17.2459C16.2496 17.2462 16.2388 17.2316 16.2377 17.1881C16.2338 17.0048 16.213 16.823 16.1635 16.6462C16.1481 16.5915 16.1671 16.5786 16.2124 16.5703C16.347 16.5454 16.478 16.5099 16.5958 16.4358C16.7801 16.3198 16.9107 16.1605 16.9775 15.9532C16.9935 15.9039 17.0146 15.8883 17.0637 15.8927C17.124 15.898 17.2049 15.8735 17.2402 15.9042C17.2817 15.9401 17.2528 16.0231 17.2535 16.0855C17.2556 16.2465 17.2543 16.4075 17.2543 16.5685V16.5684Z" fill="#001787"/>
<path d="M15.0065 15.176C15.1234 15.5508 15.2773 15.9024 15.4714 16.2362C15.4893 16.2671 15.4888 16.2794 15.4515 16.2928C15.2878 16.3509 15.1459 16.4434 15.0314 16.5752C15.0084 16.6017 14.9944 16.6047 14.9698 16.5763C14.8554 16.4448 14.7146 16.3506 14.5503 16.2931C14.5159 16.2811 14.5087 16.2712 14.5282 16.2375C14.7204 15.9054 14.8748 15.5566 14.9891 15.1902C14.9901 15.1867 14.9957 15.1847 15.0067 15.1762L15.0065 15.176Z" fill="#001787"/>
<path d="M14.7756 18.6448C14.5658 18.4239 14.4228 18.1861 14.3273 17.9194C14.306 17.8599 14.2902 17.7985 14.2715 17.7381C14.2619 17.7077 14.2688 17.6946 14.3043 17.6951C14.4481 17.6967 14.5921 17.6965 14.736 17.6951C14.7701 17.6948 14.776 17.7102 14.776 17.7395C14.7754 18.0339 14.7756 18.3285 14.7756 18.6448Z" fill="#001787"/>
<path d="M15.2241 18.6462C15.2241 18.3288 15.2244 18.0342 15.2236 17.7396C15.2236 17.7103 15.2296 17.6949 15.2636 17.6953C15.4075 17.6968 15.5515 17.6963 15.6955 17.6956C15.7217 17.6956 15.7381 17.6987 15.7298 17.7314C15.6417 18.0727 15.4799 18.3729 15.2241 18.6462Z" fill="#001787"/>
<path d="M14.4908 17.245C14.4152 17.245 14.3394 17.2431 14.264 17.2457C14.2239 17.2472 14.2076 17.2368 14.2102 17.1933C14.2195 17.0397 14.2389 16.8881 14.2765 16.7385C14.2874 16.6949 14.3072 16.6922 14.3431 16.6993C14.567 16.7431 14.766 16.978 14.7731 17.2042C14.7741 17.2391 14.7618 17.2456 14.7322 17.2451C14.6518 17.2441 14.5712 17.2448 14.4908 17.2448V17.245Z" fill="#001787"/>
<path d="M15.5037 17.2449C15.4256 17.2449 15.3475 17.2436 15.2696 17.2455C15.234 17.2464 15.2251 17.235 15.2274 17.1988C15.2428 16.9694 15.4233 16.7545 15.6478 16.7013C15.6873 16.6919 15.7127 16.6907 15.7252 16.7438C15.7601 16.8914 15.7803 17.0404 15.7895 17.1915C15.792 17.2326 15.7803 17.2474 15.7377 17.2458C15.6597 17.2427 15.5816 17.2449 15.5035 17.2449H15.5037Z" fill="#001787"/>
</g>
<defs>
<clipPath id="clip0_132_4870">
<rect width="30" height="30" fill="white"/>
</clipPath>
</defs>
</svg>
