<svg width="60" height="60" viewBox="0 0 60 60" fill="none" xmlns="http://www.w3.org/2000/svg">
<path fill-rule="evenodd" clip-rule="evenodd" d="M16.7203 0.038769C16.0032 0.297746 15.7762 1.22691 16.3017 1.7524C17.1495 2.60021 18.517 1.29249 17.7319 0.384676C17.4591 0.0691876 17.0365 -0.0753706 16.7203 0.038769ZM6.26537 4.77123C5.87244 5.27063 5.89742 5.43179 6.46449 6.05956C6.73309 6.35691 6.95286 6.6523 6.95286 6.71621C6.95286 6.77998 6.75402 7.03728 6.51095 7.28802C5.96314 7.85328 5.91263 8.5063 6.38691 8.89044C6.84695 9.26286 7.16188 9.2104 7.77165 8.65937C8.069 8.39077 8.35979 8.171 8.41798 8.171C8.47616 8.171 8.77281 8.39607 9.07728 8.67109C9.52239 9.07323 9.70351 9.15375 10.0011 9.08216C10.8689 8.87314 10.9844 7.92361 10.2311 7.19342L9.74188 6.71928L10.2311 6.21835C10.7887 5.64737 10.8824 5.01221 10.4651 4.63449C10.0367 4.24672 9.43714 4.34426 8.91067 4.88747L8.44184 5.37123L7.90616 4.88747C7.23709 4.28286 6.68035 4.24351 6.26537 4.77123ZM16.227 5.37361C15.5718 5.63914 15.597 4.78184 15.6365 25.351L15.6738 44.7989L16.1331 46.1245C16.3857 46.8536 16.888 47.9517 17.2494 48.5648C18.0312 49.8915 19.7478 51.6693 21.0459 52.4966C22.5873 53.4791 34.2111 59.5338 34.5808 59.5468C34.9996 59.5614 47.3828 53.0718 48.6036 52.1979C49.5682 51.5073 50.9276 50.1213 51.5843 49.1585C52.242 48.1946 52.949 46.6366 53.3093 45.357L53.6235 44.2408L53.6645 25.2685C53.6945 11.4446 53.663 6.19323 53.5486 5.91709C53.4566 5.69495 53.2151 5.47644 52.9653 5.38937C52.4503 5.20979 16.6691 5.19444 16.227 5.37361ZM51.7122 25.7873L51.6738 44.3803L51.282 45.4966C50.5106 47.6945 48.9146 49.7747 47.1389 50.8967C46.7168 51.1635 43.723 52.7746 40.486 54.4772L34.6006 57.5726L28.5416 54.381C25.2092 52.6258 22.1772 50.9795 21.8038 50.7227C20.2575 49.6588 18.8937 47.9319 18.1546 46.102C17.4206 44.285 17.428 44.4979 17.4229 25.1594L17.418 7.19426H34.5843H51.7504L51.7122 25.7873ZM33.4854 8.94207C33.0978 9.36612 32.5736 10.134 32.3203 10.6484C31.8971 11.508 31.8598 11.6913 31.8598 12.9123C31.8598 14.4083 32.1322 15.1865 33.0942 16.4397L33.604 17.1036V21.571V26.0383L32.8278 27.3255C31.7496 29.1137 30.0831 32.5148 29.428 34.264L28.8792 35.7291L27.7974 35.7703C26.5755 35.8169 26.1371 35.6818 25.5622 35.082L25.1622 34.6643V32.4522C25.1622 30.285 25.1693 30.2324 25.511 29.8667C25.9417 29.4057 26.5094 29.1012 26.9382 29.1012C27.1168 29.1012 27.4024 29.0034 27.5729 28.884C27.8753 28.6723 27.8831 28.5985 27.8831 25.972C27.8831 21.3213 27.1793 18.7604 24.9914 15.451C24.1302 14.1484 22.1693 12.1004 21.1247 11.4127C20.3786 10.9214 20.0373 10.9203 19.6156 11.4079C19.3861 11.6733 19.3715 12.6543 19.3715 27.7214C19.3715 43.5664 19.3747 43.7556 19.6505 44.0315C19.9163 44.2973 20.1156 44.3105 23.8272 44.3105C28.2166 44.3105 27.7758 44.184 27.9547 45.4966C28.1866 47.1986 29.1925 49.6258 30.3256 51.2175C31.5325 52.9126 33.7798 54.7757 34.6179 54.7757C35.3443 54.7757 37.1347 53.3884 38.3535 51.881C39.8461 50.0351 40.7829 47.9754 41.2223 45.5732L41.4534 44.3105H45.3908C49.0281 44.3105 49.3458 44.2911 49.5591 44.0553C49.7712 43.821 49.7901 42.4843 49.7901 27.6816C49.7901 11.8309 49.7855 11.5589 49.5156 11.3147C49.18 11.0111 48.6453 10.9953 48.2224 11.2766C47.513 11.7485 45.9617 13.2286 45.1465 14.2112C43.1518 16.6155 41.8717 19.5538 41.4275 22.7478C41.3456 23.337 41.2784 24.882 41.2784 26.181C41.2784 28.3571 41.3005 28.5651 41.5575 28.8222C41.711 28.9757 41.9997 29.1012 42.1992 29.1012C42.7609 29.1012 43.5167 29.5226 43.806 29.997C44.0306 30.3654 44.0682 30.7161 44.0682 32.4501C44.0682 34.1841 44.0306 34.5347 43.806 34.9031C43.4146 35.5451 42.7496 35.7989 41.4591 35.7989H40.3565L39.7563 34.2291C39.0432 32.3644 37.4524 29.1298 36.349 27.3012L35.5575 25.9895V21.5645V17.1396L35.9903 16.5972C36.597 15.8369 37.1686 14.6534 37.3567 13.768C37.6737 12.275 36.9509 10.2178 35.6218 8.83086C34.7454 7.91607 34.407 7.93379 33.4854 8.94207ZM35.1378 11.3905C35.6541 12.3075 35.6283 13.5603 35.0722 14.5688L34.6606 15.3155L34.3539 14.9306C33.9025 14.3647 33.5556 13.1475 33.6706 12.5341C33.8031 11.8281 34.4196 10.6525 34.6228 10.7185C34.7147 10.7484 34.9465 11.0509 35.1378 11.3905ZM47.9761 22.5431V31.0547H46.9994C46.0705 31.0547 46.0226 31.0388 46.0226 30.7307C46.0226 29.6147 44.9444 28.0609 43.8608 27.6152L43.2329 27.357L43.2325 25.3143C43.2321 24.0399 43.3143 22.8375 43.4509 22.1177C43.8397 20.0675 44.7833 17.8751 46 16.1943C46.4737 15.54 47.8175 14.0315 47.9266 14.0315C47.9538 14.0315 47.9761 17.8617 47.9761 22.5431ZM23.4455 16.5577C25.1658 19.152 25.8922 21.5675 26.0294 25.1489L26.1104 27.2663L25.5933 27.4823C24.3576 27.9986 23.5631 28.9607 23.2623 30.3051L23.0945 31.0547H22.2097H21.325L21.3298 22.578L21.3347 14.1012L22.1322 14.9404C22.5707 15.402 23.1618 16.1298 23.4455 16.5577ZM36.6826 31.9617C37.3288 33.3001 38.3482 35.7107 38.3482 35.9003C38.3482 35.9213 38.2624 35.9384 38.1576 35.9384C37.6558 35.9384 35.9697 36.9647 35.2892 37.6843L34.56 38.4554L34.296 38.1388C34.1507 37.9646 34.0299 37.7827 34.0272 37.7345C34.0151 37.5049 32.393 36.4271 31.6603 36.1618L30.8359 35.8634L31.4285 34.4009C32.0749 32.806 33.1796 30.555 34.0535 29.0524L34.6094 28.0966L35.2417 29.1919C35.5896 29.7943 36.2379 31.0408 36.6826 31.9617ZM23.1764 33.8969C23.3528 36.2288 24.7018 37.5162 27.1684 37.7063C28.3256 37.7957 28.326 37.7958 28.246 38.1577C28.0362 39.1084 27.7451 41.2408 27.7444 41.8338L27.7436 42.4966H24.5343H21.325V37.6826V32.8687H22.2118H23.0986L23.1764 33.8969ZM47.9063 37.6826V42.4268H44.697H41.4877L41.3963 41.2408C41.3123 40.1482 41.0764 38.5537 40.9196 38.0175C40.865 37.8305 41.0366 37.7802 41.9719 37.708C43.4026 37.5977 44.3366 37.1994 45.0407 36.3996C45.7025 35.6476 46.0226 34.7595 46.0226 33.6746V32.856L46.9645 32.8971L47.9063 32.9384V37.6826ZM31.2319 38.0422C32.6474 38.6816 33.4706 39.8927 33.5749 41.4889L33.6413 42.5045L31.6405 42.4656L29.6397 42.4268L29.676 41.6594C29.7523 40.0452 30.202 37.751 30.4412 37.7555C30.5308 37.7571 30.8866 37.8862 31.2319 38.0422ZM38.9576 37.9966C39.127 38.5878 39.4564 40.559 39.5405 41.485L39.6323 42.4966H37.5949H35.5575V41.8243C35.5575 40.2241 36.4187 38.8108 37.819 38.113C38.6719 37.6879 38.8635 37.6684 38.9576 37.9966ZM33.604 48.1738V52.0371L33.1709 51.6273C31.4973 50.044 30.1655 47.3997 29.7843 44.9036L29.6937 44.3105H31.6489H33.604V48.1738ZM39.4007 44.9467C39.0371 47.3723 37.7707 49.9046 36.1288 51.49L35.5575 52.0416V48.1761V44.3105H37.5269H39.4962L39.4007 44.9467Z" fill="white"/>
</svg>
