<svg width="60" height="60" viewBox="0 0 60 60" fill="none" xmlns="http://www.w3.org/2000/svg">
<path fill-rule="evenodd" clip-rule="evenodd" d="M31.6277 2.65407C31.3959 2.81648 26.9433 8.19687 26.7883 8.50191C26.7801 8.51824 25.6553 8.14708 24.2888 7.67727C21.5987 6.75242 21.0768 6.67043 20.6788 7.11039C20.335 7.4902 20.3474 7.87094 20.8252 11.6476C21.0487 13.4137 21.2021 14.8882 21.1663 14.9242C21.1304 14.96 20.0251 14.7423 18.7098 14.4404C17.3947 14.1385 16.2132 13.8914 16.0841 13.8914C15.9551 13.8914 15.6675 14.0735 15.445 14.296C15.0608 14.6802 15.0459 14.757 15.1497 15.8113C15.21 16.4222 15.4387 17.5302 15.658 18.2733C15.8772 19.0165 16.0923 19.7482 16.1356 19.8995C16.1928 20.0982 16.1246 20.1743 15.8896 20.1743C14.5539 20.1743 14.1925 21.5723 15.153 23.0236L15.5541 23.6299H15.1805C14.5264 23.6299 13.9791 24.1998 13.9791 24.8807C13.9791 25.5726 14.6039 28.0803 15.0726 29.2695C15.2486 29.7162 15.3927 30.1496 15.3927 30.2328C15.3927 30.3277 12.638 30.3841 8.01047 30.3841C0.837644 30.3841 0.619319 30.393 0.314136 30.6982C0.00502616 31.0074 0 31.2218 0 44.2851C0 57.3484 0.00502616 57.5628 0.314136 57.8719C0.626073 58.1839 0.837643 58.1861 30 58.1861C59.1624 58.1861 59.3739 58.1839 59.6859 57.8719C59.995 57.5628 60 57.3484 60 44.2851C60 31.2218 59.995 31.0074 59.6859 30.6982C59.3807 30.393 59.1624 30.3841 52.0681 30.3841C48.051 30.3841 44.7644 30.3233 44.7644 30.2492C44.7644 30.1749 45.0042 29.5918 45.2973 28.9533C46.3073 26.7532 47.2605 23.2671 47.0651 22.4883C46.9222 21.9194 46.2867 21.6426 45.6507 21.8726C44.9667 22.12 44.2437 22.1084 43.6005 21.8396L43.075 21.62L43.6038 20.1021C43.8947 19.2672 44.3345 17.6129 44.5813 16.4258C45.2584 13.1678 45.0068 12.8588 42.2573 13.5729C41.6127 13.7403 41.062 13.854 41.0336 13.8256C41.0053 13.7972 41.1655 12.6898 41.3898 11.3647C41.6139 10.0397 41.757 8.79469 41.7077 8.59819C41.6584 8.40154 41.4602 8.1375 41.2671 8.01121C40.9558 7.80764 40.5707 7.82492 37.8534 8.1642C36.1688 8.37452 34.7728 8.54746 34.7513 8.54871C34.7298 8.54997 34.7109 8.28593 34.7097 7.96189C34.7061 7.04458 34.2895 5.49411 33.709 4.23752C32.9157 2.52056 32.3896 2.12033 31.6277 2.65407ZM32.4435 8.4108C32.4564 9.41372 32.5195 10.3192 32.5839 10.4232C32.8535 10.8594 33.4519 10.8728 36.3679 10.5074C37.9988 10.3029 39.3501 10.1524 39.3704 10.1727C39.3908 10.193 39.2221 11.3385 38.9958 12.7181C38.3876 16.4251 38.5473 16.6952 40.9908 16.0914C41.7781 15.8969 42.4511 15.7665 42.4864 15.8019C42.7115 16.027 41.2454 20.6691 40.8308 21.0445C40.4031 21.4315 40.4265 22.2692 40.877 22.6955C41.3976 23.1883 42.9188 23.9221 43.8199 24.1155C44.253 24.2083 44.6073 24.3416 44.6073 24.4119C44.6073 25.051 43.1782 28.6607 42.4993 29.7362L42.0903 30.3841H40.5477C39.6994 30.3841 38.9724 30.3511 38.932 30.3109C38.8918 30.2707 39.0204 29.4401 39.2179 28.4653C39.7104 26.033 39.701 25.2864 39.1729 24.9404C38.8297 24.7155 38.6609 24.7006 38.114 24.8465C37.7562 24.942 37.4364 24.9932 37.4034 24.96C37.3703 24.9269 37.4345 24.0801 37.5462 23.0783C37.7444 21.3004 37.7413 21.249 37.4193 20.927C37.0093 20.5171 36.4362 20.5232 35.4451 20.9482C35.0276 21.1273 34.631 21.2738 34.5638 21.2738C34.4967 21.2738 34.4003 20.924 34.3495 20.4963C34.2215 19.4147 33.5438 18.0659 32.6761 17.1657C31.9717 16.4347 31.5979 16.2835 31.0321 16.5005C30.8945 16.5533 30.1775 17.5749 29.4386 18.7706C28.2129 20.7544 28.0654 20.9327 27.7519 20.81C27.5629 20.736 26.9248 20.4567 26.3336 20.1894C25.0448 19.6064 24.9534 19.6007 24.4077 20.07L23.9811 20.437L24.1731 22.6225C24.2786 23.8246 24.4043 25.0687 24.4524 25.3873L24.5397 25.9666L23.2253 25.6073C22.5025 25.4097 21.805 25.282 21.6754 25.3233C21.1176 25.5018 20.8901 25.8789 20.8901 26.6249C20.8901 27.3081 21.2251 29.3934 21.4473 30.0938C21.5334 30.3651 21.4165 30.3841 19.6649 30.3841H17.7905L17.3089 29.0882C16.833 27.8075 16.3351 26.2067 16.3351 25.9575C16.3351 25.8868 16.7623 25.829 17.2846 25.829C18.0834 25.829 18.2954 25.7677 18.6196 25.4434C18.8317 25.2313 19.0052 24.9181 19.0052 24.7474C19.0052 24.5765 18.6212 23.9901 18.1519 23.4443L17.2984 22.4519L17.8294 22.3602C19.0412 22.1508 19.172 21.6527 18.4747 19.9032C17.8341 18.2965 17.3422 16.6017 17.477 16.4668C17.5288 16.4151 18.709 16.6339 20.0995 16.9531C22.5009 17.5044 22.6478 17.5206 23.024 17.2741C23.2418 17.1314 23.4598 16.9107 23.5085 16.7839C23.5572 16.657 23.4031 14.9972 23.1663 13.0954C22.9293 11.1937 22.7757 9.59733 22.8248 9.54817C22.874 9.49901 23.8503 9.78771 24.9944 10.1897C26.7517 10.8073 27.137 10.8941 27.477 10.7488C27.6985 10.6543 28.7947 9.43555 29.9133 8.04058L31.947 5.50416L32.1834 6.04591C32.3435 6.4122 32.4276 7.17731 32.4435 8.4108ZM31.9913 19.8995C32.1966 20.2851 32.2648 20.8067 32.2703 22.0325C32.2767 23.468 32.3138 23.6821 32.5916 23.8882C32.9643 24.1645 33.3971 24.1109 34.5372 23.6474L35.3835 23.3034L35.2786 23.8985C35.2209 24.226 35.1306 25.1042 35.0779 25.8502C34.983 27.1939 34.986 27.209 35.4039 27.4829C35.7693 27.7223 35.9109 27.7338 36.4622 27.5686C36.8122 27.4638 37.1284 27.4076 37.1647 27.444C37.2264 27.5056 36.8493 29.5002 36.6608 30.1092C36.5816 30.3651 36.1367 30.3841 30.2343 30.3841C25.7475 30.3841 23.8613 30.333 23.7848 30.2093C23.6237 29.9484 23.1072 27.8709 23.2035 27.8709C23.2494 27.8709 23.8434 28.0234 24.5238 28.2099C25.5225 28.4837 25.8368 28.5143 26.1558 28.369C26.7592 28.094 26.8305 27.6568 26.6084 25.5934C26.4969 24.5567 26.4016 23.4473 26.3965 23.1281L26.3874 22.5477L27.2744 22.9399C28.6836 23.5632 28.993 23.457 29.9215 22.0309C30.3534 21.3675 30.8994 20.5017 31.1348 20.1068C31.3703 19.7121 31.5982 19.389 31.6414 19.389C31.6844 19.389 31.8419 19.6188 31.9913 19.8995ZM57.801 44.2851V56.1441H30H2.19895V44.2851V32.426H30H57.801V44.2851ZM8.97487 33.8004C8.7534 33.9867 8.59948 34.3866 8.49754 35.0412C8.15497 37.2411 6.82916 38.5668 4.66571 38.8726C3.1555 39.0861 3.2199 38.8684 3.2199 43.7548V48.0041L3.59073 48.3043C4.08864 48.7076 4.49152 48.6823 4.95471 48.219L5.34031 47.8335L5.34047 44.4099L5.34079 40.9865L6.26136 40.7161C8.04078 40.1932 9.80874 38.4251 10.3316 36.6457L10.6021 35.7251L14.0254 35.7247L17.4488 35.7246L17.8343 35.339C18.0463 35.1269 18.2199 34.8057 18.2199 34.6251C18.2199 34.4444 18.0463 34.1232 17.8343 33.9112L17.4488 33.5256H13.3753C9.72503 33.5256 9.2678 33.5541 8.97487 33.8004ZM4.56644 35.039C4.1645 35.5498 4.15508 35.8981 4.53047 36.3617C5.11382 37.082 6.43979 36.6224 6.43979 35.7001C6.43979 35.2714 5.74256 34.6251 5.28031 34.6251C5.04785 34.6251 4.7612 34.7911 4.56644 35.039ZM30.2446 38.2728C30.1101 38.4647 30 38.9242 30 39.2938V39.9656H28.7785C26.8728 39.9656 26.8586 39.985 26.8586 42.6204C26.8586 45.3076 26.8575 45.306 28.7166 45.306H30V45.8558V46.4056H28.7785C27.3047 46.4056 26.8586 46.6379 26.8586 47.4055C26.8586 48.3352 27.1393 48.5193 28.6522 48.5815L30 48.6368V49.2926C30 50.1714 30.3487 50.6472 30.9906 50.6442C31.2664 50.6428 31.5699 50.5898 31.6649 50.5264C31.9706 50.3223 32.199 49.7399 32.199 49.1647V48.6046H33.3558C34.2883 48.6046 34.5928 48.5414 34.9264 48.279C35.3348 47.9579 35.3403 47.9267 35.3403 45.9579C35.3403 43.309 35.31 43.2641 33.5251 43.2641H32.199V42.7143V42.1646H33.3558C34.7251 42.1646 35.3403 41.8237 35.3403 41.0651C35.3403 40.3064 34.7251 39.9656 33.3558 39.9656H32.199V39.4054C32.199 38.8302 31.9706 38.2478 31.6649 38.0438C31.2884 37.7925 30.491 37.9209 30.2446 38.2728ZM55.0736 40.2912L54.6597 40.6166V44.1098V47.6028L53.8681 47.8057C52.0442 48.2732 50.2115 50.0757 49.6633 51.9416L49.3979 52.8451L45.9746 52.8454L42.5512 52.8456L42.1657 53.2312C41.9537 53.4432 41.7801 53.7644 41.7801 53.9451C41.7801 54.1257 41.9537 54.4469 42.1657 54.659L42.5512 55.0446H46.4747C48.6328 55.0446 50.571 54.9789 50.782 54.8987C51.1846 54.7457 51.5158 54.0445 51.5218 53.3326C51.5268 52.7421 52.0853 51.594 52.666 50.9808C53.2764 50.336 54.5529 49.7077 55.2565 49.7057C56.0678 49.7032 56.6724 49.3135 56.7821 48.7221C56.8343 48.4414 56.8552 46.4915 56.8285 44.3887C56.7804 40.5873 56.7781 40.5639 56.4093 40.2656C55.9327 39.88 55.5878 39.8866 55.0736 40.2912ZM30 42.7242C30 43.2611 29.9791 43.282 29.4895 43.2347C29.0406 43.1915 28.9731 43.124 28.9299 42.6751C28.8826 42.1855 28.9035 42.1646 29.4404 42.1646C29.9771 42.1646 30 42.1875 30 42.7242ZM33.1414 45.8558C33.1414 46.3619 33.104 46.4056 32.6702 46.4056C32.2363 46.4056 32.199 46.3619 32.199 45.8558C32.199 45.3497 32.2363 45.306 32.6702 45.306C33.104 45.306 33.1414 45.3497 33.1414 45.8558ZM55.0453 52.1317C54.5389 52.6379 54.5497 53.2076 55.0736 53.6195C55.5843 54.0214 55.9327 54.0308 56.3962 53.6554C57.1165 53.0721 56.657 51.7461 55.7347 51.7461C55.5675 51.7461 55.2573 51.9196 55.0453 52.1317Z" fill="#A6A272"/>
<path d="M46.3193 8.37216C43.4972 7.42721 43.2465 3.47069 45.9313 2.25117C47.1908 1.67911 48.6594 1.9463 49.6389 2.92581C50.2959 3.58284 50.5767 4.26941 50.5725 5.20808C50.5623 7.44559 48.3864 9.06423 46.3193 8.37216Z" fill="#323232"/>
<path d="M6.51334 5.09043C5.83607 4.43402 5.79099 3.84421 6.38251 3.37896C6.95879 2.92549 7.29586 2.96994 7.97078 3.5885L8.5546 4.12349L9.1469 3.5885C9.84947 2.95376 10.2447 2.91717 10.7663 3.43896C11.2885 3.96107 11.2515 4.36302 10.6167 5.05556L10.0818 5.6394L10.6167 6.23172C11.2281 6.9084 11.2917 7.39925 10.8316 7.89293C10.3734 8.38473 9.73418 8.33509 9.18853 7.76554C8.9402 7.50637 8.65748 7.29432 8.56025 7.29432C8.46303 7.29432 8.18031 7.50637 7.93198 7.76554C7.39779 8.32315 6.74549 8.38536 6.28277 7.92262C5.81847 7.45831 5.89308 6.90761 6.51334 6.2212L7.0579 5.6182L6.51334 5.09043Z" fill="#323232"/>
<path d="M53.9818 13.83C52.7645 13.5948 52.5489 12.1652 53.6388 11.5559C54.0514 11.3251 54.6701 11.4681 55.0131 11.8735C55.6903 12.6738 54.9792 14.0226 53.9818 13.83Z" fill="#323232"/>
<path d="M4.97423 19.4882C4.21968 19.2988 4.04533 18.3502 4.6535 17.7422C5.31853 17.0772 6.66554 17.9772 6.34968 18.8753C6.1758 19.3696 5.57282 19.6384 4.97423 19.4882Z" fill="#323232"/>
</svg>
