<svg width="30" height="30" viewBox="0 0 30 30" fill="none" xmlns="http://www.w3.org/2000/svg">
<g clip-path="url(#clip0_132_4239)">
<path d="M21.1522 30H21.0936C20.66 29.6086 20.2264 29.2172 19.774 28.8086C20.6787 27.9117 21.4943 27.1016 22.3209 26.2812C22.2443 26.2102 22.1912 26.1539 22.1326 26.1055C20.5842 24.8383 19.0365 23.5695 17.4811 22.3117C17.3662 22.2187 17.1881 22.1609 17.0389 22.1594C15.6725 22.1492 14.3061 22.15 12.9389 22.1625C12.7998 22.1641 12.6357 22.2289 12.5256 22.3172C11.4975 23.1414 10.4787 23.9773 9.4584 24.8102C8.87012 25.2906 8.28184 25.7719 7.66934 26.2727C8.50293 27.1023 9.31777 27.9133 10.2178 28.8102C9.7709 29.2148 9.33809 29.607 8.90527 29.9992H8.84668C8.03965 29.182 7.22793 28.3688 6.42793 27.5445C6.2834 27.3953 6.1709 27.3891 5.97871 27.4516C4.94981 27.7891 4.00605 27.6187 3.21699 26.8625C2.4373 26.1156 2.19902 25.1867 2.50996 24.1602C2.6123 23.8227 2.5459 23.6469 2.31074 23.4234C1.52793 22.6789 0.767774 21.9109 -0.000976562 21.1516V21.093C0.39043 20.6594 0.781836 20.2258 1.18809 19.7766C2.08496 20.6805 2.89512 21.4961 3.71309 22.3211C3.78105 22.2492 3.83106 22.2039 3.87324 22.1516C5.15684 20.5789 6.44277 19.0078 7.71856 17.4289C7.79981 17.3281 7.83965 17.1656 7.84043 17.032C7.84902 15.6555 7.84902 14.2789 7.83809 12.9031C7.83731 12.7734 7.77246 12.6211 7.68965 12.518C6.43574 10.9711 5.17324 9.43125 3.91231 7.89062C3.85762 7.82422 3.79746 7.76172 3.71699 7.67266C2.89668 8.50312 2.08887 9.32109 1.19277 10.2281C0.782617 9.77344 0.391211 9.33984 -0.000195312 8.90625C-0.000195312 8.88672 -0.000195312 8.86719 -0.000195312 8.84766C0.851367 8.00625 1.70605 7.16641 2.54902 6.31641C2.59824 6.26719 2.58809 6.12188 2.5584 6.03828C2.35215 5.46953 2.32402 4.89453 2.49355 4.31563C2.93262 2.81641 4.53262 2.01797 6.01074 2.54766C6.10371 2.58125 6.26309 2.6 6.31543 2.54766C7.16621 1.70625 8.00527 0.851562 8.84746 0C8.86699 0 8.88652 0 8.90606 0C9.33887 0.392187 9.77168 0.784375 10.2178 1.18828C9.31699 2.08438 8.50293 2.89531 7.68184 3.7125C7.73418 3.76875 7.76387 3.80859 7.80059 3.83828C9.39434 5.14219 10.9881 6.44687 12.5865 7.74531C12.6607 7.80547 12.7771 7.84063 12.8748 7.84141C14.2709 7.84766 15.6662 7.85 17.0623 7.84063C17.1943 7.83984 17.3514 7.78438 17.4537 7.70156C19.017 6.4375 20.5732 5.16406 22.1311 3.89297C22.1904 3.84453 22.2443 3.78984 22.3201 3.72031C21.4928 2.90078 20.6764 2.09219 19.7732 1.19687C20.2279 0.784375 20.6607 0.392187 21.0936 0H21.1522C21.9936 0.851562 22.8334 1.70547 23.6834 2.54922C23.7334 2.59844 23.8779 2.59062 23.9615 2.56094C24.5303 2.35547 25.1045 2.32734 25.6834 2.49609C27.1826 2.93359 27.9803 4.53047 27.4514 6.01094C27.4186 6.10391 27.4006 6.26328 27.4522 6.31562C28.2943 7.16719 29.1482 8.00625 29.9998 8.84766V8.90625C29.6076 9.33906 29.2154 9.77266 28.8061 10.2242C27.9115 9.31953 27.1029 8.50234 26.2889 7.67891C26.2318 7.73359 26.1928 7.76406 26.1623 7.80078C24.86 9.39609 23.5576 10.9914 22.2615 12.5922C22.1959 12.6734 22.1592 12.8016 22.1592 12.9086C22.1514 14.2945 22.1482 15.6813 22.1592 17.0672C22.16 17.207 22.2225 17.3719 22.3107 17.4805C23.5147 18.9672 24.7287 20.4461 25.9397 21.9266C26.0436 22.0539 26.149 22.1797 26.2748 22.332C27.1022 21.4953 27.9107 20.6781 28.8045 19.7742C29.2147 20.2273 29.6068 20.6602 29.999 21.093V21.1516C29.1475 21.9937 28.2936 22.8328 27.4506 23.6828C27.4014 23.732 27.41 23.8773 27.4404 23.9609C27.6459 24.5297 27.674 25.1047 27.5045 25.6828C27.0662 27.1812 25.4701 27.9766 23.9881 27.4477C23.8959 27.4148 23.7365 27.3984 23.6834 27.4508C22.8318 28.293 21.9936 29.1469 21.1514 29.9984L21.1522 30ZM20.3451 15.0297H20.3826C20.3826 14.3953 20.3951 13.7602 20.3803 13.1266C20.335 11.2031 18.7623 9.63984 16.8451 9.61953C15.6154 9.60625 14.3857 9.60625 13.1561 9.61953C11.2404 9.63984 9.65449 11.2078 9.62168 13.1258C9.60059 14.375 9.59981 15.625 9.62168 16.8734C9.65449 18.7812 11.2225 20.3484 13.1264 20.3789C14.3756 20.3992 15.6256 20.3984 16.874 20.3789C18.6373 20.3523 20.142 19.0117 20.3326 17.2508C20.4115 16.5187 20.3459 15.7703 20.3459 15.0289L20.3451 15.0297ZM7.60762 24.0078C8.63731 23.1672 9.62949 22.3578 10.6482 21.5258C9.70449 20.993 9.00059 20.2797 8.4709 19.3547C7.63887 20.375 6.82793 21.3703 5.99277 22.3945C6.76621 22.7062 7.28418 23.2344 7.60762 24.0078V24.0078ZM22.3936 5.99375C21.367 6.83125 20.374 7.64141 19.3561 8.47188C20.2896 9.00313 20.9975 9.71406 21.5279 10.6469C22.3639 9.62109 23.1787 8.62188 24.0084 7.60391C23.2334 7.28438 22.7154 6.76719 22.3928 5.99375H22.3936ZM7.60293 5.99453C7.28418 6.78125 6.74746 7.28906 6.00137 7.61094C6.83809 8.63281 7.64824 9.62266 8.48027 10.6391C9.00606 9.69453 9.72871 9.00625 10.6326 8.47188C9.60996 7.63594 8.62324 6.82891 7.60293 5.99453V5.99453ZM24.0053 22.3945C23.1639 21.3664 22.3529 20.3766 21.5217 19.3617C20.9904 20.2953 20.2857 20.9953 19.3646 21.5234C20.3865 22.3586 21.3826 23.1727 22.3975 24.0023C22.7186 23.2242 23.242 22.7141 24.0053 22.3945V22.3945ZM5.97012 5.07422C5.97168 4.58984 5.56387 4.18047 5.07324 4.17344C4.59824 4.16641 4.17324 4.59062 4.17324 5.07187C4.17324 5.55391 4.58965 5.97188 5.07168 5.97188C5.5584 5.97188 5.96934 5.56094 5.9709 5.075L5.97012 5.07422ZM25.8256 5.07187C25.8256 4.58672 25.4107 4.17422 24.9256 4.175C24.4397 4.17578 24.0326 4.58437 24.0295 5.075C24.0264 5.55391 24.4467 5.97344 24.9287 5.97188C25.4131 5.97031 25.8264 5.55547 25.8256 5.07187ZM25.8256 24.9141C25.8162 24.4266 25.3982 24.0219 24.9139 24.0313C24.4264 24.0406 24.0209 24.4578 24.0311 24.9422C24.0404 25.4313 24.4576 25.8359 24.942 25.8258C25.4318 25.8156 25.8357 25.3992 25.8256 24.9141ZM5.9709 24.9281C5.9709 24.4437 5.5584 24.0305 5.07324 24.0305C4.58887 24.0305 4.17402 24.4445 4.1748 24.9281C4.1748 25.4125 4.59043 25.8273 5.07324 25.8266C5.55918 25.8266 5.9709 25.4148 5.9709 24.9281Z" fill="#323232"/>
<path d="M13.3125 12C12.1734 12 11.25 12.9234 11.25 14.0625C11.25 16.125 13.6875 18 15 18.4362C16.3125 18 18.75 16.125 18.75 14.0625C18.75 12.9234 17.8266 12 16.6875 12C15.9899 12 15.3733 12.3463 15 12.8763C14.6267 12.3463 14.0101 12 13.3125 12Z" fill="#323232"/>
</g>
<defs>
<clipPath id="clip0_132_4239">
<rect width="30" height="30" fill="white"/>
</clipPath>
</defs>
</svg>
