<svg width="60" height="60" viewBox="0 0 60 60" fill="none" xmlns="http://www.w3.org/2000/svg">
<path fill-rule="evenodd" clip-rule="evenodd" d="M14.5775 3.8382C12.5192 4.12955 10.2993 4.99941 8.50535 6.21783C7.27298 7.05462 5.56912 8.72081 4.51507 10.1196C3.51209 11.4507 2.27107 13.8452 1.76651 15.4228C1.08809 17.544 0.930418 18.9504 1.01777 22.1018C1.13344 26.2694 1.51102 28.3997 2.52447 30.6024C3.83595 33.4527 6.2686 34.8401 10.3256 35.0517C11.2081 35.0976 12.04 35.1918 12.1744 35.2608C12.4764 35.4158 12.5047 36.2982 12.2286 36.9505C11.8998 37.7273 11.5681 37.9098 10.2409 38.0443C8.7826 38.1921 8.15009 38.3534 7.04651 38.8585C5.27958 39.6674 3.73451 41.1763 2.82558 42.981C2.13977 44.3428 2.05884 44.7843 1.96884 47.6554L1.88372 50.3763L1.13609 50.4514C0.0312555 50.5623 0 50.6413 0 53.3231V55.5886L0.377721 55.8857C0.641582 56.0933 0.862186 56.1567 1.11028 56.096C1.80209 55.9267 1.88037 55.7198 1.93033 53.9298L1.97679 52.26H30H58.0232L58.0697 53.9298C58.1199 55.7303 58.1958 55.926 58.9116 56.1014C59.2047 56.1733 59.3672 56.1148 59.6442 55.8378C59.9957 55.4863 60 55.4551 60 53.2698C60 51.5806 59.9533 50.9935 59.8021 50.7867C59.6175 50.534 59.3625 50.5111 55.9998 50.4461L52.3954 50.3763L52.3577 49.8879C52.2774 48.8477 52.2608 48.83 50.375 47.7677C49.3797 47.207 48.5639 46.7014 48.5618 46.6437C48.5598 46.5861 49.4474 46.5391 50.5342 46.5391C52.3885 46.5391 52.5469 46.5176 53.1036 46.1914C53.4925 45.9635 53.7851 45.6523 53.9531 45.288L54.2093 44.7324L56.2486 44.7288C58.0973 44.7254 58.3224 44.6981 58.6556 44.4359C59.0184 44.1507 59.0233 44.1229 59.0233 42.374C59.0233 40.0209 58.9963 39.981 57.4107 39.981H56.2326V38.2522V36.5237L56.6861 36.4457C56.9354 36.4029 57.5163 36.3281 57.9767 36.2796C58.4372 36.2312 59.0185 36.1287 59.2686 36.0518C60.0227 35.82 60.239 35.0572 59.7027 34.5208C59.392 34.2102 58.9468 34.2046 56.8954 34.4861C56.2952 34.5684 56.2326 34.5507 56.2326 34.2978C56.2326 33.8421 55.7023 33.2833 55.27 33.2833C54.7564 33.2833 54.2791 33.8085 54.2791 34.3736C54.2791 34.6182 54.2594 34.8182 54.2353 34.8182C54.2113 34.8182 53.4786 34.9122 52.6072 35.0272C51.5682 35.1642 50.9347 35.3157 50.7671 35.4674C50.4234 35.7784 50.444 36.4249 50.809 36.7899C51.1196 37.1005 51.5648 37.1061 53.6163 36.8247L54.2791 36.7337V38.3573V39.981H53.8401C53.5112 39.981 53.2299 39.8209 52.7192 39.3431C51.5796 38.2772 51.0629 38.1169 48.5581 38.0526L46.3954 37.9969L45.792 37.4417C43.9019 35.7021 40.7985 35.7417 38.8186 37.5306L38.2983 38.0005L36.2073 38.0494C34.2913 38.094 34.05 38.1292 33.3244 38.4689C32.8889 38.6728 32.249 39.101 31.9026 39.4204C31.4191 39.866 31.1813 39.9906 30.8805 39.9561L30.4884 39.9112L30.4493 38.2182L30.4102 36.5252L30.8679 36.4465C31.1196 36.4033 31.7023 36.3275 32.1628 36.2782C33.6166 36.1227 33.9943 35.9788 34.1901 35.5061C34.3457 35.1304 34.3333 35.0347 34.0859 34.7046C33.8414 34.3785 33.707 34.3301 33.0536 34.3316C32.6404 34.3326 31.8784 34.3846 31.3605 34.4473L30.4186 34.5613V34.1395C30.4186 33.8618 30.3127 33.6436 30.1084 33.5005C29.4053 33.008 28.6047 33.4495 28.6047 34.3298C28.6047 34.625 28.5357 34.82 28.4302 34.8226C28.3344 34.825 27.6031 34.9143 26.8053 35.021C25.7253 35.1656 25.2844 35.2856 25.0786 35.4914C24.7305 35.8396 24.724 36.4149 25.064 36.7924C25.3391 37.098 25.5815 37.1005 27.8721 36.8219L28.6047 36.7327V38.3569V39.981H27.8972C27.336 39.981 27.0613 39.8925 26.5677 39.5529C25.3193 38.694 24.0147 38.2609 22.0038 38.0378C20.8101 37.9054 20.4614 37.7015 20.1435 36.9505C19.8674 36.2982 19.8957 35.4158 20.1977 35.2608C20.332 35.1918 21.164 35.0976 22.0465 35.0517C26.0955 34.8405 28.4374 33.5243 29.7857 30.7019C30.8601 28.453 31.2395 26.3562 31.3514 22.0507C31.4115 19.7402 31.3813 18.8549 31.208 17.8647C30.0361 11.1642 24.9575 5.40783 19.0402 4.0729C17.8053 3.79425 15.6781 3.68234 14.5775 3.8382ZM18.1765 5.85407C21.2132 6.43509 24.1626 8.40476 26.3407 11.3065C27.2858 12.5656 28.5031 15.0242 28.9398 16.556C29.4572 18.3705 29.5814 19.9135 29.4403 22.7725C29.3041 25.5317 29.1534 26.6975 28.7316 28.2551C28 30.9563 26.3586 32.5747 23.9637 32.9561L23.3721 33.0502L23.8942 32.412C24.6022 31.5468 25.4489 29.9291 25.8029 28.7656C26.0992 27.792 26.6512 22.0827 26.6512 19.9933C26.6512 18.0261 25.9527 15.7075 25.2787 15.4372C22.9256 14.4936 16.2673 13.9817 12.2791 14.4376C10.6462 14.6241 7.66995 15.1969 7.08572 15.4368C6.65679 15.613 6.24865 16.5359 5.91977 18.074C5.66135 19.2825 5.67223 20.1715 5.99498 24.2135C6.35791 28.7566 6.67591 29.8792 8.20367 32.0085L8.94544 33.0423L8.38116 32.952C7.31833 32.7821 6.29163 32.2975 5.54107 31.6115C3.88047 30.0938 3.162 27.6698 2.93567 22.8203C2.74521 18.739 3.10842 16.697 4.5367 13.8182C7.41265 8.0216 12.8653 4.83783 18.1765 5.85407ZM15.8114 8.58783C15.3113 8.78723 15.2093 9.18169 15.2093 10.9175C15.2093 12.8935 15.3368 13.1903 16.186 13.1903C17.0394 13.1903 17.1628 12.8975 17.1628 10.8723C17.1628 9.45616 17.1223 9.12783 16.9186 8.8923C16.6148 8.54095 16.2091 8.42932 15.8114 8.58783ZM9.83093 9.76537C9.51893 10.0772 9.48837 10.2179 9.48837 11.3389C9.48837 12.8576 9.66391 13.1903 10.4651 13.1903C11.2663 13.1903 11.4419 12.8576 11.4419 11.3389C11.4419 10.2179 11.4113 10.0772 11.0993 9.76537C10.9109 9.577 10.6256 9.42281 10.4651 9.42281C10.3047 9.42281 10.0193 9.577 9.83093 9.76537ZM21.2728 9.76537C20.9608 10.0772 20.9302 10.2179 20.9302 11.3389C20.9302 12.8576 21.1058 13.1903 21.907 13.1903C22.7082 13.1903 22.8837 12.8576 22.8837 11.3389C22.8837 10.2179 22.8532 10.0772 22.5412 9.76537C22.3528 9.577 22.0674 9.42281 21.907 9.42281C21.7465 9.42281 21.4612 9.577 21.2728 9.76537ZM20.5814 16.3972C22.2236 16.6422 23.936 16.9712 24.0928 17.0717C24.1746 17.1242 24.2849 17.3064 24.3381 17.4766L24.4347 17.7864L23.7639 17.4766C23.0996 17.1701 23.0259 17.167 16.186 17.167C9.34619 17.167 9.27251 17.1701 8.60819 17.4766L7.93744 17.7864L8.03261 17.4766C8.08493 17.3064 8.14144 17.1507 8.15833 17.1307C8.24442 17.0286 10.8433 16.541 12 16.41C12.7291 16.3274 13.514 16.2334 13.7442 16.201C14.4706 16.0989 19.5615 16.2449 20.5814 16.3972ZM23.1561 19.3298C23.95 19.7757 24.5581 20.8601 24.5581 21.83C24.5581 22.7879 23.9907 23.8464 23.2416 24.2854C22.5336 24.7003 21.4344 24.752 20.7025 24.4047C20.1066 24.122 19.3 23.1974 19.1826 22.6624C19.0196 21.9204 18.7312 21.8414 16.186 21.8414C13.6409 21.8414 13.3525 21.9204 13.1895 22.6624C13.072 23.1974 12.2655 24.122 11.6696 24.4047C11.406 24.5298 10.8677 24.6321 10.4733 24.6321C8.95912 24.6321 7.94009 23.6346 7.83935 22.0536C7.74056 20.5015 8.55182 19.3366 9.92623 19.0574C10.261 18.9893 13.2349 18.9443 16.5349 18.9574L22.5349 18.9809L23.1561 19.3298ZM18.0068 24.5146C19.2307 26.3333 21.8302 27.0964 23.7091 26.1886L24.319 25.8939L24.2364 26.8329C24.026 29.2203 22.6771 31.445 20.5958 32.8372C19.1916 33.7763 17.8772 34.175 16.186 34.175C14.4949 34.175 13.1805 33.7763 11.7763 32.8372C9.71386 31.4577 8.36358 29.2472 8.13474 26.876C8.0534 26.0329 8.06386 25.9869 8.31488 26.0905C8.4614 26.1509 8.85823 26.2871 9.1966 26.393C11.0396 26.9699 13.2548 26.1648 14.3653 24.5146L14.8496 23.7949H16.186H17.5225L18.0068 24.5146ZM13.6881 28.1068C13.3726 28.4223 13.3095 28.9552 13.5373 29.3808C13.7447 29.7685 14.9526 30.0749 16.2463 30.0678C18.2689 30.0569 19.3433 29.4332 18.9809 28.4805C18.7769 27.9437 18.2648 27.7555 17.603 27.9738C17.0655 28.1512 15.1354 28.1134 14.3509 27.9101C14.0743 27.8383 13.9067 27.8882 13.6881 28.1068ZM18.1395 36.6017C18.1395 37.3214 18.3811 37.9373 18.9088 38.5633C19.36 39.0984 19.3536 39.1069 18.1395 39.5829C16.7463 40.129 14.4766 39.9299 13.2678 39.1556C13.1068 39.0525 13.1428 38.9434 13.4633 38.5633C13.991 37.9373 14.2326 37.3214 14.2326 36.6017V36.0042H16.186H18.1395V36.6017ZM43.9153 38.4265C44.2284 38.5863 44.6813 38.9544 44.9216 39.2443C46.7227 41.4183 45.1771 44.6703 42.3526 44.6491C39.996 44.6314 38.3741 42.1542 39.3345 40.0394C39.6738 39.2923 40.4902 38.5126 41.212 38.2461C41.9636 37.9687 43.1766 38.0498 43.9153 38.4265ZM12.7175 40.9677C14.3516 41.7925 16.3648 42.0239 18.0625 41.5817C18.9596 41.348 20.6415 40.5166 20.9849 40.1371C21.4123 39.6649 23.9012 40.1452 25.2209 40.9545L25.6744 41.2327V42.6364C25.6744 43.9408 25.6987 44.0644 26.017 44.3826C26.311 44.6767 26.4889 44.7251 27.2761 44.7251C28.1454 44.7251 28.201 44.745 28.3489 45.1089C28.4347 45.3198 28.535 46.6072 28.572 47.9693L28.6393 50.4461H16.186H3.73284L3.80274 47.9693C3.86065 45.9145 3.92316 45.3518 4.16944 44.6667C5.11842 42.0265 7.41084 40.2438 10.186 39.9876C10.9976 39.9129 11.1356 39.9384 11.4975 40.23C11.72 40.4093 12.269 40.7413 12.7175 40.9677ZM37.1934 41.2716C37.1944 42.5988 37.2107 42.6526 38.203 44.6205C38.232 44.6781 37.0306 44.7251 35.5333 44.7251C32.296 44.7251 32.3721 44.7585 32.3721 43.3407C32.3721 41.7643 32.8588 40.8108 33.9354 40.2779C34.4199 40.038 34.7897 39.9811 35.8637 39.9811L37.1923 39.981L37.1934 41.2716ZM50.693 40.2066C51.8897 40.8112 52.3256 41.6176 52.3256 43.2265C52.3256 43.9456 52.2615 44.4543 52.1581 44.5577C52.0393 44.6766 51.1935 44.7251 49.2407 44.7251H46.4908L47.0012 43.7305C47.4871 42.7838 47.5116 42.6698 47.5116 41.3586V39.9812L48.8791 39.9811C49.8615 39.981 50.3721 40.0444 50.693 40.2066ZM30.5581 42.0625C30.5581 42.7285 30.464 42.7716 29.0083 42.7716H27.6279V42.2833V41.7949H29.093C30.4443 41.7949 30.5581 41.8157 30.5581 42.0625ZM57.1832 42.3182L57.227 42.7716H55.753H54.2791V42.2784V41.7851L55.7093 41.8249L57.1395 41.8647L57.1832 42.3182ZM15.4986 44.1161C15.1415 44.5698 15.1331 44.8793 15.4666 45.2911C15.9753 45.9194 17.1628 45.5255 17.1628 44.7285C17.1628 44.2945 16.6185 43.7484 16.186 43.7484C15.9219 43.7484 15.6903 43.8723 15.4986 44.1161ZM30.6282 45.0049C30.7596 45.4193 31.3733 46.1019 31.8236 46.3348C32.1169 46.4865 32.7507 46.5402 34.2837 46.5436C36.6783 46.5487 36.678 46.4717 34.289 47.815C33.4631 48.2795 32.6939 48.7929 32.5797 48.956C32.4656 49.119 32.3721 49.5209 32.3721 49.8493V50.4461H31.4608C30.8555 50.4461 30.53 50.3875 30.4917 50.2716C30.3899 49.9642 30.3448 44.7251 30.4439 44.7251C30.4965 44.7251 30.5794 44.851 30.6282 45.0049ZM47.4419 48.2685C49.1387 49.2426 50.4614 50.0897 50.4869 50.2185C50.5282 50.4268 49.8473 50.4461 42.4288 50.4461C34.8032 50.4461 34.3257 50.4317 34.3291 50.2019C34.3314 50.0305 35.2367 49.4487 37.364 48.2509L40.3954 46.5442L42.4186 46.5452L44.4419 46.5462L47.4419 48.2685ZM15.4266 46.9888C15.1351 47.4048 15.1529 47.6856 15.4986 48.1249C15.6903 48.3687 15.9219 48.4926 16.186 48.4926C16.6118 48.4926 17.1628 47.9484 17.1628 47.5281C17.1628 47.0368 16.7509 46.6786 16.186 46.6786C15.7838 46.6786 15.5876 46.7587 15.4266 46.9888Z" fill="#A6A272"/>
<path d="M51.1979 12.0017C50.2985 12.882 48.9775 11.639 49.8385 10.7224C50.2043 10.333 50.6487 10.3096 51.0778 10.6569C51.4445 10.9538 51.5108 11.6954 51.1979 12.0017Z" fill="#323232"/>
<path d="M38.15 13.7131C37.6006 13.1135 37.5611 12.8141 37.9639 12.3021C38.3605 11.798 38.9053 11.8169 39.4188 12.353C39.6394 12.5833 39.8783 12.7716 39.9498 12.7716C40.0212 12.7716 40.2943 12.5833 40.5565 12.353C41.1101 11.8669 41.6058 11.819 42.0002 12.2135C42.4113 12.6246 42.356 13.2041 41.8607 13.6786C41.6305 13.8992 41.4421 14.1504 41.4421 14.2368C41.4421 14.3231 41.6305 14.5743 41.8607 14.7949C42.3968 15.3084 42.4158 15.8533 41.9116 16.2498C41.3997 16.6527 41.1002 16.6132 40.5006 16.0637L39.982 15.5884L39.4558 16.0637C38.8317 16.6276 38.4806 16.6601 38.0172 16.1965C37.5537 15.7331 37.5862 15.3821 38.15 14.7579L38.6253 14.2317L38.15 13.7131Z" fill="#323232"/>
<path d="M46.1793 21.2523C46.5745 20.6756 47.271 20.1745 47.8949 20.0182C49.9784 19.4964 51.892 21.4987 51.2896 23.5705C50.5681 26.0526 47.2081 26.3364 46.0184 24.0156C45.6334 23.2648 45.7107 21.936 46.1793 21.2523Z" fill="#323232"/>
</svg>
